<svg width="100" height="100" viewBox="0 0 100 100" fill="none" xmlns="http://www.w3.org/2000/svg">
<g id="cassandradb">
<g id="cassandradb_2">
<path id="path2838" d="M79.0271 41.1324C79.7363 49.3939 66.7346 57.257 49.9876 58.6938C33.2406 60.1306 19.0895 54.5966 18.3812 46.3355C17.672 38.0725 30.6737 30.2099 47.4207 28.7731C64.1677 27.3368 78.3188 32.8694 79.0271 41.1324Z" fill="#BBE6FB"/>
<path id="path2862" opacity="0.4" d="M47.912 29.7421C41.5238 29.6383 34.0484 32.1747 28.4862 34.5499C27.9073 36.2182 27.5957 37.9925 27.5957 39.8318C27.5957 49.6318 36.4447 57.5773 47.3609 57.5773C58.2771 57.5773 67.1261 49.6318 67.1261 39.8318C67.1261 36.7304 66.2378 33.8165 64.6801 31.2797C60.2301 30.5879 54.1096 29.8429 47.912 29.7421Z" fill="white"/>
<path id="path2874" d="M47.3608 29.7403C43.8241 29.5245 37.7282 31.3696 32.6451 33.2103C31.8728 35.033 31.4438 37.0276 31.4438 39.1208C31.4438 47.7074 39.229 54.6683 47.4646 54.6683C55.6461 54.6683 62.8846 47.6962 63.4854 39.1208C63.6806 36.3283 62.7194 33.697 61.3847 31.4283C56.1148 30.5001 50.5222 29.9333 47.3608 29.7403Z" fill="white"/>
<path id="path2886" d="M38.285 37.9934C38.7189 37.0325 39.3761 36.562 40.0128 35.7565C39.9421 35.5658 39.7871 34.9421 39.7871 34.7258C39.7871 33.7605 40.5702 32.977 41.536 32.977C41.7639 32.977 41.9815 33.0222 42.1807 33.1014C45.0753 30.8954 48.886 29.9337 52.7154 30.7898C53.0651 30.8686 53.4081 30.964 53.7448 31.0687C49.9601 30.544 45.6941 31.8845 42.7923 34.2266C42.881 34.4357 43.1268 35.0334 43.1268 35.2738C43.1268 36.2396 42.5017 36.4747 41.536 36.4747C41.3166 36.4747 41.1071 36.4326 40.9132 36.3587C40.2577 37.2389 39.4545 38.9157 39.0614 39.9638C40.666 41.3993 42.1158 41.9195 44.0052 42.6256C44.0003 42.5356 44.0702 42.4523 44.0702 42.3606C44.0702 39.4489 46.6334 37.0827 49.5455 37.0827C52.1549 37.0827 54.3156 38.9802 54.7374 41.4696C56.0394 40.6413 57.2984 40.0064 58.2579 38.7787C58.0341 38.5056 57.7927 37.7323 57.7927 37.3518C57.7927 36.4755 58.5037 35.765 59.3799 35.765C59.504 35.765 59.6231 35.7829 59.739 35.8098C60.2262 34.8086 60.5938 33.7475 60.8288 32.6532C56.2754 29.2823 47.4653 29.7421 47.4653 29.7421C47.4653 29.7421 40.4547 29.3763 35.7087 31.6893C36.0253 33.9776 36.9382 36.1532 38.285 37.9934Z" fill="#373535"/>
<path id="path2890" d="M60.0486 36.68C60.3706 36.9701 60.5461 37.2249 60.6844 37.4729C61.1102 38.2386 60.2559 38.9393 59.3797 38.9393C59.2906 38.9393 59.2047 38.9272 59.1191 38.9128C58.1319 40.4557 56.4027 42.4343 54.8666 43.43C57.2221 43.816 59.4433 44.7593 61.211 46.2172C62.4982 43.9109 63.4854 40.5806 63.4854 37.7519C63.4854 35.5987 62.5349 34.0205 61.0999 32.8626C61.0247 34.016 60.4091 35.6292 60.0486 36.68Z" fill="#373535"/>
<path id="path2894" d="M40.9276 51.2872C41.7125 49.1198 43.6431 47.4403 45.4694 45.9628C45.2021 45.597 44.8014 44.6912 44.6344 44.2623C42.4069 43.5849 40.436 42.3169 38.9074 40.6383C38.8962 40.6871 38.8824 40.7346 38.8707 40.7834C38.5828 42.0733 38.53 43.3659 38.6733 44.6268C39.7398 44.8255 40.547 45.76 40.547 46.8842C40.547 47.5509 39.9627 48.5171 39.5092 48.9375C40.0021 50.0013 40.3384 50.5144 40.9276 51.2872Z" fill="#373535"/>
<path id="path2898" d="M40.7894 53.1067C39.8532 52.1759 39.2058 50.3191 38.5982 49.1532C38.4845 49.1707 38.368 49.1828 38.2489 49.1828C36.9792 49.1828 35.649 48.1172 35.9498 46.8841C36.1164 46.2018 36.5874 45.7554 37.3544 45.3829C37.1798 43.9694 37.1323 41.9376 37.4605 40.4681C37.5545 40.0477 37.7538 39.8507 37.8858 39.4504C36.4849 37.4002 35.5796 34.7094 35.5796 32.0395C35.5796 31.9419 35.5845 31.8457 35.5867 31.7489C33.2191 32.9363 31.4438 34.807 31.4438 37.7517C31.4438 44.2653 35.1954 50.6549 40.7773 53.1595C40.7813 53.1421 40.7849 53.1242 40.7894 53.1067Z" fill="#373535"/>
<path id="path2902" d="M54.5151 44.1019C53.7938 46.1534 51.8434 47.6269 49.5452 47.6269C48.3158 47.6269 47.1879 47.2029 46.2915 46.4982C44.4438 47.9372 42.7674 50.4651 41.9154 52.6581C42.2978 53.0696 42.5642 53.4081 42.9931 53.773C44.2857 54.1097 46.0659 53.773 47.4651 53.773C53.0931 53.773 58.0777 51.2692 60.9356 46.8788C59.0354 45.5629 56.794 44.3106 54.5151 44.1019Z" fill="#373535"/>
<path id="path2914" d="M38.1406 38.7545C38.5744 37.7936 39.1184 36.9044 39.7547 36.099C39.6839 35.9087 39.6427 35.7032 39.6427 35.4869C39.6427 34.5216 40.4258 33.7381 41.3916 33.7381C41.6195 33.7381 41.8371 33.7833 42.0363 33.8625C44.9309 31.6566 48.7416 30.6948 52.571 31.5509C52.9207 31.6297 53.2637 31.7251 53.6004 31.8298C49.8157 31.3051 45.9052 32.4652 43.0034 34.8077C43.0921 35.0163 43.1404 35.2465 43.1404 35.4869C43.1404 36.4527 42.3573 37.2358 41.3916 37.2358C41.1722 37.2358 40.9627 37.1937 40.7688 37.1198C40.1133 38 39.5774 38.9725 39.1843 40.0211C40.5624 41.5062 42.2539 42.6806 44.1429 43.3867C44.1384 43.2967 44.129 43.2076 44.129 43.1158C44.129 40.2042 46.489 37.8438 49.4011 37.8438C52.0105 37.8438 54.1712 39.7413 54.593 42.2307C55.895 41.4024 57.0519 40.3386 58.011 39.1109C57.7871 38.8377 57.6483 38.4934 57.6483 38.1129C57.6483 37.2367 58.3593 36.5261 59.2355 36.5261C59.3596 36.5261 59.4787 36.544 59.5946 36.5709C60.0818 35.5697 60.4493 34.5086 60.6844 33.4144C56.131 30.0434 47.3209 30.5032 47.3209 30.5032C47.3209 30.5032 40.3103 30.1374 35.5643 32.4504C35.8809 34.7388 36.7938 36.9143 38.1406 38.7545Z" fill="#1287B1"/>
<path id="path2918" d="M60.2943 36.9395C60.6162 37.2297 60.8226 37.6456 60.8226 38.113C60.8226 38.9893 60.1116 39.7003 59.2354 39.7003C59.1463 39.7003 59.0604 39.6882 58.9748 39.6738C57.9876 41.2167 56.6793 42.5322 55.1427 43.5279C57.4136 43.883 59.5511 44.8465 61.3183 46.3043C62.6055 43.998 63.3411 41.3416 63.3411 38.5129C63.3411 36.3597 62.3906 34.7815 60.9556 33.6236C60.8804 34.777 60.6547 35.8887 60.2943 36.9395Z" fill="#1287B1"/>
<path id="path2922" d="M41.1699 51.808C41.9548 49.6405 43.3186 47.6956 45.1449 46.2185C44.8776 45.8522 44.6573 45.4524 44.4903 45.0235C42.2624 44.3461 40.2919 43.0781 38.7633 41.3995C38.7521 41.4483 38.7378 41.4958 38.7266 41.5446C38.4383 42.8345 38.3854 44.1271 38.5292 45.3879C39.5952 45.5867 40.4029 46.5211 40.4029 47.6454C40.4029 48.3121 40.1168 48.9116 39.6633 49.332C40.0747 50.2042 40.5807 51.0352 41.1699 51.808Z" fill="#1287B1"/>
<path id="path2926" d="M40.7832 53.0803C39.847 52.1495 39.0612 51.0803 38.4541 49.9149C38.3399 49.9323 38.2235 49.944 38.1049 49.944C36.8351 49.944 35.8058 48.9146 35.8058 47.6453C35.8058 46.7355 36.3359 45.9511 37.1028 45.5786C36.9287 44.1655 36.9878 42.6988 37.3164 41.2293C37.4104 40.8093 37.525 40.3992 37.6571 39.9985C36.2562 37.9488 35.4355 35.4706 35.4355 32.8007C35.4355 32.7031 35.44 32.6068 35.4422 32.5106C33.0746 33.6975 31.2993 35.5686 31.2993 38.5129C31.2993 45.027 35.1892 50.6286 40.7711 53.1332C40.7751 53.1157 40.7787 53.0978 40.7832 53.0803Z" fill="#1287B1"/>
<path id="path2930" d="M54.3708 44.8633C53.6495 46.9148 51.6992 48.3883 49.401 48.3883C48.1715 48.3883 47.0437 47.9643 46.1473 47.2595C44.2995 48.6985 42.9048 50.6601 42.0532 52.8535C42.4351 53.265 42.8435 53.6527 43.2724 54.0172C44.5655 54.3539 45.9216 54.5343 47.3208 54.5343C52.9488 54.5343 57.8967 51.6285 60.7546 47.2385C58.8544 45.9222 56.6498 45.0719 54.3708 44.8633Z" fill="#1287B1"/>
<path id="path2954" d="M54.5556 43.5037L59.4265 42.3419L54.5372 42.0925L58.5162 39.0515L54.0013 40.67L57.0696 36.4179L52.8318 39.2346L54.3134 34.2572L51.4031 38.3597L51.3368 33.1754L49.4219 37.7933L47.8253 33.1204L47.9117 38.6252L45.1523 33.6908L46.6455 38.9301L42.1695 35.6751L45.6757 40.0808L40.1189 38.0374L44.5044 41.2821L38.8809 41.4549L44.6307 42.9387L38.876 44.1829L44.5564 44.5949L39.7661 47.6623L44.6987 45.874L41.2763 50.2085L45.6009 46.7207L44.0437 52.5372L47.3825 47.8038L46.9146 53.3942L48.8098 48.3263L50.423 53.653L50.8152 48.3102L53.2097 52.8685L51.7949 47.6547L56.1795 51.0512L53.349 46.7207L58.1594 48.5949L54.4813 44.9804L59.4135 45.3681L54.5556 43.5037Z" fill="white"/>
<path id="path2978" opacity="0.3" d="M2.69946 52.8243C17.806 37.7183 29.871 33.0547 40.8208 30.9257C42.2697 30.6441 42.5437 27.4782 42.5437 27.4782C42.5437 27.4782 42.7465 29.81 43.7606 30.114C44.7743 30.4184 46.092 26.464 46.092 26.464C46.092 26.464 44.8755 30.0128 46.092 30.2156C47.3089 30.4184 49.5391 26.7685 49.5391 26.7685C49.5391 26.7685 48.627 29.9111 49.2355 30.114C49.8431 30.3168 52.8845 25.552 52.8845 25.552C52.8845 25.552 51.0596 28.6947 52.7833 28.9991C54.5076 29.3031 57.022 26.854 57.022 26.854C57.022 26.854 55.0448 29.0949 55.926 29.4043C59.6775 30.7229 62.7132 25.8471 62.7132 25.8471C62.7132 25.8471 62.0098 27.985 60.1848 30.3168C64.1383 31.3305 67.075 25.3743 67.075 25.3743L64.1383 31.3305C65.6593 32.1422 71.7431 25.1464 71.7431 25.1464C71.7431 25.1464 68.6 30.6213 66.775 31.7361C67.7887 32.5474 71.4386 29.3031 71.4386 29.3031C71.4386 29.3031 68.4983 32.9526 69.6136 33.1554C71.2358 34.4735 77.217 26.3629 77.217 26.3629C77.217 26.3629 74.8857 31.1276 71.4386 34.8792C74.3198 36.3204 81.4759 27.0725 81.4759 27.0725C81.4759 27.0725 81.2731 30.0128 76.1022 34.6764C79.9549 34.1695 84.923 26.8697 84.923 26.8697C84.923 26.8697 83.098 32.3446 78.738 36.1969C82.5209 35.8033 88.572 26.464 88.572 26.464C88.572 26.464 86.2407 32.9526 81.4759 36.7042C86.7479 37.8701 94.3518 30.0128 94.3518 30.0128C94.3518 30.0128 91.3609 35.5893 87.4572 37.8701C91.8172 39.5428 97.7989 32.6486 97.7989 32.6486C97.7989 32.6486 91.8172 41.875 82.2872 41.4694C79.1602 41.3364 69.7018 31.9828 49.4379 32.7502C22.6724 33.7643 16.9951 45.1193 2.69946 52.8243Z" fill="#373535"/>
<path id="path2982" d="M3.3186 51.6771C18.4251 36.5711 30.4897 31.9079 41.4395 29.7785C42.8888 29.4969 43.1628 26.3314 43.1628 26.3314C43.1628 26.3314 43.3652 28.6636 44.3798 28.9672C45.3934 29.2712 46.7111 25.3177 46.7111 25.3177C46.7111 25.3177 45.4946 28.8665 46.7111 29.0688C47.9281 29.2712 50.1582 25.6217 50.1582 25.6217C50.1582 25.6217 49.2462 28.7644 49.8538 28.9672C50.4622 29.17 53.5037 24.4048 53.5037 24.4048C53.5037 24.4048 51.6787 27.5479 53.4025 27.8519C55.1258 28.1564 57.6412 25.7073 57.6412 25.7073C57.6412 25.7073 55.664 27.9482 56.5451 28.2575C60.2967 29.5757 63.3314 24.7003 63.3314 24.7003C63.3314 24.7003 62.628 26.8382 60.804 29.17C64.7575 30.1841 67.6941 24.227 67.6941 24.227L64.7575 30.1841C66.2784 30.995 72.3613 24 72.3613 24C72.3613 24 69.2191 29.474 67.3941 30.5893C68.4078 31.4006 72.0577 28.1564 72.0577 28.1564C72.0577 28.1564 69.1175 31.8063 70.2328 32.0087C71.8549 33.3272 77.8362 25.2161 77.8362 25.2161C77.8362 25.2161 75.5039 29.9813 72.0577 33.7324C74.9389 35.1741 82.095 25.9257 82.095 25.9257C82.095 25.9257 81.8922 28.8665 76.7213 33.5301C80.5741 33.0228 85.5421 25.7229 85.5421 25.7229C85.5421 25.7229 83.7172 31.1978 79.3571 35.0506C83.14 34.657 89.1912 25.3177 89.1912 25.3177C89.1912 25.3177 86.8598 31.8063 82.095 35.5574C87.3671 36.7233 94.9709 28.8665 94.9709 28.8665C94.9709 28.8665 91.9801 34.4421 88.0763 36.7233C92.4363 38.396 98.418 31.5018 98.418 31.5018C98.418 31.5018 92.4363 40.7283 82.9054 40.3226C79.7794 40.1892 70.321 30.8356 50.0566 31.6035C23.2915 32.6171 17.6138 43.9721 3.3186 51.6771Z" fill="#373535"/>
<path id="path3006" opacity="0.3" d="M2.30371 54.4765C10.2877 58.4815 17.588 53.8685 26.7885 56.4613C33.7834 58.4331 42.3002 60.8638 53.8575 59.1907C65.4153 57.5184 75.3008 52.4997 80.0159 43.5267C81.4858 39.5226 87.467 44.4396 87.467 44.4396C87.467 44.4396 83.1079 42.6147 83.2096 43.4766C83.3107 44.338 89.7487 47.3289 89.7487 47.3289C89.7487 47.3289 83.9188 45.5039 84.2738 46.8726C84.6289 48.2413 91.5728 53.7162 91.5728 53.7162C91.5728 53.7162 83.7159 47.7345 83.0573 48.5454C82.3978 49.3566 86.4028 52.652 86.4028 52.652C86.4028 52.652 79.762 48.5454 77.4298 49.7565C75.7526 50.6264 84.3244 56.2513 84.3244 56.2513C84.3244 56.2513 78.7479 51.9925 77.4298 53.1078C76.1121 54.2235 83.7159 63.3479 83.7159 63.3479C83.7159 63.3479 75.0975 54.0202 74.2365 54.4765C73.3742 54.9327 76.6185 59.3939 76.6185 59.3939C76.6185 59.3939 72.3605 54.7299 71.1951 55.5412C70.0292 56.3525 77.278 68.4677 77.278 68.4677C77.278 68.4677 69.4207 56.0485 66.1764 58.1259C71.2712 69.3041 69.3701 70.9011 69.3701 70.9011C69.3701 70.9011 68.72 59.4974 62.3743 59.7991C59.1806 59.9514 63.8948 68.3155 63.8948 68.3155C63.8948 68.3155 59.5558 60.6762 56.6661 60.8285C61.9919 70.9074 60.0935 75.0068 60.0935 75.0068C60.0935 75.0068 60.9742 66.3987 53.7509 61.6084C56.4879 64.041 52.0334 75.0068 52.0334 75.0068C52.0334 75.0068 55.952 58.8477 49.1433 61.9285C48.0674 62.4143 49.0672 69.9886 49.0672 69.9886C49.0672 69.9886 47.6985 61.3196 45.6461 61.7763C44.4493 62.0418 38.0418 73.7903 38.0418 73.7903C38.0418 73.7903 43.2888 61.0917 41.6921 61.6241C40.5289 62.0123 38.3462 67.2512 38.3462 67.2512C38.3462 67.2512 39.4105 62.0803 38.3462 61.7763C37.282 61.4719 31.3504 67.2512 31.3504 67.2512C31.3504 67.2512 35.761 62.0803 35.0003 61.0156C33.8479 59.4024 32.497 59.3268 30.8942 59.9514C28.5619 60.8603 25.4197 65.1218 25.4197 65.1218C25.4197 65.1218 28.5521 60.807 28.0045 59.1907C27.1256 56.5938 18.1199 64.2093 18.1199 64.2093C18.1199 64.2093 23.4425 59.1907 22.226 58.1259C21.0096 57.0617 14.4037 57.3908 12.341 57.385C6.25809 57.3661 4.15016 55.9392 2.30371 54.4765Z" fill="#373535"/>
<path id="path3010" d="M2 53.5639C9.98398 57.5689 17.2838 52.9559 26.4843 55.5491C33.4792 57.5201 41.9965 59.9512 53.5542 58.2781C65.112 56.6053 74.9966 51.5867 79.7117 42.6146C81.1816 38.61 87.1629 43.5266 87.1629 43.5266C87.1629 43.5266 82.8037 41.7021 82.9054 42.564C83.0066 43.4254 89.4445 46.4163 89.4445 46.4163C89.4445 46.4163 83.6146 44.5918 83.9697 45.9605C84.3247 47.3287 91.2695 52.8036 91.2695 52.8036C91.2695 52.8036 83.4118 46.8215 82.7532 47.6332C82.0945 48.4441 86.0991 51.7389 86.0991 51.7389C86.0991 51.7389 79.4578 47.6332 77.1261 48.8434C75.4484 49.7138 84.0202 55.3382 84.0202 55.3382C84.0202 55.3382 78.4437 51.0799 77.1261 52.1952C75.8079 53.3109 83.4127 62.4353 83.4127 62.4353C83.4127 62.4353 74.7938 53.1076 73.9324 53.5639C73.0709 54.0206 76.3152 58.4809 76.3152 58.4809C76.3152 58.4809 72.0564 53.8173 70.8909 54.6286C69.725 55.4394 76.9738 67.5551 76.9738 67.5551C76.9738 67.5551 69.1165 55.1354 65.8723 57.2138C70.967 68.3915 69.0659 69.9885 69.0659 69.9885C69.0659 69.9885 68.4158 58.5848 62.0701 58.887C58.8764 59.0392 63.5906 67.4029 63.5906 67.4029C63.5906 67.4029 59.2516 59.7632 56.3624 59.9154C61.6887 69.9948 59.7894 74.0942 59.7894 74.0942C59.7894 74.0942 60.6701 65.4857 53.4468 60.6954C56.1838 63.1284 51.7293 74.0942 51.7293 74.0942C51.7293 74.0942 55.6487 57.9351 48.8401 61.016C47.7642 61.5022 48.7639 69.076 48.7639 69.076C48.7639 69.076 47.3943 60.4075 45.3424 60.8637C44.1451 61.1292 37.7376 72.8777 37.7376 72.8777C37.7376 72.8777 42.9846 60.1791 41.388 60.7119C40.2248 61.0992 38.0421 66.3382 38.0421 66.3382C38.0421 66.3382 39.1068 61.1677 38.0421 60.8637C36.9778 60.5597 31.0467 66.3382 31.0467 66.3382C31.0467 66.3382 35.4573 61.1677 34.6962 60.103C33.5437 58.4898 32.1929 58.4146 30.5905 59.0392C28.2578 59.9477 25.1156 64.2092 25.1156 64.2092C25.1156 64.2092 28.2479 59.8939 27.7008 58.2781C26.8214 55.6817 17.8162 63.2967 17.8162 63.2967C17.8162 63.2967 23.1388 58.2781 21.9219 57.2138C20.7054 56.1491 14.0995 56.4786 12.0368 56.4724C5.95393 56.4531 3.84645 55.0266 2 53.5639Z" fill="#373535"/>
</g>
</g>
</svg>
