<svg width="100" height="100" viewBox="0 0 100 100" fill="none" xmlns="http://www.w3.org/2000/svg">
<g id="clickhouse">
<g id="clickhouse_2">
<path id="Vector" d="M9.94252 -0.00012207H1.16892C0.523436 -0.00012207 0.000167847 0.523145 0.000167847 1.16863V98.8311C0.000167847 99.4766 0.523436 99.9999 1.16892 99.9999H9.94252C10.588 99.9999 11.1113 99.4766 11.1113 98.8311V1.16863C11.1113 0.523145 10.588 -0.00012207 9.94252 -0.00012207Z" fill="#FAFF69"/>
<path id="Vector_2" d="M32.1654 -0.00012207H23.3918C22.7463 -0.00012207 22.2231 0.523145 22.2231 1.16863V98.8311C22.2231 99.4766 22.7463 99.9999 23.3918 99.9999H32.1654C32.8109 99.9999 33.3342 99.4766 33.3342 98.8311V1.16863C33.3342 0.523145 32.8109 -0.00012207 32.1654 -0.00012207Z" fill="#FAFF69"/>
<path id="Vector_3" d="M54.3883 -0.00012207H45.6147C44.9692 -0.00012207 44.446 0.523145 44.446 1.16863V98.8311C44.446 99.4766 44.9692 99.9999 45.6147 99.9999H54.3883C55.0338 99.9999 55.5571 99.4766 55.5571 98.8311V1.16863C55.5571 0.523145 55.0338 -0.00012207 54.3883 -0.00012207Z" fill="#FAFF69"/>
<path id="Vector_4" d="M76.6066 -0.00012207H67.833C67.1875 -0.00012207 66.6642 0.523145 66.6642 1.16863V98.8311C66.6642 99.4766 67.1875 99.9999 67.833 99.9999H76.6066C77.2521 99.9999 77.7753 99.4766 77.7753 98.8311V1.16863C77.7753 0.523145 77.2521 -0.00012207 76.6066 -0.00012207Z" fill="#FAFF69"/>
<path id="Vector_5" d="M98.8368 38.8899H90.0632C89.4177 38.8899 88.8944 39.4132 88.8944 40.0586V59.9434C88.8944 60.5889 89.4177 61.1121 90.0632 61.1121H98.8368C99.4823 61.1121 100.006 60.5889 100.006 59.9434V40.0586C100.006 39.4132 99.4823 38.8899 98.8368 38.8899Z" fill="#FAFF69"/>
</g>
</g>
</svg>
