<svg width="100" height="100" viewBox="0 0 100 100" fill="none" xmlns="http://www.w3.org/2000/svg">
<g id="datadog" clip-path="url(#clip0_790_542)">
<g id="datadog_2">
<path id="Vector" fill-rule="evenodd" clip-rule="evenodd" d="M81.2482 70.9859L72.927 65.5114L65.9927 77.0808L57.927 74.745L50.8102 85.5844L51.1752 88.9786L89.7883 81.8618L87.562 57.7742L81.2482 70.9859ZM45.2263 60.5844L51.4307 59.745C52.4161 60.183 53.1095 60.3655 54.3504 60.6574C55.5358 61.048 56.7887 61.1912 58.0316 61.0782C59.2746 60.9652 60.4811 60.5984 61.5766 60.0005C62.3066 59.6355 63.8759 58.1757 64.4963 57.4092L89.8978 52.7742L92.4526 84.1611L49.0219 91.9713L45.2263 60.5844ZM92.3796 49.2706L89.8613 49.7815L85.0438 0.000488281L3.0365 9.48954L13.146 91.6063L22.708 90.1465C21.9416 89.0516 20.7372 87.7377 18.6934 86.0589C15.8832 83.6866 16.8686 79.7085 18.5474 77.1903C20.7372 72.9202 32.1241 67.5187 31.4672 60.6939C31.2482 58.2487 30.8467 55.0005 28.5474 52.8107C28.4745 53.7231 28.6204 54.6355 28.6204 54.6355C28.6204 54.6355 27.6715 53.3946 27.1971 51.7523C26.7591 51.1319 26.3942 50.9494 25.8832 50.11C25.5183 51.0589 25.5912 52.1903 25.5912 52.1903C25.5912 52.1903 24.7883 50.3655 24.6788 48.8326C24.3545 49.4569 24.156 50.139 24.0949 50.8399C24.0949 50.8399 23.1095 47.9202 23.365 46.4238C22.8905 45.0735 21.5401 42.4092 21.9051 36.3144C24.4234 38.0662 29.9343 37.6647 32.0511 34.4895C32.781 33.4311 33.2555 30.5844 31.6861 24.9275C30.7007 21.3144 28.219 15.9494 27.2701 13.9056L27.1606 13.9786C27.8559 16.2144 28.5008 18.4656 29.0949 20.7304C30.3723 25.8399 30.7372 27.5917 30.1168 29.9275C29.6423 31.9713 28.4745 33.2852 25.5183 34.7815C22.562 36.2414 18.6204 32.6282 18.365 32.4457C15.8273 30.4375 13.9673 27.6985 13.0365 24.599C12.781 22.5917 14.1679 21.4238 14.8613 19.7815C14.1398 20.0051 13.4328 20.2732 12.7445 20.5844C12.7445 20.5844 14.0949 19.1976 15.7372 18.0297C16.4672 17.5552 16.8321 17.2633 17.562 16.6428H15.6642C15.6642 16.6428 17.4161 15.7304 19.2409 15.037C17.8905 14.964 16.6131 15.037 16.6131 15.037C16.6131 15.037 20.5183 13.2852 23.6204 12.0078C25.7372 11.1319 27.8175 11.3873 28.9854 13.0662C30.4818 15.256 32.0876 16.4603 35.5182 17.1903C37.5985 16.2779 38.219 15.8034 40.8467 15.0735C43.146 12.5187 44.9708 12.2268 44.9708 12.2268C44.9708 12.2268 44.0584 13.0297 43.8394 14.3436C45.1533 13.3217 46.5766 12.4457 46.5766 12.4457C46.5766 12.4457 46.0292 13.1392 45.4818 14.2341L45.6277 14.4165C46.6984 13.7985 47.8078 13.2499 48.9489 12.7742L47.854 14.2341C48.9854 14.2341 51.3212 14.3071 52.2336 14.4165C57.5985 14.526 58.6934 8.68662 60.7372 7.95669C63.292 7.04428 64.4599 6.49684 68.8394 10.8034C72.5985 14.453 75.5547 21.0954 74.0949 22.5917C72.854 23.7961 70.4453 22.1173 67.781 18.7596C66.2536 16.8799 65.2243 14.6457 64.7883 12.2633C64.3869 10.037 62.7445 8.72312 62.7445 8.72312C62.7445 8.72312 63.6934 10.8399 63.6934 12.7377C63.6934 13.7596 63.8029 17.5552 65.4453 19.7085C65.2993 20.037 65.2263 21.2779 65.0438 21.5333C63.146 19.1976 59.0219 17.5187 58.365 17.0808C60.6277 18.9056 65.8102 23.1757 67.854 27.2633C69.7153 31.1319 68.5839 34.672 69.5693 35.5844C69.8248 35.8399 73.6204 40.5479 74.3504 42.9567C75.6277 47.0808 74.4234 51.4238 72.7445 54.1246L68.1095 54.8545C67.4161 54.672 66.9781 54.5625 66.3577 54.1976C66.785 53.447 67.1277 52.6514 67.3796 51.8253L67.1241 51.3509C65.5185 53.4552 63.5082 55.2172 61.2117 56.5333C60.0421 57.1472 58.7618 57.5215 57.4458 57.6343C56.1297 57.7471 54.8044 57.5962 53.5474 57.1903C49.1572 55.6871 45.0404 53.4808 41.3577 50.6574C41.3577 50.6574 41.3577 51.4603 41.5766 51.6428C42.9635 53.2487 46.2117 56.1319 49.3504 58.1392L42.6715 58.8691L45.8467 83.4676C44.4234 83.6866 44.2044 83.7961 42.6715 84.0151C41.7012 80.0544 39.2952 76.595 35.9197 74.3071C33.1276 72.7303 29.8446 72.2612 26.7226 72.9932L26.5401 73.2122C28.8029 72.9932 31.5037 73.3217 34.2774 75.0735C37.0146 76.7888 39.2044 81.2779 40.0073 83.9056C41.0657 87.3363 41.7591 90.9859 38.9854 94.8545C37.0146 97.6282 31.2117 99.1611 26.5766 95.8764C27.781 97.8837 29.4964 99.526 31.7591 99.818C35.1168 100.292 38.3285 99.7085 40.5183 97.4457C42.4161 95.5114 43.4015 91.4603 43.146 87.2268L46.1022 86.7888L47.1971 94.4165L96.4672 88.4676L92.4161 49.3071L92.3796 49.2706ZM62.4526 28.5406C62.2701 28.8691 62.0876 29.0516 62.3796 30.0735V30.1465L62.4526 30.2925L62.5985 30.5844C63.1825 31.7888 63.8394 32.9202 64.8978 33.5041C65.1898 33.4311 65.4453 33.3946 65.7737 33.3946C66.7591 33.3582 67.4161 33.5041 67.8175 33.7231V32.7742C67.7445 31.2779 68.1095 28.6866 65.2263 27.3363C64.1314 26.8253 62.562 26.9713 62.0511 27.6282L62.3066 27.7012C63.073 27.9567 62.562 28.2122 62.4161 28.5406H62.4526ZM70.5912 42.6647C67.5108 42.3422 64.4015 42.8857 61.6131 44.2341C60.5912 45.037 61.0657 46.4238 61.8321 46.9713C63.9489 48.5771 65.8467 49.6355 67.781 49.3801C68.9854 49.2341 70.0438 47.2998 70.8102 45.5844C71.3212 44.3801 71.3212 43.1027 70.5547 42.6647H70.5912ZM49.4234 30.4384C50.1168 29.7815 46.0657 28.9421 42.9635 31.0589C40.6642 32.6282 40.5912 36.0224 42.781 37.9202L43.365 38.3582C45.1944 37.4779 47.1539 36.8987 49.1679 36.6428C49.6423 36.1319 50.1898 35.183 50.0438 33.5406C49.8613 31.2779 48.146 31.6428 49.4234 30.4384Z" fill="#632CA6"/>
</g>
</g>
<defs>
<clipPath id="clip0_790_542">
<rect width="100" height="100" fill="white" transform="translate(0 0.000488281)"/>
</clipPath>
</defs>
</svg>
