<svg width="100" height="100" viewBox="0 0 100 100" fill="none" xmlns="http://www.w3.org/2000/svg">
<g id="dlang">
<g id="dlang_2">
<path id="Vector" d="M74.1711 55.2259C83.9361 55.2259 91.8522 47.9695 91.8522 39.0182C91.8522 30.067 83.9361 22.8105 74.1711 22.8105C64.4061 22.8105 56.49 30.067 56.49 39.0182C56.49 47.9695 64.4061 55.2259 74.1711 55.2259Z" fill="#B03931"/>
<path id="Vector_2" d="M94.3188 26.4151C97.4565 26.4151 100 24.0835 100 21.2074C100 18.3312 97.4565 15.9996 94.3188 15.9996C91.1812 15.9996 88.6377 18.3312 88.6377 21.2074C88.6377 24.0835 91.1812 26.4151 94.3188 26.4151Z" fill="#B03931"/>
<path id="Vector_3" d="M2.19995 17.7779C0.968874 17.9301 0.00408778 18.9127 0 20.102L0.0776987 80.8286C0.0776987 81.7483 0.326473 83.6448 2.91364 83.6448L26.1701 83.5521C32.8179 83.5402 37.2705 83.4265 39.9221 83.0913C39.9376 83.0914 39.9696 83.0913 39.9851 83.0912C42.5227 82.7387 45.2107 82.0892 48.1334 81.1403C53.2143 79.5517 57.7198 77.2045 61.5937 74.0696C65.3866 71.0326 68.3259 67.437 70.3917 63.3921C72.4574 59.3473 73.4987 55.0706 73.491 50.637C73.48 44.4656 71.6131 38.6868 67.8673 33.4878C64.1211 28.2887 59.0077 24.3071 52.7149 21.6702C46.3176 18.958 37.9762 17.7222 27.628 17.7407L2.51466 17.7774C2.4067 17.778 2.30428 17.765 2.19995 17.7779ZM15.7167 30.2736L26.5425 30.2578C31.6019 30.2488 35.2013 30.4024 37.243 30.6828C39.3127 30.9672 41.5795 31.5672 43.98 32.4945C46.3592 33.401 48.4333 34.5113 50.2155 35.8933C55.1186 39.7054 57.4299 44.217 57.4405 50.1904C57.4513 56.3068 55.2177 61.071 50.4416 65.0665C48.9725 66.2792 47.3387 67.3074 45.5362 68.1585C43.8326 68.9519 41.6103 69.6357 38.8042 70.2249C36.1577 70.7542 32.1399 71.0555 26.9095 71.0649L15.769 71.0812L15.7167 30.2736Z" fill="#B03931"/>
</g>
</g>
</svg>
