<svg width="100" height="100" viewBox="0 0 100 100" fill="none" xmlns="http://www.w3.org/2000/svg">
<g id="elixir">
<g id="elixir_2">
<path id="Vector" fill-rule="evenodd" clip-rule="evenodd" d="M53.2615 0.236572C45.9163 2.84293 39.045 10.4251 32.1737 22.746C21.9852 41.4645 8.95344 68.0019 26.961 89.0898C35.254 98.8044 49.2335 104.491 67.2411 95.4872C81.6945 88.142 85.9595 67.0542 80.5098 57.3395C69.6105 36.9625 58.7112 31.9868 55.8679 19.4289C53.9723 10.899 53.0246 4.50152 53.2615 0.236572Z" fill="url(#paint0_linear_790_727)"/>
<path id="Vector_2" fill-rule="evenodd" clip-rule="evenodd" d="M53.2615 -0.000366211C45.9163 2.60599 38.8081 10.1881 32.1737 22.5091C21.9852 41.2275 8.95344 67.765 26.961 88.8528C35.254 98.5674 48.9966 101.648 56.5787 95.9611C61.5545 92.17 64.8716 88.6159 66.7672 81.0337C68.8997 72.5038 67.2411 61.3676 66.0564 55.9179C64.6347 49.2835 64.1608 42.1753 64.6347 34.1193C64.6347 34.1193 64.3978 34.1193 64.3978 33.8823C60.3698 29.1435 57.5265 24.8785 56.1048 18.955C53.9723 10.662 53.0246 4.26459 53.2615 -0.000366211Z" fill="url(#paint1_linear_790_727)"/>
<path id="Vector_3" fill-rule="evenodd" clip-rule="evenodd" d="M47.101 3.31689C40.2297 8.76656 35.254 17.7703 31.9368 30.3283C26.961 49.2836 26.4871 66.8173 28.1457 77.2427C31.4629 97.1458 49.2335 104.491 67.2411 95.2503C78.3773 89.5637 83.1162 77.4797 82.8792 64.2109C82.6423 50.4683 56.1048 35.0671 51.6029 23.6939C48.5227 15.8748 47.101 9.24044 47.101 3.31689Z" fill="url(#paint2_linear_790_727)"/>
<path id="Vector_4" fill-rule="evenodd" clip-rule="evenodd" d="M64.3977 38.8581C72.6907 49.2836 74.3493 56.6288 69.8474 60.6568C62.9761 66.8173 45.9163 70.8453 35.4908 63.5001C28.3826 58.5243 25.7762 47.8619 27.4348 31.5129C24.5915 37.6734 21.9852 43.597 20.0896 49.9944C18.1941 56.1549 17.4833 62.7893 18.431 69.4236C21.0374 74.3994 26.9609 77.9535 36.6755 79.6121C51.129 82.2185 64.8716 80.7968 74.1123 76.2949C80.2728 73.2147 83.1161 70.1345 82.8792 67.0542C83.1161 62.5523 81.6944 58.2874 78.6142 54.0224C75.7709 49.7575 71.0321 44.7817 64.3977 38.8581Z" fill="url(#paint3_linear_790_727)"/>
<path id="Vector_5" fill-rule="evenodd" clip-rule="evenodd" d="M32.4106 28.4326C32.4106 36.0148 34.3061 43.123 38.3341 49.9943C44.2577 60.1828 51.129 70.3713 61.5544 78.6643C68.4257 84.3509 74.1123 86.0095 78.1403 84.1139C74.8231 90.2744 71.0321 93.1177 67.241 93.1177C61.5544 92.8808 54.4461 90.5114 43.3099 77.0057C35.7278 68.0019 30.752 59.472 27.9087 51.416C28.3826 48.3357 28.8565 45.0185 29.3303 41.9383C30.0412 38.8581 30.9889 34.3562 32.4106 28.4326Z" fill="url(#paint4_linear_790_727)"/>
<path id="Vector_6" fill-rule="evenodd" clip-rule="evenodd" d="M50.1813 38.8582C50.8921 45.0187 53.2615 54.9702 50.1813 61.3676C47.1011 68.002 33.1215 79.8491 36.9126 90.2746C40.7036 100.7 50.1813 98.3306 56.1048 93.5917C62.0284 88.8529 65.1086 81.0338 65.8194 75.3472C66.5303 69.8976 64.1609 59.2352 63.45 49.9944C62.9761 43.834 63.2131 38.6212 64.3978 34.1193L62.5023 31.7499L51.8399 28.6697C50.4182 31.276 49.7074 34.5932 50.1813 38.8582Z" fill="url(#paint5_linear_790_727)"/>
<path id="Vector_7" fill-rule="evenodd" clip-rule="evenodd" d="M53.9723 8.2926C50.4182 9.71425 47.3379 12.5576 44.2577 17.0594C39.5189 23.4569 37.1495 27.4849 39.045 40.2797C40.2297 48.8097 40.9405 56.6287 41.6513 63.9739L56.5787 20.6136C56.1048 18.4811 55.6309 16.3486 55.157 14.69C54.4462 12.5576 54.2092 10.662 53.9723 8.2926Z" fill="url(#paint6_linear_790_727)"/>
<path id="Vector_8" fill-rule="evenodd" clip-rule="evenodd" d="M56.3417 20.3767C52.5507 22.5092 49.7074 27.248 47.5749 33.8824C45.4424 40.7537 43.5469 50.2314 41.8883 62.5523C44.2577 54.7333 45.6794 49.0467 46.3902 45.4925C47.5749 40.2798 47.8118 32.6977 50.8921 27.7219C52.7876 24.4047 54.6831 22.0353 56.3417 20.3767Z" fill="#330A4C" fill-opacity="0.3163"/>
<path id="Vector_9" fill-rule="evenodd" clip-rule="evenodd" d="M38.5712 93.8286C44.7316 94.7764 48.0488 95.4872 48.2858 96.198C48.7597 97.1458 47.5749 98.0936 44.0208 97.6197C41.8883 97.1458 39.9928 95.9611 38.5712 93.8286Z" fill="white"/>
<path id="Vector_10" fill-rule="evenodd" clip-rule="evenodd" d="M41.8883 8.2926C38.5711 12.3206 35.4908 16.8225 32.8845 21.3244C30.2781 25.8263 28.6195 29.3804 27.4348 31.5129C27.1979 33.1715 26.9609 35.7779 26.9609 39.095C26.9609 42.4122 27.1979 45.9664 27.9087 49.9944C28.3826 42.1753 29.8042 34.3562 32.4106 27.011C34.78 19.6658 38.0972 13.2684 41.8883 8.2926Z" fill="#EDEDED" fill-opacity="0.6033"/>
</g>
</g>
<defs>
<linearGradient id="paint0_linear_790_727" x1="51.3143" y1="7.55357" x2="47.8353" y2="100.104" gradientUnits="userSpaceOnUse">
<stop stop-color="#D9D8DC"/>
<stop offset="1" stop-color="white" stop-opacity="0.3853"/>
</linearGradient>
<linearGradient id="paint1_linear_790_727" x1="50.0486" y1="6.01387" x2="13.7031" y2="85.6721" gradientUnits="userSpaceOnUse">
<stop stop-color="#8D67AF" stop-opacity="0.6719"/>
<stop offset="1" stop-color="#9F8DAF"/>
</linearGradient>
<linearGradient id="paint2_linear_790_727" x1="55.1602" y1="33.3655" x2="55.1602" y2="97.4412" gradientUnits="userSpaceOnUse">
<stop stop-color="#26053D" stop-opacity="0.7616"/>
<stop offset="1" stop-color="#B7B4B4" stop-opacity="0.2777"/>
</linearGradient>
<linearGradient id="paint3_linear_790_727" x1="31.2441" y1="35.2004" x2="47.5564" y2="78.4086" gradientUnits="userSpaceOnUse">
<stop stop-color="#91739F" stop-opacity="0.4595"/>
<stop offset="1" stop-color="#32054F" stop-opacity="0.5399"/>
</linearGradient>
<linearGradient id="paint4_linear_790_727" x1="68.1136" y1="90.9059" x2="23.2626" y2="53.7579" gradientUnits="userSpaceOnUse">
<stop stop-color="#463D49" stop-opacity="0.3312"/>
<stop offset="1" stop-color="#340A50" stop-opacity="0.8214"/>
</linearGradient>
<linearGradient id="paint5_linear_790_727" x1="57.0145" y1="32.6473" x2="25.3831" y2="80.7766" gradientUnits="userSpaceOnUse">
<stop stop-color="#715383" stop-opacity="0.1452"/>
<stop offset="1" stop-color="#F4F4F4" stop-opacity="0.2336"/>
</linearGradient>
<linearGradient id="paint6_linear_790_727" x1="62.2665" y1="44.5455" x2="39.8661" y2="43.1782" gradientUnits="userSpaceOnUse">
<stop stop-color="#A5A1A8" stop-opacity="0.3561"/>
<stop offset="1" stop-color="#370C50" stop-opacity="0.582"/>
</linearGradient>
</defs>
</svg>
