<svg width="100" height="100" viewBox="0 0 100 100" fill="none" xmlns="http://www.w3.org/2000/svg">
<g id="ember">
<g id="ember_2">
<path id="Vector" d="M50 0.000488281C77.6141 0.000488281 100 22.3864 100 50.0005C100 77.6145 77.6141 100 50 100C22.3859 100 0 77.6145 0 50.0005C0 22.3864 22.3859 0.000488281 50 0.000488281Z" fill="#E05C43"/>
<path id="Vector_2" fill-rule="evenodd" clip-rule="evenodd" d="M50.9883 18.8505C57.4305 18.7232 61.9828 20.4701 65.9 26.0302C74.4422 47.2091 43.9102 58.1396 42.686 58.5693L42.6477 58.5818C42.6477 58.5818 41.7258 64.3341 50.4821 64.113C61.2579 64.113 72.5868 55.7607 76.8961 52.2302C77.397 51.8185 78.0348 51.6111 78.682 51.6495C79.3292 51.6879 79.9381 51.9693 80.3868 52.4373L83.6133 55.7888C84.0668 56.2564 84.3258 56.8787 84.3382 57.53C84.3505 58.1813 84.1152 58.813 83.6797 59.2974C80.875 62.4201 74.2938 68.831 64.386 72.9724C64.386 72.9724 47.8547 80.6271 36.7141 73.3787C30.0711 69.0583 28.2438 63.8857 27.5008 58.5052C27.5047 58.5052 19.4352 58.0958 14.2532 56.0724C9.06957 54.0474 14.2914 47.9388 14.2914 47.9388C14.2914 47.9388 15.8852 45.413 18.9164 47.9388C21.95 50.4607 27.6118 49.3232 27.6118 49.3232C28.1164 45.3396 28.9555 40.0826 31.4274 34.5341C36.6086 22.9052 44.5438 18.9755 50.9883 18.8505ZM54.7797 30.5029C51.3664 27.2138 41.511 33.7857 41.1305 48.8232C41.1305 48.8232 44.0399 49.7091 50.4821 45.2841C56.9274 40.8615 58.193 33.7857 54.7797 30.5029Z" fill="white"/>
</g>
</g>
</svg>
