<svg width="100" height="100" viewBox="0 0 100 100" fill="none" xmlns="http://www.w3.org/2000/svg">
<g id="flyio">
<g id="flyio_2">
<path id="Vector" fill-rule="evenodd" clip-rule="evenodd" d="M69.928 17.3424H81.4428C91.6848 17.3424 100 25.6576 100 35.8996V76.389C100 86.631 91.6848 94.9462 81.4428 94.9462H80.5354C75.264 94.1216 72.9778 92.5406 71.2118 91.2045L56.5716 79.1672C56.2048 78.8706 55.7474 78.7087 55.2757 78.7087C54.804 78.7087 54.3465 78.8706 53.9798 79.1672L49.2235 83.0781L35.8282 72.0639C35.4619 71.7667 35.0045 71.6045 34.5328 71.6045C34.0612 71.6045 33.6038 71.7667 33.2375 72.0639L14.628 88.4348C10.8827 91.481 8.4053 90.9183 6.79878 90.7417C2.64911 87.3362 0 82.1695 0 76.389V35.8996C0 25.6576 8.31517 17.3424 18.5584 17.3424H30.0476L30.0269 17.3887L29.6396 18.5178L29.519 18.9051L28.9977 21.218L28.9259 21.6236L28.6969 23.9402L28.6664 24.576L28.6616 24.7989L28.6835 25.861L28.7359 26.4834L28.865 27.4577L29.0294 28.3347L29.2243 29.1422L29.4776 30.0167L30.1353 31.8681L30.3521 32.4235L31.497 34.8424L31.9014 35.5853L33.2253 37.8581L33.732 38.6778L35.5797 41.3988L35.8464 41.7593L38.2507 44.8883L39.0278 45.8517L41.7731 49.0611L42.3371 49.6786L44.6001 52.1134L45.4965 53.0415L46.9776 54.5128L46.6804 54.7613L46.4953 54.9281C45.9922 55.397 45.5148 55.8952 45.0678 56.4189C44.853 56.6723 44.6482 56.9339 44.4539 57.2033C44.1576 57.6148 43.8925 58.048 43.661 58.4992C43.5427 58.7335 43.4366 58.9738 43.3431 59.2191C43.1021 59.8457 42.9571 60.5052 42.9132 61.1752L42.9046 61.7537C42.9257 62.5695 43.0919 63.375 43.3955 64.1324C43.7031 64.9003 44.1517 65.6039 44.7182 66.2066C45.1299 66.6451 45.5988 67.0276 46.1128 67.3418C46.5501 67.6098 47.0166 67.8302 47.5013 67.9983C48.555 68.3555 49.6731 68.4826 50.7801 68.371H50.7862C51.7307 68.2794 52.6487 68.0069 53.4901 67.5683C53.8531 67.3759 54.199 67.153 54.523 66.8997C55.4507 66.1776 56.1696 65.2217 56.6057 64.13C56.9468 63.2786 57.1136 62.3688 57.099 61.4529L57.0722 60.9742C57.0104 60.3419 56.8595 59.7215 56.624 59.1314C56.522 58.8744 56.4061 58.6231 56.2769 58.3787C56.0371 57.9284 55.7643 57.4964 55.4608 57.0864C55.3219 56.8988 55.1782 56.7148 55.0297 56.5346C54.5353 55.9445 54.0032 55.3871 53.4365 54.866L53.0358 54.525L53.7142 53.8551L56.6301 50.8101L57.6386 49.703L59.2061 47.9393L60.2256 46.7469L61.6798 44.976L62.664 43.7385L64.1097 41.8056L64.8393 40.8056L65.8746 39.2576L66.7369 37.9385L68.3617 35.1091L69.291 33.2529L69.3178 33.1957L70.0291 31.4734C70.0385 31.4512 70.0466 31.4284 70.0535 31.4052L70.8196 29.0156L70.9 28.6672L71.2325 26.7647L71.297 26.2495L71.3165 25.9341L71.3397 24.7429L71.3336 24.5212L71.2727 23.4542L71.1972 22.626L70.8196 20.2376C70.8135 20.2059 70.8074 20.1742 70.7977 20.1425L70.3129 18.3765L70.146 17.8856L69.928 17.3424ZM75.4016 67.8339C74.2406 67.8502 73.1317 68.3187 72.3106 69.1398C71.4896 69.9609 71.0211 71.0697 71.0047 72.2308C71.0217 73.3915 71.4904 74.4999 72.3114 75.3206C73.1324 76.1414 74.2409 76.6098 75.4016 76.6265C76.5624 76.6095 77.6709 76.141 78.492 75.3204C79.313 74.4997 79.7822 73.3915 79.7998 72.2308C79.7831 71.0696 79.3143 69.9607 78.4931 69.1397C77.6718 68.3187 76.5628 67.8502 75.4016 67.8339Z" fill="url(#paint0_radial_790_797)"/>
<path id="Vector_2" fill-rule="evenodd" clip-rule="evenodd" d="M43.4077 93.3569L42.6319 94.0086C41.9147 94.6004 41.0161 94.9281 40.0863 94.9367H18.556C14.2676 94.942 10.1108 93.4561 6.79761 90.7334C8.40413 90.91 10.8815 91.4727 14.6268 88.4266L33.2339 72.0569C33.6007 71.7607 34.0579 71.5992 34.5292 71.5992C35.0006 71.5992 35.4578 71.7607 35.8246 72.0569L49.2187 83.0699L53.9737 79.1601C54.7276 78.5511 55.8129 78.5511 56.5656 79.1601L71.2045 91.1962C72.9706 92.5324 75.2567 94.1121 80.5269 94.9367H70.7892C69.9287 94.9265 69.0929 94.648 68.3983 94.1401L68.2278 94.0086L67.5055 93.4081C67.4473 93.3379 67.3829 93.2731 67.3131 93.2144C66.4946 92.5287 56.1235 83.9371 56.1235 83.9371C55.9042 83.7548 55.628 83.6552 55.3429 83.6557C55.0578 83.6561 54.7819 83.7565 54.5632 83.9395C54.5632 83.9395 54.5888 83.9712 43.5551 93.2144C43.5025 93.2582 43.4532 93.3058 43.4077 93.3569ZM75.3944 67.828C74.2351 67.8493 73.1292 68.3192 72.3092 69.1389C71.4892 69.9587 71.019 71.0645 70.9975 72.2237C71.0196 73.3828 71.49 74.4882 72.3099 75.3079C73.1297 76.1275 74.2353 76.5976 75.3944 76.6194C76.5535 76.5976 77.659 76.1275 78.4789 75.3079C79.2987 74.4882 79.7691 73.3828 79.7913 72.2237C79.7697 71.0645 79.2995 69.9587 78.4795 69.1389C77.6596 68.3192 76.5537 67.8493 75.3944 67.828ZM46.9728 54.5082L45.4917 53.0369L44.5953 52.1088L42.3322 49.674L41.7683 49.0565L39.0242 45.8483L38.2471 44.8849L35.8428 41.7559L35.5761 41.3954L33.7284 38.6744L33.2217 37.8547L31.8978 35.582L31.4934 34.839L30.3485 32.4213L30.1317 31.8659L29.4752 30.0146L29.2219 29.14L29.027 28.3325L28.8626 27.4556L28.7335 26.4812L28.6811 25.8588L28.6592 24.7967L28.664 24.5738L28.6945 23.938L28.9235 21.6227L28.9953 21.2171L29.5166 18.9041L29.636 18.5168L30.0233 17.3877L30.1476 17.0954L30.7638 15.741L31.1914 14.9347L31.787 13.953L32.3801 13.0785L32.8027 12.5231L33.2899 11.936L33.8259 11.3465L34.285 10.8861L35.4031 9.90201L36.2204 9.23334C36.2399 9.21629 36.2606 9.20167 36.2813 9.18706L37.2484 8.533L38.0169 8.04337L39.4761 7.27482C39.498 7.26143 39.5236 7.25047 39.5467 7.2395L41.6149 6.38083L41.8061 6.30896L43.6452 5.77062L44.4223 5.59645L45.4722 5.38573L46.1689 5.27977L47.2371 5.14701L47.9654 5.08246L49.4112 5.00572L49.9775 4.99963L51.0506 5.02156L51.3295 5.03739L52.8836 5.1665L54.9384 5.45638L55.1759 5.50631L57.2075 6.01178L57.8043 6.1896L58.4669 6.41858L59.2744 6.7243L59.9126 6.99469L60.8504 7.43682L61.4412 7.74009L62.5033 8.3637L62.8991 8.6073L64.3473 9.66451L64.7626 10.025L65.7711 10.9434L65.821 10.9933L66.6773 11.9117L66.972 12.2442L67.9769 13.5791L68.1815 13.8982L68.9793 15.2453L69.2192 15.7069L69.6686 16.7118L70.1388 17.8847L70.3056 18.3755L70.7904 20.1416C70.7991 20.1729 70.8064 20.2046 70.8123 20.2366L71.1899 22.6251L71.2654 23.4521L71.3263 24.519L71.3324 24.7407L71.3093 25.9319L71.2898 26.2473L71.2252 26.7625L70.8927 28.665L70.8123 29.0134L70.0462 31.4031C70.0392 31.4262 70.0311 31.4489 70.0219 31.4713L69.3106 33.1935L69.2838 33.2507L68.3544 35.1057L66.7296 37.9351L65.8673 39.2542L64.8332 40.8022L64.1037 41.8022L62.6579 43.7351L61.6738 44.9726L60.2195 46.7423L59.2001 47.9347L57.6325 49.6984L56.6241 50.8055L53.7082 53.8505L53.031 54.5204L53.4305 54.8614C53.9969 55.3827 54.5291 55.9393 55.0236 56.53C55.1722 56.7103 55.3159 56.8942 55.4548 57.0818C55.7581 57.491 56.0309 57.9234 56.2708 58.3728C56.3999 58.6164 56.5156 58.8686 56.618 59.1255C56.8506 59.715 57.0077 60.3387 57.0662 60.9684L57.093 61.447C57.1076 62.3629 56.9407 63.274 56.5997 64.1241C56.1635 65.2159 55.4447 66.1718 54.5169 66.8938C54.193 67.1472 53.847 67.3701 53.4841 67.5625C52.6429 68.0007 51.7254 68.2732 50.7814 68.3652H50.7753C49.6683 68.4762 48.5503 68.3492 47.4965 67.9925C47.0115 67.824 46.546 67.6039 46.108 67.336C45.5944 67.0217 45.1254 66.6399 44.7134 66.2008C44.1473 65.5977 43.6987 64.8943 43.3907 64.1266C43.0876 63.369 42.9214 62.5636 42.8998 61.7479L42.9084 61.1693C42.9523 60.4994 43.0972 59.8399 43.3383 59.2132C43.4321 58.9672 43.538 58.7273 43.6562 58.4934C43.8876 58.0428 44.1531 57.6104 44.4491 57.1987C44.6428 56.9295 44.8486 56.6677 45.063 56.4143C45.51 55.8906 45.9874 55.3924 46.4904 54.9235L46.6756 54.7566L46.9728 54.5082Z" fill="black"/>
<path id="Vector_3" fill-rule="evenodd" clip-rule="evenodd" d="M42.6318 94.0086L54.5631 83.9395C54.7818 83.7566 55.0577 83.6561 55.3428 83.6557C55.6279 83.6552 55.9041 83.7548 56.1234 83.9371L68.2277 94.0086C68.9633 94.6078 69.8841 94.9355 70.8329 94.9367H40.0424C40.9875 94.9367 41.9022 94.609 42.6318 94.0086ZM50.059 58.0647L50.176 58.0988C50.2137 58.1171 50.2454 58.1427 50.2795 58.1658L50.3769 58.2523C50.6181 58.4739 50.852 58.7066 51.0773 58.9453C51.2356 59.1146 51.3903 59.2888 51.5389 59.469C51.7277 59.6968 51.9043 59.9355 52.0651 60.184C52.1345 60.2936 52.199 60.4044 52.2599 60.5202C52.3123 60.62 52.3598 60.7236 52.4012 60.8283C52.4743 61.011 52.5291 61.2034 52.5462 61.3995L52.5425 61.7674C52.518 62.0993 52.415 62.4207 52.242 62.7051C52.069 62.9895 51.8309 63.2287 51.5474 63.4031C51.1792 63.6258 50.7653 63.762 50.3367 63.8014L49.8824 63.8148L49.4988 63.7807C49.3194 63.7545 49.1428 63.7117 48.9714 63.6528C48.7969 63.5933 48.6294 63.5149 48.472 63.419L48.1724 63.1997C47.8193 62.8983 47.5789 62.4861 47.4903 62.0305C47.4755 61.9538 47.4637 61.8766 47.455 61.799L47.444 61.4483C47.4501 61.3533 47.4647 61.2595 47.4854 61.1657C47.5378 60.9611 47.6133 60.7625 47.7083 60.5737C47.8314 60.3375 47.9714 60.1097 48.1273 59.8929C48.3868 59.5421 48.6681 59.2084 48.969 58.8929C49.1626 58.6883 49.3611 58.4898 49.5682 58.2986L49.7156 58.1658C49.8179 58.0988 49.8191 58.0988 49.936 58.0647H50.059ZM49.3051 9.16515L49.3526 9.1615V50.1649L49.2503 49.9761C47.9005 47.4792 46.6439 44.9331 45.4831 42.343C44.5415 40.2463 43.6886 38.1109 42.9265 35.9425C42.3183 34.2153 41.8039 32.4563 41.3858 30.6735C41.063 29.257 40.8146 27.8198 40.7122 26.3679C40.6725 25.7484 40.6607 25.1274 40.6769 24.5069C40.6867 23.9661 40.7086 23.4265 40.7427 22.8869C40.7963 22.0392 40.8828 21.1927 41.007 20.3523C41.1057 19.691 41.2275 19.032 41.3773 18.3804C41.4966 17.8628 41.6355 17.3488 41.7938 16.8433C42.0228 16.1125 42.2968 15.3988 42.616 14.7021C42.7329 14.4512 42.8583 14.2015 42.9899 13.9567C43.7816 12.4902 44.8558 11.1395 46.2626 10.237C47.1767 9.64195 48.2199 9.27444 49.3051 9.16515ZM54.6216 9.26868L57.3803 10.0555C58.658 10.5269 59.8882 11.1407 61.0184 11.908C62.5591 12.9479 63.8869 14.2724 64.9306 15.8105C65.542 16.7215 66.0487 17.7044 66.4446 18.7312C67.0182 20.25 67.3739 21.8419 67.4993 23.4594C67.5359 23.8833 67.5566 24.3083 67.5651 24.7334C67.5748 25.128 67.5724 25.5239 67.5407 25.9185C67.4628 26.8015 67.2971 27.6748 67.045 28.525C66.8427 29.2207 66.604 29.9053 66.3301 30.5761C65.989 31.4104 65.6102 32.2289 65.1949 33.0279C64.2766 34.8025 63.2181 36.5015 62.0854 38.1446C60.6812 40.164 59.1844 42.1173 57.5996 43.9982C55.8789 46.0503 54.0845 48.0394 52.2197 49.9615C53.485 47.5887 54.666 45.1719 55.7604 42.7157C56.3694 41.3467 56.9431 39.9631 57.4826 38.566C58.0758 37.0314 58.6117 35.476 59.0867 33.9012C59.4399 32.7209 59.7517 31.5285 60.0087 30.3227C60.2292 29.2887 60.4022 28.2436 60.5093 27.1925C60.5995 26.3156 60.6324 25.4337 60.6104 24.5544C60.6021 24.0161 60.5822 23.478 60.5507 22.9405C60.4216 20.7786 60.0928 18.6228 59.4619 16.5486C59.223 15.7621 58.9325 14.9923 58.5922 14.2441C57.7847 12.4854 56.6581 10.8423 55.1332 9.6426L54.6216 9.26868Z" fill="white"/>
</g>
</g>
<defs>
<radialGradient id="paint0_radial_790_797" cx="0" cy="0" r="1" gradientUnits="userSpaceOnUse" gradientTransform="translate(53.0955 55.8063) scale(72.4412 72.4412)">
<stop stop-color="#BA7BF0"/>
<stop offset="0.45" stop-color="#996BEC"/>
<stop offset="1" stop-color="#5046E4"/>
</radialGradient>
</defs>
</svg>
