<svg width="100" height="100" viewBox="0 0 100 100" fill="none" xmlns="http://www.w3.org/2000/svg">
<g id="gruntjs">
<g id="gruntjs_2" clip-path="url(#clip0_790_856)">
<path id="Vector" d="M18.0267 24.2299C18.0267 24.2299 19.7341 30.8149 19.9777 33.0103C20.2218 35.2051 15.5878 40.0829 15.5878 42.5219C15.5878 44.9611 16.5619 49.351 21.9283 51.5463C27.2947 53.7414 28.0256 59.3505 28.0256 62.7659C28.0256 66.1802 26.0747 72.7646 26.0747 72.7646C26.0747 72.7646 24.8558 89.1053 31.4402 92.0319C38.0246 94.9582 36.5619 94.9582 38.0246 94.9582C39.4876 94.9582 50.2192 99.3495 56.5601 97.6418C62.9015 95.9347 64.6075 93.9837 64.6075 93.9837C64.6075 93.9837 70.9492 94.4711 72.9002 88.8608C74.852 83.2518 76.0709 71.5454 75.3388 66.1796C74.607 60.8132 73.632 53.7417 78.0213 51.3025C82.4126 48.8633 87.0458 45.9376 86.314 43.4981C85.5822 41.0588 81.6811 37.6443 81.6811 37.6443C81.6811 37.6443 80.7052 31.5476 81.4364 30.084C82.1676 28.6207 86.5581 24.9614 84.1189 22.2792C81.6814 19.5968 77.2901 19.5968 77.2901 19.5968L71.681 20.0839C71.681 20.0839 62.1694 11.5482 49.731 12.0359C37.2931 12.5235 29.4881 20.0839 29.4881 20.0839C29.4881 20.0839 25.3423 18.6206 21.6836 20.0839C18.0249 21.5477 17.2955 20.0836 18.0267 24.2299Z" fill="#FBA919"/>
<path id="Vector_2" d="M40.3121 60.5426C40.3121 60.5426 35.4822 67.9274 31.9395 73.1683C31.3913 73.9791 35.4822 74.0352 35.4822 74.0352L40.3121 60.5424V60.5426ZM42.6115 45.2316C42.6115 45.2316 41.1555 48.8639 40.358 50.7893C39.4925 52.8826 36.1916 53.924 36.1916 53.924C36.1916 53.924 37.9025 52.1293 37.9025 47.5831C37.9025 45.676 40.365 44.9175 40.365 44.9175L42.6115 45.2316Z" fill="#E78724"/>
<path id="Vector_3" d="M41.1409 47.2851C41.1409 47.2851 38.158 50.836 32.6198 48.8473C27.0802 46.8594 26.5123 39.7571 26.5123 37.7686C26.5123 35.7802 37.0225 39.7571 38.4434 40.6095C39.8639 41.4619 42.5612 44.87 41.1409 47.2851ZM20.2197 9.34404C20.2197 9.34404 25.3327 8.34894 28.7409 11.048C32.1508 13.7464 33.1438 15.8773 33.1438 15.8773L27.3985 20.4314C27.3985 20.4314 24.6224 19.1445 23.7703 15.4512C22.9182 11.7583 23.4864 10.0543 20.2197 9.34404Z" fill="#E78724"/>
<path id="Vector_4" d="M39.6495 37.0291C37.4483 33.9043 33.8204 32.5413 30.9237 32.3154C25.9849 31.9292 23.6401 33.6753 23.6401 33.6753C23.6401 33.6753 31.7288 34.0176 34.0602 37.0797C38.4004 42.7788 44.7322 43.2418 45.7447 41.9901C44.5738 42.0485 43.2861 41.4684 41.9073 40.1649C41.0462 39.3494 40.3481 38.021 39.6495 37.0291ZM25.9947 48.0781C25.9947 48.0781 17.0202 44.9928 18.7259 41.8689C20.4299 38.7438 19.0735 37.041 19.0735 37.041C19.0735 37.041 14.0623 40.7819 15.339 44.7588C16.124 47.1995 17.4405 48.9668 24.6701 52.3549C28.1378 58.796 25.3862 70.3897 25.551 70.444C25.8256 70.5353 30.4198 68.1733 30.1062 57.3266C30.0103 53.9961 29.7441 49.449 25.9947 48.0784V48.0781ZM37.7552 14.9018C33.9922 16.8135 28.8368 19.4759 28.8368 19.4759L30.8659 20.4911C30.6721 20.8047 30.5788 20.9918 30.5788 20.9918L32.6614 21.9387C32.6614 21.9387 37.7453 25.6215 40.8599 27.9895C39.8215 24.7909 36.7729 19.7668 36.7729 19.7668C36.7729 19.7668 35.9091 17.4587 37.7552 14.9018ZM50.2567 92.8311C38.6898 92.8311 34.7722 86.9593 34.7722 86.9593L36.5799 91.3612C37.2629 93.2653 44.5517 99.1912 50.2393 99.1912" fill="#E78724"/>
<path id="Vector_5" d="M36.0396 82.9916C36.0396 82.9916 37.1039 89.4952 41.3651 89.4952C44.986 89.4952 46.0528 84.0016 46.0528 82.8661L36.0396 82.9916ZM28.9487 73.183C29.3274 72.1409 30.6529 67.9274 31.0787 64.0929C31.589 59.5001 31.403 52.7832 31.403 52.7832C31.403 52.7832 30.2661 57.1862 29.2719 57.8976C28.2782 58.6073 26.4313 63.4361 26.4313 63.4361C26.4313 63.4361 25.442 70.625 24.9712 73.0412C26.2744 73.3019 27.3712 72.5344 28.9487 73.183ZM18.6588 44.6878C18.6588 44.6878 21.0727 43.8349 21.7836 38.5804C22.4936 33.325 20.9309 28.7799 20.9309 28.7799C20.9309 28.7799 21.0727 36.0234 20.2209 37.4443C19.3682 38.864 18.6588 39.2904 17.664 41.1373C16.6692 42.9845 18.0898 44.1194 18.6588 44.6878Z" fill="#E78724"/>
<path id="Vector_6" d="M21.5413 10.5872L21.0484 10.275C19.5953 10.3241 21.5413 10.5872 21.5413 10.5872Z" fill="#FDC168"/>
<path id="Vector_7" d="M39.7199 13.3457C39.7199 13.3457 37.4483 12.9673 36.3114 11.2631C35.1745 9.55859 31.9558 6.14927 26.8242 6.11149C21.693 6.07313 16.6163 7.47539 16.6163 7.47539L21.0478 10.2756C21.5166 10.2602 22.3361 10.2666 23.6913 10.3119C29.253 10.4967 30.1092 15.9977 30.1092 15.9977L49.7095 13.2986" fill="#FBA919"/>
<path id="Vector_8" d="M41.6144 43.7297C41.6144 43.7297 38.9627 46.3811 34.8905 45.5284C30.8185 44.6766 28.3561 42.8773 28.1669 39.7522C27.9777 36.6274 29.0199 35.3966 29.0199 35.3966C29.0199 35.3966 33.5644 36.8178 35.7435 38.7118C37.9214 40.6052 39.5312 43.6352 41.6144 43.7297Z" fill="white"/>
<path id="Vector_9" d="M38.4054 42.7825C38.4054 42.7825 36.1057 43.8328 33.5354 42.9772C30.1708 41.8548 29.9467 38.3557 29.9467 38.3557C29.9467 38.3557 27.8824 44.4132 33.6696 45.5792C38.3112 46.5141 41.0565 43.8244 41.0565 43.8244L38.4054 42.7822V42.7825Z" fill="#C9C9C9"/>
<path id="Vector_10" d="M40.0395 12.0606C39.7922 6.86594 44.0507 2.7286 45.5265 2.55219C45.6079 3.4325 45.444 6.86623 46.9192 7.92207C47.3487 5.11754 48.801 2.02529 54.5359 -0.000366211C53.3077 3.25725 54.3717 5.98593 54.8788 7.25073C58.7947 3.69638 61.4333 4.28345 61.4333 4.28345C61.4333 4.28345 58.7122 8.97879 59.7767 12.0597C51.9153 11.4433 40.0779 12.8947 40.0395 12.0606ZM23.3733 19.9737C21.4973 18.4174 22.8955 16.9733 22.7473 15.2051C22.6668 14.2644 22.5924 13.3768 22.2823 12.8871C20.556 10.1616 16.4841 9.33451 16.4434 9.32579L14.5322 8.95147L15.7973 7.4716C15.9612 7.27979 21.1564 2.3226 29.1966 4.91846C34.8208 6.73225 38.9843 12.883 39.1392 13.1315L36.3192 14.4576C36.2861 14.4053 32.9945 8.62364 28.1695 7.06792C24.2693 5.80952 20.6743 7.00689 19.1349 7.79158C20.7717 8.44491 22.9115 9.63502 24.201 11.6708C24.8093 12.6325 24.9122 13.843 25.0113 15.0154C25.1421 16.5673 25.2641 18.0323 26.4063 18.9812L23.3733 19.9737ZM18.3635 42.6904C18.3635 42.6904 20.7266 39.7598 21.4267 34.0577C21.7017 31.8115 21.2131 27.3815 20.4316 25.6772C20.5737 29.8672 19.5086 34.0577 19.5086 34.0577C19.5086 34.0577 18.7905 41.838 18.3635 42.6904Z" fill="#463014"/>
<path id="Vector_11" d="M30.8249 17.014C30.8235 17.0079 30.0664 13.6994 27.9675 12.0292C25.0066 9.67393 21.3915 10.9268 21.3567 10.9379L20.8318 9.31617C21.0067 9.2595 25.1389 7.9575 28.9469 10.6344C32.7779 13.3265 33.2377 15.7669 33.2775 16.0363L30.8249 17.014ZM25.7858 40.5886C25.7858 40.5886 24.546 38.8137 24.7689 36.8619C24.8799 35.8979 25.3269 34.9083 26.1241 34.5572C27.6063 33.9062 28.2631 35.5861 28.2631 35.5861C28.2631 35.5861 26.1773 36.1008 25.7858 40.5886Z" fill="#463014"/>
<path id="Vector_12" d="M39.399 43.294C39.4507 43.3905 39.4774 43.4449 39.4774 43.4449C39.4774 43.4449 35.6101 46.3471 31.6471 43.4019C29.5256 41.8238 29.7261 37.921 30.3759 36.2659C32.0662 36.6489 33.4996 37.3391 34.6975 38.1453C33.1834 36.7939 31.8581 35.7991 31.8616 35.7762L30.1405 35.2891L26.7954 34.142C26.7527 34.3971 25.5327 40.1161 29.0545 44.0128C30.6151 45.7408 37.933 49.6102 41.4078 42.9938L39.399 43.2937V43.294Z" fill="#463014"/>
<path id="Vector_13" d="M39.0368 43.7192C41.2139 47.0329 46.7073 45.1392 46.6128 41.636C46.6128 41.636 42.9423 43.6617 39.6992 39.9318C37.8057 37.7544 31.7389 31.7504 23.5114 33.7455C29.1931 34.9952 36.7156 40.1858 39.0368 43.7192Z" fill="#463014"/>
<path id="Vector_14" d="M22.743 53.0715C23.2667 53.374 25.1139 55.2872 25.1151 58.1481C25.1151 59.5829 24.9724 66.7904 24.2621 71.1937C25.3302 71.8877 26.0742 72.0354 27.1378 72.7427C27.6703 67.6431 28.0522 60.252 27.8743 57.2681C27.6709 53.8669 25.8495 51.5844 24.1607 50.6111C23.6317 50.3068 23.0793 50.0077 22.5227 49.7069C19.6301 48.1439 16.6387 46.5269 16.6387 43.7663C16.6387 41.6063 17.4786 40.9309 18.3674 40.2148L18.4633 40.1372C19.0532 39.6606 19.7205 39.12 20.1161 38.2328C21.1951 35.8066 21.3716 29.6259 20.1161 28.0571C19.4901 27.2753 17.8131 24.6463 18.2953 22.8796C18.479 22.2054 18.9036 21.7055 19.595 21.3515C20.3265 20.9766 21.3149 20.7868 22.5314 20.7868C24.921 20.7868 27.5715 21.5143 28.9389 21.9473C33.8251 23.496 39.7213 27.9612 41.4113 29.2928C41.4599 29.33 41.4883 29.3518 41.4936 29.3553L42.575 30.1075L41.8987 28.9758C41.8568 28.9051 37.5733 21.8616 29.9139 19.2791C28.4239 18.7766 25.4964 17.9335 22.6192 17.9335C20.9066 17.9335 19.4529 18.2328 18.3023 18.8219C16.8994 19.5395 15.9497 20.6842 15.555 22.1315C14.5878 25.6792 17.7379 29.6291 17.8451 29.7555C18.2125 30.4112 18.3682 35.1736 17.5196 37.0796C17.4034 37.3429 17.0831 37.6012 16.6783 37.9282C16.5513 38.0308 16.4094 38.1374 16.2592 38.2514C15.0621 39.1549 13.2521 40.52 13.2521 43.6666C13.2521 47.9719 17.6155 50.3062 21.1222 52.183C21.6976 52.4926 22.2466 52.7855 22.743 53.0715Z" fill="#463014"/>
<path id="Vector_15" d="M23.3733 19.9737C21.4973 18.4174 22.8955 16.9733 22.7473 15.2051C22.6668 14.2644 22.5924 13.3768 22.2823 12.8871C20.556 10.1616 16.4841 9.33451 16.4434 9.32579L14.5322 8.95147L15.7973 7.4716C15.9612 7.27979 21.1564 2.3226 29.1966 4.91846C34.8208 6.73225 38.9843 12.883 39.1392 13.1315L36.3192 14.4576C36.2861 14.4053 32.9945 8.62364 28.1695 7.06792C24.2693 5.80952 20.6743 7.00689 19.1349 7.79158C20.7717 8.44491 22.9115 9.63502 24.201 11.6708C24.8093 12.6325 24.9122 13.843 25.0113 15.0154C25.1421 16.5673 25.2641 18.0323 26.4063 18.9812L23.3733 19.9737Z" fill="#463014"/>
<path id="Vector_16" d="M23.3123 20.2926L23.1911 20.192C21.8002 19.0376 22.0469 17.9007 22.2858 16.8004C22.3945 16.2927 22.509 15.7678 22.4625 15.2293C22.3867 14.324 22.3137 13.4698 22.0411 13.0388C20.3976 10.4436 16.4254 9.61237 16.3861 9.60424L13.9995 9.13604L15.5817 7.28621C15.6107 7.25134 18.9465 3.88416 24.596 3.88416C26.1363 3.88416 27.7141 4.14049 29.2838 4.64763C35.1538 6.54018 39.3411 12.9177 39.3807 12.9807L39.5501 13.2516L36.2143 14.8204L36.0806 14.6082C35.7214 13.9962 32.5585 8.78002 28.0841 7.33678C26.9852 6.98222 25.8274 6.8029 24.6439 6.8029C22.5003 6.8029 20.7621 7.38706 19.837 7.7794C21.3828 8.47545 23.2577 9.64696 24.4434 11.5177C25.0886 12.5366 25.1932 13.782 25.2955 14.9854C25.4211 16.4816 25.5396 17.8888 26.5894 18.7601L26.9855 19.0885L23.3123 20.2926Z" fill="#463014"/>
<path id="Vector_17" d="M30.8249 17.014C30.8235 17.0079 30.0664 13.6994 27.9675 12.0292C25.0066 9.67393 21.3915 10.9268 21.3567 10.9379L20.8318 9.31617C21.0067 9.2595 25.1389 7.9575 28.9469 10.6344C32.7779 13.3265 33.2377 15.7669 33.2775 16.0363L30.8249 17.014Z" fill="#463014"/>
<path id="Vector_18" d="M30.6213 17.4008L30.5475 17.0753C30.5399 17.0433 29.7974 13.8482 27.79 12.2521C26.6458 11.3413 25.2662 10.8786 23.6916 10.8786C22.4626 10.8786 21.5491 11.1721 21.4495 11.2067L21.1783 11.2968L20.4741 9.13368L20.7441 9.04649C20.865 9.00784 21.9618 8.66577 23.5132 8.66577C25.5598 8.66577 27.4947 9.26649 29.1112 10.4017C33.0384 13.1612 33.518 15.7131 33.5586 15.9948L33.5932 16.2174L30.6213 17.4008ZM23.6919 10.3116C25.3741 10.3116 26.915 10.8289 28.1443 11.8066C29.9267 13.2263 30.7652 15.7323 31.0186 16.6309L32.9507 15.8608C32.7757 15.1787 32.0055 13.1315 28.7843 10.867C27.2431 9.78381 25.4703 9.23511 23.5135 9.23511C22.4396 9.23511 21.6055 9.40599 21.1934 9.51004L21.5419 10.5871C21.9458 10.4784 22.7236 10.3116 23.6919 10.3116ZM41.187 87.9352C40.3476 87.9352 39.4912 87.6306 38.8977 87.1168C38.4432 86.725 36.9063 85.3135 36.2286 83.5842C35.9758 82.9376 36.0324 82.4203 36.3995 82.048C36.6523 81.7928 37.1775 81.488 38.2432 81.488L39.0015 81.4868C39.905 81.4856 41.4261 81.4856 42.7264 81.4856H43.9732C44.784 81.4856 45.3653 81.6612 45.6992 82.003C46.1285 82.4438 45.991 83.0047 45.8707 83.3C45.662 83.8173 44.7974 85.5003 43.3338 87.0651C42.8098 87.626 42.0472 87.9352 41.187 87.9352ZM42.0667 43.9139L39.0366 43.7192C39.0366 43.7192 39.8111 45.0846 40.3131 46.8504C40.8798 48.8479 39.7949 51.7672 39.7949 51.7672C39.7949 51.7672 43.8351 47.1928 42.0667 43.9139ZM38.2842 95.9361C27.4994 95.1072 23.705 84.9165 23.705 82.794L26.5214 82.7952L25.1134 82.794H26.5214C26.5357 83.7115 29.4015 92.4288 38.4998 93.1287L38.2842 95.9361Z" fill="#463014"/>
<path id="Vector_19" d="M35.2535 77.6779C35.0849 76.704 35.0675 75.7801 35.273 74.8725C34.4534 74.2563 32.9828 74.0276 31.8793 73.6698C30.977 73.0988 26.3592 74.2552 23.0095 70.2009C18.812 65.1243 19.6952 62.0934 19.6952 62.0934C18.619 63.289 17.5759 62.8333 15.9357 68.4087C14.2928 73.9852 16.7067 77.8726 21.2056 81.7754C23.3309 83.6188 26.3354 84.3785 28.9199 84.6691C28.0541 83.8002 30.3986 83.713 32.0145 83.1085C31.8857 81.8036 32.1017 80.537 33.0744 79.5172C33.6609 78.9023 34.4156 78.5349 35.1989 78.242C35.2425 78.1408 35.2794 78.0472 35.3209 77.9502C35.2934 77.8607 35.2708 77.7698 35.2535 77.6779Z" fill="white"/>
<path id="Vector_20" d="M31.993 83.0745C31.8994 82.8005 31.8288 82.5215 31.7596 82.2405C31.685 81.9338 31.313 81.0643 31.7713 82.0571C31.6536 81.8028 31.5765 81.5409 31.5199 81.277C24.2339 81.2677 17.8954 76.2652 19.1201 65.7484C18.1662 64.4821 16.8305 68.3018 16.8305 68.3018C16.8305 68.3018 13.1829 78.8927 22.6032 82.9975C25.742 84.3664 28.516 85.3478 29.1705 84.9517C30.5338 85.2287 31.7643 84.2783 32.2258 83.6532C32.1395 83.4614 32.0604 83.269 31.993 83.0745Z" fill="#C9C9C9"/>
<path id="Vector_21" d="M35.1222 76.1529C35.1335 75.2654 35.3149 74.4054 35.7441 73.549C35.7741 73.49 35.8086 73.4333 35.8409 73.3757C33.0372 73.3516 29.8084 73.0834 27.0588 71.9828C24.0366 70.7738 20.2561 66.6382 19.6066 61.7789C19.6066 61.7789 13.915 66.1709 15.5872 75.5717C17.1572 84.3989 24.544 87.2766 32.9684 87.7634C32.973 87.7065 32.0209 85.7401 32.3217 84.536C27.538 84.8836 22.1888 83.0355 19.6066 78.7866C17.2423 74.8975 17.9056 68.2578 18.8771 67.2848C21.2472 74.7632 29.7753 76.2834 35.1222 76.1529Z" fill="#463014"/>
<path id="Vector_22" d="M36.0048 70.7994C34.4889 75.248 31.3926 78.8486 31.3926 78.8486C31.3926 78.8486 35.652 78.6547 35.8871 77.9011C36.0612 77.3455 39.7332 68.7494 41.1428 58.6792C39.8169 60.8574 36.1347 70.4184 36.0048 70.7994Z" fill="#463014"/>
<path id="Vector_23" d="M60.1374 60.5426C60.1374 60.5426 64.9661 67.9274 68.51 73.1683C69.0581 73.9791 64.9661 74.0352 64.9661 74.0352L60.1374 60.5424V60.5426ZM57.8374 45.2316C57.8374 45.2316 59.2934 48.8639 60.0897 50.7893C60.9558 52.8826 64.2561 53.924 64.2561 53.924C64.2561 53.924 62.5455 52.1293 62.5455 47.5831C62.5455 45.676 60.0834 44.9175 60.0834 44.9175L57.8374 45.2316Z" fill="#E78724"/>
<path id="Vector_24" d="M59.308 47.2851C59.308 47.2851 62.2907 50.836 67.8306 48.8473C73.3705 46.8588 73.9378 39.7571 73.9378 37.7686C73.9378 35.7802 63.4276 39.7571 62.0067 40.6095C60.5862 41.4619 57.888 44.87 59.308 47.2851ZM80.2295 9.34404C80.2295 9.34404 75.1165 8.34894 71.7069 11.048C68.2988 13.7464 67.304 15.8773 67.304 15.8773L73.0496 20.4314C73.0496 20.4314 75.8268 19.1439 76.6789 15.4509C77.5308 11.7583 76.9629 10.054 80.2295 9.34404Z" fill="#E78724"/>
<path id="Vector_25" d="M60.7998 37.029C63.001 33.9042 66.6277 32.5412 69.5255 32.3154C74.4647 31.9292 76.8083 33.6752 76.8083 33.6752C76.8083 33.6752 68.7196 34.0176 66.3876 37.0796C62.0471 42.7788 55.7176 43.2417 54.7051 41.99C55.8757 42.0484 57.1643 41.4683 58.5419 40.1649C59.4027 39.3494 60.1014 38.021 60.7998 37.029ZM74.4545 48.078C74.4545 48.078 83.4281 44.9928 81.7236 41.8688C80.0197 38.7437 81.3749 37.041 81.3749 37.041C81.3749 37.041 86.3873 40.7819 85.1094 44.7585C84.3244 47.1992 83.0079 48.9665 75.7783 52.3546C72.3105 58.7957 75.0622 70.3893 74.8983 70.4437C74.6233 70.5349 70.0297 68.173 70.3433 57.3263C70.4386 53.9957 70.7051 49.4486 74.4545 48.078ZM62.6944 14.9017C66.4562 16.8135 71.6125 19.4759 71.6125 19.4759L69.5839 20.491C69.7775 20.8046 69.871 20.9918 69.871 20.9918L67.7884 21.9386C67.7884 21.9386 62.7042 25.6214 59.5893 27.9894C60.6268 24.7911 63.6755 19.7671 63.6755 19.7671C63.6755 19.7671 64.541 17.4587 62.6944 14.9017ZM50.1931 92.8311C61.758 92.8311 65.6759 86.9593 65.6759 86.9593L63.8693 91.3611C63.1864 93.2653 55.8966 99.1911 50.2108 99.1911" fill="#E78724"/>
<path id="Vector_26" d="M64.4096 82.9916C64.4096 82.9916 63.3442 89.4952 59.0842 89.4952C55.4642 89.4952 54.3967 84.0016 54.3967 82.8661L64.4096 82.9916ZM71.5006 73.183C71.1219 72.1409 69.7964 67.9274 69.3694 64.0929C68.8591 59.5001 69.0463 52.7832 69.0463 52.7832C69.0463 52.7832 70.1826 57.1862 71.176 57.8976C72.1711 58.6073 74.0168 63.4361 74.0168 63.4361C74.0168 63.4361 75.0058 70.625 75.4766 73.0412C74.1741 73.3019 73.0784 72.5344 71.5006 73.183ZM81.7913 44.6878C81.7913 44.6878 79.3762 43.8349 78.6665 38.5804C77.9565 33.325 79.5189 28.7799 79.5189 28.7799C79.5189 28.7799 79.3762 36.0234 80.2289 37.4443C81.0816 38.8646 81.7913 39.2904 82.7859 41.1373C83.7792 42.9839 82.3589 44.1194 81.7913 44.6878Z" fill="#E78724"/>
<path id="Vector_27" d="M78.9077 10.5872L79.4015 10.275C80.8549 10.3241 78.9077 10.5872 78.9077 10.5872Z" fill="#FDC168"/>
<path id="Vector_28" d="M60.7282 13.3458C60.7282 13.3458 63.0012 12.9674 64.1369 11.2632C65.2733 9.55864 68.4934 6.14932 73.6253 6.11125C78.7565 6.07288 83.8332 7.47515 83.8332 7.47515L79.4014 10.2753C78.9326 10.2599 78.1131 10.2663 76.7567 10.3116C71.1959 10.4965 70.3397 15.9974 70.3397 15.9974L50.74 13.2984" fill="#FBA919"/>
<path id="Vector_29" d="M58.8348 43.7297C58.8348 43.7297 61.4865 46.3811 65.5579 45.5284C69.6301 44.6766 72.0923 42.8773 72.2818 39.7522C72.4707 36.6274 71.4297 35.3966 71.4297 35.3966C71.4297 35.3966 66.8837 36.8178 64.706 38.7118C62.5281 40.6058 60.9186 43.6352 58.8348 43.7297Z" fill="white"/>
<path id="Vector_30" d="M62.0431 42.7825C62.0431 42.7825 64.3436 43.8328 66.9131 42.9772C70.2785 41.8548 70.5026 38.3557 70.5026 38.3557C70.5026 38.3557 72.5657 44.4132 66.7785 45.5792C62.1378 46.5141 59.392 43.8244 59.392 43.8244L62.0431 42.7822V42.7825Z" fill="#C9C9C9"/>
<path id="Vector_31" d="M77.0756 19.9737C78.9516 18.4174 77.5545 16.9733 77.7027 15.2051C77.7818 14.2644 77.8562 13.3768 78.1666 12.8871C79.8929 10.1616 83.9648 9.33451 84.0067 9.32579L85.9184 8.95147L84.6528 7.4716C84.4888 7.27979 79.2936 2.3226 71.252 4.91846C65.629 6.73225 61.4658 12.883 61.3109 13.1315L64.13 14.4576C64.164 14.4053 67.4559 8.62364 72.2808 7.06792C76.181 5.80952 79.7755 7.00689 81.3143 7.79158C79.6784 8.44491 77.5377 9.63502 76.2482 11.6708C75.6399 12.6325 75.5379 13.843 75.4391 15.0154C75.3083 16.5673 75.1851 18.0323 74.0426 18.9812L77.0756 19.9737ZM82.0845 42.6904C82.0845 42.6904 79.7226 39.7598 79.0225 34.0577C78.7475 31.8114 79.2352 27.3814 80.0164 25.6772C79.8743 29.8672 80.9406 34.0577 80.9406 34.0577C80.9406 34.0577 81.6587 41.838 82.0845 42.6904Z" fill="#463014"/>
<path id="Vector_32" d="M69.6246 17.014C69.6258 17.0079 70.3828 13.6994 72.482 12.0292C75.4426 9.67393 79.058 10.9268 79.0917 10.9379L79.618 9.31617C79.4425 9.2595 75.311 7.9575 71.5017 10.6344C67.6707 13.3265 67.2121 15.7669 67.1711 16.0363L69.6246 17.014ZM74.6635 40.5886C74.6635 40.5886 75.9033 38.8137 75.6792 36.8619C75.5693 35.8979 75.1226 34.9083 74.3249 34.5572C72.843 33.9062 72.1859 35.5861 72.1859 35.5861C72.1859 35.5861 74.272 36.1008 74.6635 40.5886Z" fill="#463014"/>
<path id="Vector_33" d="M61.0506 43.2941C60.9989 43.3906 60.9721 43.4449 60.9721 43.4449C60.9721 43.4449 64.8377 46.3471 68.801 43.4019C70.9237 41.8238 70.7232 37.921 70.0722 36.2659C68.3828 36.6489 66.9497 37.3392 65.7509 38.1454C67.2653 36.7939 68.5909 35.7991 68.5862 35.7762L70.3085 35.2891L73.653 34.1426C73.696 34.3977 74.9157 40.1167 71.3928 44.0137C69.8321 45.7414 62.5142 49.6108 59.0406 42.9944L61.0506 43.2938V43.2941Z" fill="#463014"/>
<path id="Vector_34" d="M61.4115 43.7192C59.2345 47.0329 53.7425 45.1392 53.8373 41.636C53.8373 41.636 57.5067 43.6617 60.7498 39.9318C62.6429 37.7544 68.7112 31.7504 76.9382 33.7455C71.2568 34.9952 63.7342 40.1858 61.4115 43.7192Z" fill="#463014"/>
<path id="Vector_35" d="M77.7074 53.0715C77.1831 53.374 75.335 55.2872 75.335 58.1481C75.3339 59.5829 75.4768 66.7904 76.188 71.1937C75.1197 71.8877 74.3757 72.0354 73.312 72.7427C72.7796 67.6431 72.3965 60.252 72.5758 57.2681C72.779 53.8669 74.5994 51.5844 76.288 50.6111C76.8169 50.3068 77.3697 50.0077 77.9274 49.7069C80.82 48.1439 83.8114 46.5269 83.8114 43.7663C83.8114 41.6063 82.9709 40.9309 82.0822 40.2148L81.9874 40.1372C81.3975 39.6606 80.7287 39.12 80.3343 38.2328C79.255 35.8066 79.078 29.6259 80.3332 28.0571C80.9592 27.2753 82.6373 24.6463 82.1551 22.8796C81.9703 22.2054 81.5454 21.7055 80.8543 21.3515C80.1225 20.9766 79.1358 20.7868 77.9178 20.7868C75.5297 20.7868 72.8778 21.5143 71.5116 21.9473C66.6253 23.496 60.7294 27.9612 59.0379 29.2928C58.9897 29.33 58.9618 29.3518 58.9566 29.3553L57.8743 30.1075L58.5506 28.9758C58.5936 28.9051 62.8762 21.8616 70.5353 19.2791C72.0257 18.7766 74.9528 17.9335 77.83 17.9335C79.543 17.9335 80.9949 18.2328 82.147 18.8219C83.5501 19.5395 84.4993 20.6842 84.8945 22.1315C85.8617 25.6792 82.7114 29.6291 82.6038 29.7555C82.2368 30.4112 82.0813 35.1736 82.9285 37.0796C83.0453 37.3429 83.3653 37.6012 83.7713 37.9282C83.898 38.0308 84.0387 38.1374 84.1901 38.2514C85.3874 39.1549 87.1966 40.52 87.1966 43.6666C87.1966 47.9719 82.8331 50.3062 79.3276 52.183C78.7519 52.4926 78.2023 52.7855 77.7074 53.0715Z" fill="#463014"/>
<path id="Vector_36" d="M72.502 19.4672C71.808 18.2916 70.0329 16.0218 65.9423 14.0273C61.3769 11.8023 56.0934 10.6729 50.2358 10.6703V10.6688H50.2131V10.6694C44.3547 10.6723 39.07 11.802 34.506 14.0267C30.4152 16.0216 28.6412 18.291 27.9466 19.4666L27.6484 19.861L31.1516 20.6407L31.2627 20.5004L31.3214 20.3719C31.3754 20.1403 31.8451 18.8903 35.7505 16.9858C39.9259 14.9494 44.7959 13.9168 50.2236 13.9151C55.6525 13.9168 60.5204 14.9494 64.6953 16.9858C68.6013 18.8903 69.0724 20.1403 69.1259 20.3716L69.1843 20.5004L69.2941 20.6407L72.7982 19.861L72.502 19.4672Z" fill="#463014"/>
<path id="Vector_37" d="M77.0756 19.9737C78.9516 18.4174 77.5545 16.9733 77.7027 15.2051C77.7818 14.2644 77.8562 13.3768 78.1666 12.8871C79.8929 10.1616 83.9648 9.33451 84.0067 9.32579L85.9184 8.95147L84.6528 7.4716C84.4888 7.27979 79.2936 2.3226 71.252 4.91846C65.629 6.73225 61.4658 12.883 61.3109 13.1315L64.13 14.4576C64.164 14.4053 67.4559 8.62364 72.2808 7.06792C76.181 5.80952 79.7755 7.00689 81.3143 7.79158C79.6784 8.44491 77.5377 9.63502 76.2482 11.6708C75.6399 12.6325 75.5379 13.843 75.4391 15.0154C75.3083 16.5673 75.1851 18.0323 74.0426 18.9812L77.0756 19.9737Z" fill="#463014"/>
<path id="Vector_38" d="M73.4655 19.09L73.8602 18.7613C74.9108 17.89 75.0285 16.4828 75.1555 14.9866C75.2572 13.7829 75.3621 12.5372 76.007 11.5189C77.1922 9.64871 79.0682 8.47691 80.6134 7.78C79.6884 7.38823 77.9499 6.80408 75.8059 6.80408C74.6219 6.80408 73.4664 6.9831 72.367 7.33795C67.8913 8.7812 64.7287 13.9973 64.3707 14.6094L64.2364 14.8215L60.9006 13.2528L61.0704 12.9819C61.1096 12.9188 65.296 6.54164 71.1661 4.6488C72.7358 4.14166 74.3136 3.88562 75.855 3.88562C81.5045 3.88562 84.8406 7.25367 84.8691 7.28768L86.4515 9.1375L84.064 9.60541C84.0245 9.61355 80.0525 10.4444 78.4079 13.0403C78.1353 13.4716 78.0638 14.3249 77.9865 15.2307C77.9414 15.7696 78.0545 16.2944 78.1646 16.8019C78.4032 17.9022 78.65 19.0403 77.2582 20.1935L77.1373 20.294L73.4655 19.09Z" fill="#463014"/>
<path id="Vector_39" d="M69.6246 17.014C69.6258 17.0079 70.3828 13.6994 72.482 12.0292C75.4426 9.67393 79.058 10.9268 79.0917 10.9379L79.618 9.31617C79.4425 9.2595 75.311 7.9575 71.5017 10.6344C67.6707 13.3265 67.2121 15.7669 67.1711 16.0363L69.6246 17.014Z" fill="#463014"/>
<path id="Vector_40" d="M66.8579 16.2173L66.891 15.9947C66.9326 15.7131 67.4124 13.1617 71.3387 10.4016C72.954 9.26645 74.8896 8.66602 76.9362 8.66602C78.4884 8.66602 79.5852 9.00721 79.7067 9.04644L79.9761 9.13363L79.2725 11.2968L79.0008 11.2067C78.899 11.1724 77.9862 10.8785 76.7577 10.8785C75.1834 10.8785 73.8047 11.3406 72.6605 12.252C70.6528 13.8487 69.91 17.0439 69.903 17.0752L69.8292 17.4002L66.8579 16.2173ZM78.9078 10.587L79.2574 9.50999C78.845 9.40537 78.01 9.23506 76.9362 9.23506C74.9797 9.23506 73.2063 9.78434 71.666 10.8669C68.4435 13.1321 67.6734 15.1786 67.4987 15.8607L69.4322 16.6309C69.6851 15.7317 70.5226 13.2256 72.3059 11.8065C73.5364 10.8286 75.0756 10.3115 76.7574 10.3115C77.7246 10.3115 78.5038 10.4784 78.9081 10.587H78.9078ZM57.1167 87.065C55.6534 85.5006 54.7876 83.817 54.5784 83.3C54.4586 83.0053 54.3226 82.4438 54.7516 82.0026C55.0861 81.6611 55.6659 81.4856 56.4765 81.4856H57.7241C59.0244 81.4856 60.5446 81.4856 61.4488 81.4867L62.2073 81.4879C63.2721 81.4879 63.797 81.7925 64.0496 82.0479C64.4169 82.4197 64.4742 82.9367 64.221 83.5842C63.5439 85.3137 62.0065 86.7253 61.5522 87.1167C60.957 87.6306 60.1026 87.9351 59.2633 87.9351C58.403 87.9351 57.6407 87.6259 57.1167 87.065ZM58.3832 43.9139L61.4116 43.7192C61.4116 43.7192 60.6382 45.0845 60.1363 46.8504C59.5696 48.8478 60.6545 51.7672 60.6545 51.7672C60.6545 51.7672 56.6139 47.1927 58.3832 43.9139Z" fill="#463014"/>
<path id="Vector_41" d="M50.225 33.096C48.2938 33.096 45.7758 33.0431 43.8865 31.6853C43.8865 31.6853 46.3603 36.0217 50.2218 36.0217L50.225 35.473L50.2282 36.0217C54.09 36.0217 56.5632 31.6856 56.5632 31.6856C54.6742 33.0428 52.1545 33.096 50.225 33.096Z" fill="#E78724"/>
<path id="Vector_42" d="M55.5424 33.0751C53.6054 34.2475 51.8753 34.6537 50.2251 34.6898C48.5744 34.6537 46.8451 34.2475 44.9078 33.0751C44.9078 33.0751 47.7289 36.5175 50.2109 36.544V36.546C50.2152 36.546 50.2196 36.5448 50.2248 36.5448C50.2292 36.5448 50.2335 36.546 50.2388 36.546V36.544C52.7201 36.5175 55.5424 33.0751 55.5424 33.0751ZM62.1654 95.9361L61.9495 93.1281C71.0455 92.4285 73.9116 83.7112 73.9265 82.7935H76.7432C76.7444 84.9159 72.9488 95.1072 62.1654 95.9361Z" fill="#463014"/>
<path id="Vector_43" d="M65.1955 77.6779C65.3649 76.704 65.3815 75.7801 65.176 74.8725C65.9967 74.2563 67.4661 74.0276 68.5696 73.6698C69.472 73.0988 74.0909 74.2552 77.4409 70.2009C81.6381 65.1243 80.7538 62.0934 80.7538 62.0934C81.8308 63.289 82.873 62.8333 84.5145 68.4087C86.1574 73.9852 83.7423 77.8726 79.2434 81.7754C77.1183 83.6188 74.1136 84.3785 71.5291 84.6691C72.3948 83.8002 70.0503 83.713 68.4353 83.1085C68.5644 81.8036 68.3476 80.537 67.3749 79.5172C66.7895 78.9023 66.0336 78.5349 65.2513 78.242C65.2071 78.1408 65.1693 78.0472 65.1289 77.9502C65.1548 77.8615 65.1789 77.772 65.1955 77.6779Z" fill="white"/>
<path id="Vector_44" d="M68.455 83.0745C68.5498 82.8005 68.6189 82.5215 68.6884 82.2405C68.7643 81.9338 69.1363 81.0643 68.6771 82.0571C68.7951 81.8028 68.8718 81.5409 68.9288 81.277C76.2147 81.2677 82.5533 76.2652 81.3274 65.7484C82.2812 64.4821 83.6178 68.3018 83.6178 68.3018C83.6178 68.3018 87.2654 78.8927 77.8451 82.9975C74.7064 84.3664 71.9329 85.3478 71.2782 84.9517C69.9137 85.2287 68.6829 84.2783 68.2225 83.6532C68.3086 83.4614 68.3893 83.269 68.455 83.0745Z" fill="#C9C9C9"/>
<path id="Vector_45" d="M65.3259 76.1529C65.3158 75.2654 65.1333 74.4054 64.7055 73.549C64.675 73.49 64.6404 73.4333 64.6084 73.3757C67.4118 73.3516 70.6409 73.0834 73.3905 71.9828C76.4124 70.7738 80.1929 66.6382 80.8427 61.7789C80.8427 61.7789 86.5343 66.1709 84.8621 75.5717C83.2909 84.3989 75.905 87.2766 67.4809 87.7634C67.4763 87.7065 68.4287 85.7401 68.1276 84.536C72.9098 84.8836 78.2593 83.0355 80.843 78.7866C83.2058 74.8975 82.5432 68.2578 81.5713 67.2848C79.2021 74.7632 70.6732 76.2834 65.3259 76.1529Z" fill="#463014"/>
<path id="Vector_46" d="M68.7277 78.3672C67.7212 77.2791 65.8708 75.9823 61.6042 75.9823L50.2393 75.9753H50.2114C46.936 75.9777 38.845 75.9823 38.845 75.9823C34.5792 75.9823 32.7288 77.2794 31.7218 78.3672C30.255 79.9508 30.0248 82.1534 31.0397 84.9068C33.7361 92.2355 37.5256 99.6813 50.2108 99.6918V99.693C50.2154 99.693 50.2195 99.6918 50.2247 99.6918C50.2291 99.6918 50.2335 99.693 50.2387 99.693V99.6918C62.9227 99.6808 66.7122 92.2355 69.4095 84.9068C70.4243 82.1534 70.1936 79.9508 68.7277 78.3672ZM66.7529 84.393C65.4683 88.0732 62.0154 96.9808 50.2244 96.9963C38.432 96.9808 34.9806 88.0735 33.6957 84.393C32.9849 82.3511 33.0389 80.8401 33.862 79.9017C34.4243 79.26 35.7159 78.4942 38.6593 78.4942L41.7344 78.493C44.003 78.491 46.8514 78.4887 50.2247 78.4872C53.5969 78.4887 56.4467 78.491 58.7148 78.493L61.7887 78.4942C64.733 78.4942 66.0243 79.2597 66.5869 79.9017C67.4091 80.841 67.4637 82.3511 66.7526 84.393H66.7529Z" fill="#463014"/>
<path id="Vector_47" d="M64.4438 70.7994C65.9597 75.248 69.0561 78.8486 69.0561 78.8486C69.0561 78.8486 64.7967 78.6547 64.5613 77.9011C64.3883 77.3455 60.7163 68.7494 59.3068 58.6792C60.6314 60.8574 64.3136 70.4184 64.4438 70.7994Z" fill="#463014"/>
</g>
</g>
<defs>
<clipPath id="clip0_790_856">
<rect width="74.4" height="100" fill="white" transform="translate(12.9998 -0.000366211)"/>
</clipPath>
</defs>
</svg>
