<svg width="100" height="100" viewBox="0 0 100 100" fill="none" xmlns="http://www.w3.org/2000/svg">
<g id="headlessui">
<g id="headlessui_2">
<path id="Vector" d="M19.7992 62.1445L80.8089 41.7726C79.5899 34.1463 78.721 29.0518 77.7146 25.1637C76.6301 20.9817 75.7706 19.8628 75.433 19.4752C74.2567 18.1288 72.7921 17.0648 71.148 16.3623C70.6729 16.1591 69.3414 15.6871 65.0345 15.9466C60.4775 16.2216 54.4953 17.153 45.0219 18.6532C35.5517 20.1535 29.5726 21.1193 25.1563 22.2632C20.9775 23.3477 19.8554 24.2104 19.4678 24.5479C18.1239 25.7262 17.0612 27.189 16.358 28.833C16.1548 29.3081 15.6829 30.6395 15.9423 34.9496C16.2173 39.5066 17.1487 45.4919 18.649 54.9653C19.0678 57.622 19.446 59.9973 19.7992 62.1445Z" fill="url(#paint0_linear_790_918)"/>
<path id="Vector_2" fill-rule="evenodd" clip-rule="evenodd" d="M2.97765 57.4469C0.0771862 39.119 -1.37617 29.955 1.76808 22.5976C3.40715 18.7604 5.88986 15.3418 9.03174 12.596C15.0546 7.33578 24.2154 5.88554 42.5371 2.98196C60.865 0.0752422 70.029 -1.37499 77.3864 1.76926C81.2215 3.40886 84.6379 5.89157 87.3817 9.03292C92.6451 15.0589 94.0953 24.2228 96.9958 42.5539C99.8994 60.8818 101.35 70.0489 98.2053 77.4032C96.5674 81.2402 94.0857 84.6588 90.9448 87.4048C84.922 92.6681 75.758 94.1184 57.4332 97.0219C39.1115 99.9255 29.9476 101.376 22.5933 98.2315C18.7582 96.5918 15.3418 94.1091 12.5979 90.9679C7.33459 84.9419 5.88124 75.7779 2.97765 57.4469ZM35.2984 89.9958C40.2055 89.6989 46.5252 88.7081 55.8798 87.2266C65.2376 85.7452 71.548 84.7325 76.3112 83.4979C80.9213 82.3008 83.0467 81.135 84.4188 79.9349C86.4374 78.1695 88.0324 75.9721 89.0851 73.5057C89.804 71.8304 90.2572 69.4488 89.9696 64.6918C89.6727 59.7848 88.6819 53.4619 87.2004 44.1041C85.719 34.7464 84.7094 28.4298 83.4749 23.6696C82.2778 19.0564 81.1089 16.9311 79.9118 15.559C78.1478 13.5395 75.9514 11.9434 73.4858 10.8895C71.8105 10.1706 69.4289 9.7174 64.6719 10.005C59.7648 10.3019 53.4482 11.2927 44.0936 12.7741C34.7358 14.2588 28.4223 15.2683 23.6622 16.5029C19.049 17.6999 16.9267 18.8689 15.5547 20.0659C13.5349 21.831 11.9389 24.0285 10.8852 26.4951C10.1694 28.1703 9.71622 30.552 10.0038 35.309C10.3007 40.2191 11.2883 46.5389 12.773 55.8966C14.2544 65.2544 15.264 71.571 16.4986 76.3312C17.6956 80.9444 18.8614 83.0697 20.0616 84.4418C21.8257 86.4612 24.0221 88.0572 26.4876 89.1113C28.1629 89.8302 30.5383 90.2834 35.2984 89.9958Z" fill="url(#paint1_linear_790_918)"/>
</g>
</g>
<defs>
<linearGradient id="paint0_linear_790_918" x1="39.1616" y1="0.000268622" x2="55.036" y2="99.1817" gradientUnits="userSpaceOnUse">
<stop stop-color="#66E3FF"/>
<stop offset="1" stop-color="#7064F9"/>
</linearGradient>
<linearGradient id="paint1_linear_790_918" x1="39.1615" y1="0.000229824" x2="55.036" y2="99.1817" gradientUnits="userSpaceOnUse">
<stop stop-color="#66E3FF"/>
<stop offset="1" stop-color="#7064F9"/>
</linearGradient>
</defs>
</svg>
