<svg width="100" height="100" viewBox="0 0 100 100" fill="none" xmlns="http://www.w3.org/2000/svg">
<g id="homebrew">
<g id="homebrew_2" clip-path="url(#clip0_790_937)">
<path id="Vector" fill-rule="evenodd" clip-rule="evenodd" d="M44.5055 18.5716C44.7786 9.90479 41.859 4.7952 33.466 1.41992C31.0804 9.76457 40.9291 17.4587 44.5055 18.5716Z" fill="#D1D3D4" stroke="black" stroke-width="1.76753" stroke-linejoin="round"/>
<path id="Vector_2" fill-rule="evenodd" clip-rule="evenodd" d="M67.2668 33.2594C67.5398 26.1428 65.7424 23.2705 64.3933 21.2166C63.0247 19.3007 59.7406 16.2897 55.7055 16.1635C51.8897 16.0439 50.9719 18.1531 47.4516 18.2804C46.8745 11.8701 51.7125 8.35239 51.7125 8.35239C51.7125 8.35239 50.3897 6.48264 49.2952 6.02582C47.721 7.42471 43.3882 12.0908 44.3908 18.0952C41.1516 17.476 38.8653 15.6221 35.4627 16.2915C30.8273 17.2037 27.0063 20.0063 24.8284 26.1561C22.6509 32.3063 25.597 39.4812 26.2376 41.5302C26.8786 43.5812 31.6192 52.2919 35.3347 53.5738C39.0494 54.8561 39.0505 54.2782 41.0365 53.51C43.0229 52.7413 46.0328 51.3321 50.4542 52.9339C54.873 54.535 55.4494 54.9188 58.2033 53.1254C60.9594 51.3325 64.5457 45.7594 65.3778 44.1576C66.2107 42.5564 66.6594 41.7232 66.9166 40.8908C69.5941 39.5546 67.021 39.6373 67.2668 33.2594Z" fill="#D1D3D4" stroke="black" stroke-width="1.76753" stroke-linejoin="round"/>
<path id="Vector_3" d="M74.459 85.2705C75.3332 85.2736 76.1994 85.1041 77.0079 84.7717C77.8165 84.4394 78.5514 83.9507 79.1707 83.3337C79.79 82.7167 80.2813 81.9835 80.6167 81.1762C80.952 80.3689 81.1246 79.5033 81.1247 78.6291C81.1255 71.8863 81.1255 61.4668 81.1255 54.7055C81.1255 52.9439 80.4257 51.2545 79.18 50.0089C77.9344 48.7632 76.245 48.0634 74.4834 48.0634H69.0081C68.6166 48.0634 68.2412 47.9079 67.9644 47.6311C67.6876 47.3543 67.5321 46.9789 67.5321 46.5874V43.1077H24.3476L24.4565 94.1088C24.457 94.3564 24.5198 94.6 24.6391 94.8169C24.7584 95.0339 24.9303 95.2174 25.1391 95.3505C27.0624 96.4642 33.228 98.5793 46.1738 98.5793C59.3933 98.5793 65.3026 95.7476 66.9945 94.469C67.1605 94.3312 67.2941 94.1585 67.3858 93.9632C67.4775 93.7679 67.5251 93.5548 67.5251 93.3391C67.5321 91.9277 67.5321 88.6572 67.5321 86.7251C67.5321 86.5286 67.5712 86.3342 67.6473 86.1531C67.7234 85.972 67.8349 85.808 67.9752 85.6705C68.1155 85.5331 68.2819 85.425 68.4645 85.3527C68.6471 85.2804 68.8424 85.2453 69.0387 85.2494C70.6627 85.2723 72.6085 85.2756 74.459 85.2705ZM67.5321 55.8217C67.5321 55.3325 67.7266 54.8631 68.0723 54.517C68.4185 54.1711 68.8878 53.9768 69.3771 53.9767H74.0775C74.5668 53.9767 75.0362 54.1712 75.3823 54.517C75.7281 54.8631 75.9224 55.3324 75.9225 55.8217V77.2922C75.9224 77.7816 75.7281 78.2509 75.3823 78.597C75.0361 78.9429 74.5668 79.1372 74.0775 79.1372H69.3771C68.8878 79.1372 68.4185 78.9429 68.0723 78.597C67.7265 78.2509 67.5322 77.7816 67.5321 77.2922V55.8217Z" fill="white" stroke="black" stroke-width="1.76753" stroke-linejoin="round"/>
<path id="Vector_4" fill-rule="evenodd" clip-rule="evenodd" d="M28.6048 42.6797V88.431C28.6048 88.959 28.8867 89.4468 29.3439 89.7103C31.2114 90.6003 36.6292 92.7247 46.1277 92.7247C55.6893 92.7247 60.9461 90.1435 62.7063 89.0797C62.9131 88.9464 63.0832 88.7634 63.2009 88.5473C63.3187 88.3313 63.3804 88.0892 63.3804 87.8432C63.3845 81.7764 63.3845 42.6797 63.3845 42.6797H28.6048Z" fill="#FBB040"/>
<path id="Vector_5" d="M33.717 50.429V85.7853" stroke="#FFDB96" stroke-width="4.06719" stroke-linecap="round"/>
<path id="Vector_6" fill-rule="evenodd" clip-rule="evenodd" d="M53.3672 52.0683C53.3672 51.3303 52.9329 50.4491 52.2196 50.0066C51.0501 49.2976 50.1491 48.2203 49.658 46.9439C40.2148 47.2616 31.5956 45.6033 27.2535 44.4325C26.1387 44.1165 25.0094 43.8542 23.8694 43.6465C21.2705 43.131 19.2952 40.8487 19.2952 38.1048C19.2952 35.0845 21.6915 32.6303 24.6856 32.5229C25.2631 29.3284 28.0513 26.9033 31.4122 26.9033C35.1915 26.9033 38.255 29.9675 38.255 33.7465C38.255 34.5417 38.1115 35.303 37.8624 36.0137L37.8827 36.017C38.7266 33.3775 41.1974 31.4649 44.1174 31.4649C47.0185 31.4649 49.476 33.355 50.3343 35.9697C50.3094 35.7311 50.297 35.4913 50.2971 35.2513C50.2971 31.3207 53.4831 28.1347 57.4129 28.1347C60.5945 28.1347 63.2871 30.2229 64.1982 33.1022L64.8185 32.9406C65.655 32.4674 66.5998 32.2188 67.5609 32.2192C70.6491 32.2192 73.1528 34.7229 73.1517 37.8103C73.1517 40.6391 71.0517 42.9768 68.3255 43.3498C67.7081 43.4373 67.1026 43.5945 66.5207 43.8185C64.9004 44.4292 63.2436 44.9354 61.5698 45.3531C61.4886 46.1585 61.2492 46.9398 60.8653 47.6524C60.1864 48.9264 59.8819 50.3665 59.9871 51.8063C59.9864 51.8934 59.9897 52.3494 59.9897 52.4373C59.9897 54.2661 58.5078 55.379 56.6775 55.379C56.2428 55.379 55.8123 55.2933 55.4106 55.127C55.009 54.9606 54.644 54.7167 54.3366 54.4093C54.0292 54.1018 53.7854 53.7369 53.6191 53.3352C53.4527 52.9335 53.3671 52.503 53.3672 52.0683Z" fill="white" stroke="black" stroke-width="1.76753" stroke-linecap="round" stroke-linejoin="round"/>
</g>
</g>
<defs>
<clipPath id="clip0_790_937">
<rect width="66.4207" height="100" fill="white" transform="translate(17 -0.000366211)"/>
</clipPath>
</defs>
</svg>
