<svg width="100" height="100" viewBox="0 0 100 100" fill="none" xmlns="http://www.w3.org/2000/svg">
<g id="invision">
<g id="invision_2">
<path id="Vector" d="M90.9348 0.000488281H9.06524C4.05859 0.000488281 0 4.05908 0 9.06572V90.9353C0 95.9419 4.05859 100 9.06524 100H90.9348C95.9414 100 100 95.9419 100 90.9353V9.06572C100 4.05908 95.9414 0.000488281 90.9348 0.000488281Z" fill="#DC395F"/>
<path id="Vector_2" d="M33.4199 31.4635C36.7441 31.4635 39.5289 28.858 39.5289 25.4431C39.5289 22.0306 36.7441 19.4255 33.4199 19.4255C30.0957 19.4255 27.3117 22.0306 27.3117 25.4431C27.3117 28.8576 30.0957 31.4635 33.4199 31.4635ZM20.7535 63.6979C20.3945 65.2252 20.2145 66.8745 20.2145 68.2198C20.2145 73.521 23.0891 77.0401 29.198 77.0401C34.2645 77.0401 38.3719 74.0315 41.3293 69.1733L39.5234 76.4206H49.584L55.334 53.3584C56.7715 47.5193 59.5563 44.4885 63.7789 44.4885C67.1027 44.4885 69.1688 46.5557 69.1688 49.9682C69.1688 50.9569 69.0789 52.0338 68.7195 53.2022L65.7547 63.8026C65.3055 65.3299 65.1266 66.8581 65.1266 68.2944C65.1266 73.3268 68.0902 77.0077 74.2891 77.0077C79.5895 77.0077 83.8113 73.5956 86.1473 65.4202L82.1949 63.8944C80.2184 69.3713 78.5113 70.3616 77.1637 70.3616C75.816 70.3616 75.0973 69.4639 75.0973 67.6682C75.0973 66.8596 75.2777 65.9623 75.5465 64.8819L78.4219 54.5545C79.1402 52.1295 79.4102 49.9791 79.4102 48.0033C79.4102 40.2775 74.7383 36.2455 69.0789 36.2455C63.7789 36.2455 58.3883 41.0264 55.6938 46.058L57.6695 37.0267H42.3086L40.1523 44.9815H47.3395L42.9137 62.7002C39.4383 70.426 33.0543 70.5514 32.2531 70.3721C30.9375 70.0753 30.0961 69.5756 30.0961 67.8663C30.0961 66.8799 30.2758 65.4631 30.725 63.7549L37.4633 37.0267H20.3945L18.2383 44.9815H25.3348L20.7539 63.6979" fill="white"/>
</g>
</g>
</svg>
