<svg width="100" height="100" viewBox="0 0 100 100" fill="none" xmlns="http://www.w3.org/2000/svg">
<g id="jslint">
<g id="jslint_2">
<path id="Vector" d="M81.2499 0H18.7499C8.39454 0 -0.00012207 8.39466 -0.00012207 18.75V81.25C-0.00012207 91.6053 8.39454 100 18.7499 100H81.2499C91.6052 100 99.9999 91.6053 99.9999 81.25V18.75C99.9999 8.39466 91.6052 0 81.2499 0Z" fill="#FAEBD7"/>
<path id="Vector_2" d="M15.5272 0.3125C11.6991 0.996094 8.49597 2.63672 5.703 5.35156C3.22253 7.75391 1.54285 10.6445 0.546753 14.2578L0.0975342 15.918V50V84.082L0.527222 85.7227C2.38269 92.6172 7.3241 97.5586 14.2577 99.4531L15.9178 99.9023H49.9999H84.0819L85.7421 99.4531C92.6171 97.5781 97.6171 92.5781 99.453 85.7422L99.9022 84.082V50C99.9022 12.1484 99.9999 15.2148 98.6132 11.7383C96.6014 6.67969 92.0116 2.46094 86.7186 0.800781C84.121 0 84.121 0 49.8241 0.0195312C22.3632 0.0390625 16.8358 0.078125 15.5272 0.3125ZM84.1405 5C84.9999 5.17578 86.4257 5.68359 87.4999 6.19141C89.0624 6.95312 89.6093 7.34375 91.1327 8.86719C92.6561 10.3906 93.0468 10.9375 93.8085 12.5C95.4296 15.8594 95.3319 13.2227 95.2733 50.6836C95.1952 87.8516 95.3319 84.4336 93.7499 87.6172C92.4218 90.3516 89.453 93.1055 86.621 94.2773C84.0624 95.3516 85.3319 95.3125 49.9999 95.3125C14.6678 95.3125 15.9374 95.3516 13.3788 94.2773C10.5468 93.1055 7.578 90.3516 6.24988 87.6172C4.66785 84.4336 4.80457 87.8516 4.72644 50.6836C4.66785 13.2031 4.57019 15.8203 6.19128 12.5C6.953 10.9375 7.36316 10.3711 8.86707 8.86719C10.3905 7.34375 10.9374 6.95312 12.4999 6.19141C15.7616 4.60938 13.1444 4.72656 49.8632 4.70703C78.828 4.6875 82.8124 4.72656 84.1405 5Z" fill="#2F4F4F"/>
<path id="Vector_3" d="M34.1405 31.6797L34.0819 48.3398L29.9413 48.3984L25.7811 48.4375V42.1875V35.9375H21.5819H17.3827V41.2695V46.582L20.371 49.5703L23.3397 52.5391H29.9803H36.621L39.5116 49.6484L42.3827 46.7773V30.8984V15.0391H38.2811H34.1796L34.1405 31.6797Z" fill="#2F4F4F"/>
<path id="Vector_4" d="M53.7499 18.0273L50.7811 20.9961V25.293V29.5898L57.0311 35.8398L63.2811 42.0898V45.2539V48.4375H61.328H59.3749L55.2733 46.3867C53.0272 45.2539 51.0936 44.3359 50.9764 44.3359C50.8593 44.3359 50.7811 44.8438 50.7811 45.4688V46.582L53.7694 49.5703L56.7382 52.5391H61.2303H65.7225L68.7108 49.5508L71.6796 46.582V42.2852V37.9883L65.4296 31.7383L59.1796 25.4883V22.3242V19.1406H61.2303H63.2811L67.3827 21.1914C69.6288 22.3242 71.5233 23.2422 71.5819 23.2422C71.6405 23.2422 71.6796 22.7344 71.6796 22.1094V20.9961L68.6913 18.0078L65.7225 15.0391H61.2303H56.7382L53.7499 18.0273Z" fill="#2F4F4F"/>
<path id="Vector_5" d="M16.4061 73.4374V87.4999H24.2186H32.0311V85.9374V84.3749H27.3436H22.6561V71.8749V59.3749H19.5311H16.4061V73.4374Z" fill="#2F4F4F"/>
<path id="Vector_6" d="M38.281 60.9375V62.5H41.406H44.531V60.9375V59.375H41.406H38.281V60.9375Z" fill="#2F4F4F"/>
<path id="Vector_7" d="M75.7811 62.4999V65.6249H74.2186H72.6561V67.1874V68.7499H74.2186H75.7811V75.9374V83.1054L77.9882 85.3124L80.1757 87.4999H82.6757H85.1561V85.9374V84.3749H83.5936H82.0311V76.5624V68.7499H83.5936H85.1561V67.1874V65.6249H83.5936H82.0311V62.4999V59.3749H78.9061H75.7811V62.4999Z" fill="#2F4F4F"/>
<path id="Vector_8" d="M38.281 76.5624V87.4999H41.406H44.531V76.5624V65.6249H41.406H38.281V76.5624Z" fill="#2F4F4F"/>
<path id="Vector_9" d="M50.7811 76.5624V87.4999H53.9061H57.0311V78.1249V68.7499H60.1561H63.2811V78.1249V87.4999H66.4061H69.5311V78.7499V70.0195L67.3241 67.8124L65.1366 65.6249H57.9491H50.7811V76.5624Z" fill="#2F4F4F"/>
</g>
</g>
</svg>
