<svg width="100" height="100" viewBox="0 0 100 100" fill="none" xmlns="http://www.w3.org/2000/svg">
<g id="opera">
<g id="opera_2" clip-path="url(#clip0_790_3009)">
<path id="Vector" d="M33.54 78.1805C28.01 71.6505 24.43 62.0105 24.19 51.1805V48.8205C24.43 37.9905 28.01 28.3505 33.54 21.8205C40.72 12.5105 51.38 6.60049 63.28 6.60049C70.6 6.60049 77.46 8.84049 83.32 12.7305C74.52 4.85049 62.92 0.0504883 50.19 0.000488281H50C22.39 0.000488281 0 22.3905 0 50.0005C0 76.8205 21.11 98.7005 47.62 99.9405C48.41 99.9805 49.2 100 50 100C62.8 100 74.48 95.1905 83.32 87.2805C77.46 91.1605 70.61 93.4005 63.28 93.4005C51.38 93.4005 40.72 87.4905 33.54 78.1805Z" fill="url(#paint0_linear_790_3009)"/>
<path id="Vector_2" d="M33.54 21.8205C38.13 16.4005 44.05 13.1405 50.53 13.1405C65.09 13.1405 76.88 29.6405 76.88 50.0005C76.88 70.3605 65.08 86.8605 50.53 86.8605C44.06 86.8605 38.13 83.5905 33.54 78.1805C40.72 87.4905 51.38 93.4005 63.28 93.4005C70.6 93.4005 77.46 91.1605 83.32 87.2805C93.56 78.1205 100 64.8105 100 50.0005C100 35.1905 93.56 21.8805 83.32 12.7305C77.46 8.84049 70.61 6.60049 63.28 6.60049C51.38 6.60049 40.72 12.5105 33.54 21.8205Z" fill="url(#paint1_linear_790_3009)"/>
</g>
</g>
<defs>
<linearGradient id="paint0_linear_790_3009" x1="41.6623" y1="1.63089" x2="41.6623" y2="98.5451" gradientUnits="userSpaceOnUse">
<stop offset="0.3" stop-color="#FF1B2D"/>
<stop offset="0.4381" stop-color="#FA1A2C"/>
<stop offset="0.5939" stop-color="#ED1528"/>
<stop offset="0.7581" stop-color="#D60E21"/>
<stop offset="0.9272" stop-color="#B70519"/>
<stop offset="1" stop-color="#A70014"/>
</linearGradient>
<linearGradient id="paint1_linear_790_3009" x1="66.771" y1="7.34306" x2="66.771" y2="93.0589" gradientUnits="userSpaceOnUse">
<stop stop-color="#9C0000"/>
<stop offset="0.7" stop-color="#FF4B4B"/>
</linearGradient>
<clipPath id="clip0_790_3009">
<rect width="100" height="100" fill="white" transform="translate(0 0.000488281)"/>
</clipPath>
</defs>
</svg>
