<svg width="100" height="100" viewBox="0 0 100 100" fill="none" xmlns="http://www.w3.org/2000/svg">
<g id="pandacss">
<g id="pandacss_2">
<path id="Vector" d="M1 11.458C1 5.12969 6.13008 -0.000366211 12.4583 -0.000366211H88.5001C94.8282 -0.000366211 99.9583 5.12969 99.9583 11.458V88.5412C99.9583 94.8696 94.8282 99.9996 88.5001 99.9996H12.4583C6.13008 99.9996 1 94.8696 1 88.5412V11.458Z" fill="#F6E458"/>
<path id="Vector_2" d="M64.4169 22.3522C58.9572 20.7839 53.3881 20.5707 47.7131 21.0783C44.5372 21.4083 41.4841 22.0387 38.5391 23.1449C32.1735 25.536 27.3942 29.6771 24.5443 35.9123C22.5011 40.3824 21.7627 45.1307 21.6857 50.0029C21.6044 55.1515 22.2496 60.2292 23.2749 65.2634C24.2042 69.8263 25.4418 74.3 27.2093 78.6185C27.3772 79.0288 27.5864 79.1671 28.0346 79.1662C33.6246 79.1542 39.2149 79.1542 44.8052 79.1542C46.4599 79.1542 48.1149 79.1542 49.77 79.1539C49.8966 79.1539 50.0233 79.147 50.1691 79.139C50.2434 79.1351 50.3227 79.1306 50.4096 79.1267C50.376 79.0467 50.3461 78.9734 50.3176 78.9045C50.2625 78.7692 50.2143 78.6515 50.1604 78.5362C49.7562 77.6714 49.3435 76.8105 48.9309 75.9493C48.0359 74.0814 47.1411 72.2135 46.3318 70.309C43.8766 64.5337 41.9967 58.587 41.423 52.2924C41.17 49.5151 41.205 46.7537 41.9758 44.0473C42.8564 40.9538 44.7465 38.7699 47.8802 37.8569C50.7578 37.0188 53.6756 37.0242 56.5374 37.9498C59.0916 38.7756 60.7568 40.5205 61.4653 43.1328C62.0094 45.1391 62.0091 47.1669 61.5976 49.1896C61.2805 50.7467 60.6427 52.1679 59.4944 53.3046C57.4342 55.3438 54.8617 55.8127 52.1011 55.6564C51.61 55.6285 51.1204 55.5749 50.6159 55.5192C50.3796 55.4935 50.1401 55.4671 49.8954 55.4429C49.9023 55.521 49.9062 55.5929 49.9101 55.6603C49.917 55.7929 49.9233 55.9079 49.9505 56.0178C50.0682 56.4906 50.1805 56.9652 50.2925 57.4399C50.5626 58.5831 50.8327 59.7264 51.1797 60.8457C51.8619 63.0436 52.6545 65.1888 53.5534 67.2831C59.9609 66.7831 65.8623 65.1903 72.126 61.4302C72.2201 61.371 72.3057 61.3174 72.3913 61.264C75.0818 59.589 77.2594 57.4162 78.7611 54.6104C81.1931 50.0667 81.6672 45.2076 80.9446 40.1923C80.199 35.0161 77.8762 30.6715 73.8775 27.2636C71.1043 24.8999 67.8973 23.352 64.4169 22.3522Z" fill="black"/>
</g>
</g>
</svg>
