<svg width="100" height="100" viewBox="0 0 100 100" fill="none" xmlns="http://www.w3.org/2000/svg">
<g id="pinia">
<g id="pinia_2">
<path id="Vector" fill-rule="evenodd" clip-rule="evenodd" d="M44.3188 49.1523C51.0068 42.7802 48.966 34.8991 42.9088 25.3492C36.8515 15.7993 24.6583 12.4017 22.3836 14.569C20.1089 16.7363 19.6047 32.2314 25.6619 41.7813C31.7191 51.3312 37.6307 55.5244 44.3188 49.1523Z" fill="url(#paint0_linear_790_3025)"/>
<path id="Vector_2" fill-rule="evenodd" clip-rule="evenodd" d="M50.1016 50.0343C55.0495 57.8351 61.6642 54.9828 69.8519 47.182C78.0395 39.3811 81.4345 24.4381 79.7517 21.7849C78.0688 19.1316 65.2803 19.2647 57.0926 27.0655C48.905 34.8664 45.1538 42.2334 50.1016 50.0343Z" fill="url(#paint1_linear_790_3025)"/>
<path id="Vector_3" fill-rule="evenodd" clip-rule="evenodd" d="M47.3963 45.7426C55.6121 46.7514 58.843 39.1613 60.3494 26.8925C61.8558 14.6236 55.6459 1.65625 52.8516 1.31315C50.0573 0.970057 40.6696 12.0223 39.1631 24.2911C37.6567 36.56 39.1806 44.7339 47.3963 45.7426Z" fill="url(#paint2_linear_790_3025)"/>
<path id="Vector_4" fill-rule="evenodd" clip-rule="evenodd" d="M45.3274 99.9986C62.5526 99.9986 76.522 94.9949 76.522 72.3025C76.522 49.6101 62.5526 30.9888 45.3274 30.9888C28.1021 30.9888 14.1437 49.6101 14.1437 72.3025C14.1437 94.9949 28.1021 99.9986 45.3274 99.9986Z" fill="url(#paint3_linear_790_3025)"/>
<path id="Vector_5" d="M61.0828 67.6697C63.5436 67.6697 65.5384 66.7419 65.5384 65.5974C65.5384 64.4528 63.5436 63.525 61.0828 63.525C58.6221 63.525 56.6273 64.4528 56.6273 65.5974C56.6273 66.7419 58.6221 67.6697 61.0828 67.6697Z" fill="#EAADCC"/>
<path id="Vector_6" d="M28.0869 66.411C30.5293 66.7109 32.6223 66.0331 32.7618 64.8971C32.9013 63.7611 31.0344 62.5971 28.592 62.2972C26.1496 61.9973 24.0565 62.6751 23.9171 63.8111C23.7776 64.9471 25.6445 66.1111 28.0869 66.411Z" fill="#EAADCC"/>
<path id="Vector_7" d="M48.1818 64.8636C46.8408 65.9535 45.2919 66.398 43.5351 66.1973C41.7783 65.9965 40.4762 65.2674 39.6286 64.0097" stroke="black" stroke-width="1.24342" stroke-linecap="round" stroke-linejoin="round"/>
<path id="Vector_8" fill-rule="evenodd" clip-rule="evenodd" d="M30.9262 54.0788C32.156 54.0359 33.2866 54.4954 34.1206 55.273C34.9546 56.0506 35.4919 57.1464 35.5348 58.3761C35.5778 59.6058 35.1182 60.7365 34.3406 61.5704C33.5628 62.4044 32.467 62.9416 31.2372 62.9846C30.0076 63.0275 28.877 62.568 28.0431 61.7903C27.2092 61.0126 26.672 59.9168 26.6291 58.6871C26.5861 57.4574 27.0456 56.3268 27.8232 55.4929C28.6009 54.659 29.6966 54.1218 30.9262 54.0788Z" fill="black"/>
<path id="Vector_9" fill-rule="evenodd" clip-rule="evenodd" d="M31.1602 57.8033C31.1323 57.0027 30.4603 56.3762 29.66 56.4041C28.8592 56.4321 28.2327 57.1039 28.2607 57.9045C28.2887 58.7051 28.9604 59.3316 29.7612 59.3037C30.5615 59.2755 31.1882 58.6039 31.1602 57.8033Z" fill="white"/>
<path id="Vector_10" fill-rule="evenodd" clip-rule="evenodd" d="M57.9232 55.2097C59.1529 55.1668 60.2835 55.6262 61.1174 56.4039C61.9513 57.1815 62.4886 58.2773 62.5315 59.507C62.5745 60.7367 62.115 61.8674 61.3374 62.7013C60.5597 63.5353 59.4639 64.0725 58.2342 64.1154C57.0045 64.1584 55.8739 63.6989 55.0399 62.9212C54.206 62.1435 53.6687 61.0477 53.6258 59.818C53.5828 58.5883 54.0424 57.4577 54.82 56.6238C55.5977 55.7899 56.6935 55.2526 57.9232 55.2097Z" fill="black"/>
<path id="Vector_11" d="M34.9135 58.3978C34.9874 60.5142 33.3318 62.2894 31.2155 62.3633C29.0994 62.4372 27.3243 60.7818 27.2504 58.6654C27.1765 56.5493 28.8318 54.7741 30.9479 54.7002C33.0642 54.6263 34.8396 56.2817 34.9135 58.3978ZM36.1561 58.3544C36.0583 55.552 33.7071 53.3597 30.9045 53.4575C28.1021 53.5554 25.9099 55.9064 26.0077 58.7088C26.1056 61.5114 28.4565 63.7038 31.2589 63.606C34.0615 63.5081 36.254 61.1571 36.1561 58.3544Z" fill="white" stroke="white" stroke-width="0.62171"/>
<path id="Vector_12" d="M61.9102 59.5287C61.9841 61.6451 60.3288 63.4203 58.2125 63.4942C56.0964 63.5681 54.3211 61.9127 54.2471 59.7963C54.1733 57.6802 55.8288 55.905 57.9449 55.8311C60.0612 55.7572 61.8363 57.4126 61.9102 59.5287ZM63.1529 59.4853C63.055 56.6829 60.7041 54.4906 57.9015 54.5885C55.0991 54.6863 52.9066 57.0373 53.0045 59.8397C53.1024 62.6423 55.4534 64.8347 58.2559 64.7369C61.0585 64.639 63.2508 62.288 63.1529 59.4853Z" fill="white" stroke="white" stroke-width="0.62171"/>
<path id="Vector_13" fill-rule="evenodd" clip-rule="evenodd" d="M58.1568 58.9341C58.1289 58.1336 57.457 57.507 56.6564 57.535C55.8558 57.563 55.2293 58.2348 55.2573 59.0354C55.2852 59.836 55.9571 60.4625 56.7577 60.4345C57.5583 60.4066 58.1848 59.7347 58.1568 58.9341Z" fill="white"/>
<path id="Vector_14" d="M21.7079 74.4049L37.0434 90.3621" stroke="#ECB732" stroke-width="2.2796" stroke-linecap="round"/>
<path id="Vector_15" d="M34.971 76.2701L25.2309 86.6319" stroke="#ECB732" stroke-width="2.2796" stroke-linecap="round"/>
<path id="Vector_16" d="M68.7506 74.4049L53.4151 90.3621" stroke="#ECB732" stroke-width="2.2796" stroke-linecap="round"/>
<path id="Vector_17" d="M55.4874 76.2701L65.2275 86.6319" stroke="#ECB732" stroke-width="2.2796" stroke-linecap="round"/>
<path id="Vector_18" d="M51.5499 39.1747L41.3953 49.3293" stroke="#FFC73B" stroke-width="2.2796" stroke-linecap="round"/>
<path id="Vector_19" d="M49.4776 49.3293L39.323 39.1747" stroke="#FFC73B" stroke-width="2.2796" stroke-linecap="round"/>
</g>
</g>
<defs>
<linearGradient id="paint0_linear_790_3025" x1="3362.04" y1="-2594.66" x2="6131.73" y2="5154.58" gradientUnits="userSpaceOnUse">
<stop stop-color="#52CE63"/>
<stop offset="1" stop-color="#51A256"/>
</linearGradient>
<linearGradient id="paint1_linear_790_3025" x1="2693.69" y1="3367.46" x2="-5056.25" y2="6135.79" gradientUnits="userSpaceOnUse">
<stop stop-color="#52CE63"/>
<stop offset="1" stop-color="#51A256"/>
</linearGradient>
<linearGradient id="paint2_linear_790_3025" x1="3421.36" y1="414.914" x2="1891" y2="12878.7" gradientUnits="userSpaceOnUse">
<stop stop-color="#8AE99C"/>
<stop offset="1" stop-color="#52CE63"/>
</linearGradient>
<linearGradient id="paint3_linear_790_3025" x1="10237.6" y1="5782.55" x2="8584.34" y2="32930.3" gradientUnits="userSpaceOnUse">
<stop stop-color="#FFE56C"/>
<stop offset="1" stop-color="#FFC63A"/>
</linearGradient>
</defs>
</svg>
