<svg width="100" height="100" viewBox="0 0 100 100" fill="none" xmlns="http://www.w3.org/2000/svg">
<g id="reduxsaga">
<g id="reduxsaga_2">
<g id="Group">
<path id="Vector" d="M50.7833 56.5885C50.7833 58.6475 49.2518 60.3476 47.2659 60.6146C44.9118 66.1024 40.1168 71.4564 33.5474 75.2493C28.0337 78.4325 22.1908 79.9859 16.9497 79.9859C10.2842 79.9859 4.59178 77.4745 1.78321 72.6099C-2.77805 64.7096 1.66633 53.6864 12.2002 46.2375C12.2006 47.9391 12.3337 49.4993 12.6318 50.8837C11.7818 51.6003 11.0093 52.214 10.2555 53.0044C8.31569 55.0379 6.76492 57.1448 5.70392 59.3946C3.7249 63.5906 3.59114 67.5571 5.32707 70.5639C7.2827 73.9511 11.519 75.8938 16.9497 75.8938C21.6553 75.8938 26.8232 74.4063 31.5014 71.7054C34.2254 70.1328 36.6475 68.244 38.7007 66.0915C40.6405 64.0579 42.162 61.886 43.2231 59.6362C43.3156 59.4402 43.4028 59.2449 43.4868 59.0502C42.9658 58.3669 42.6557 57.5141 42.6557 56.5885C42.6557 54.3442 44.4752 52.5249 46.7195 52.5249C48.9639 52.5249 50.7833 54.3442 50.7833 56.5885ZM32.6476 18.9996C41.7208 18.9996 49.2405 28.587 50.5972 41.117C49.182 40.2665 47.7003 39.5577 46.1488 38.9977C45.9639 38.0293 45.7346 37.0781 45.4613 36.1468C44.67 33.4501 43.5499 31.0466 42.132 29.0027C39.4878 25.1909 36.1194 23.0917 32.6476 23.0917C29.1759 23.0917 25.8075 25.1909 23.1632 29.0027C21.7453 31.0466 20.6252 33.4501 19.8339 36.1468C18.9965 39.0012 18.5718 42.0432 18.5718 45.1886C18.5718 48.334 18.9965 51.3761 19.8339 54.2303C20.6252 56.927 21.7453 59.3306 23.1632 61.3746C23.3102 61.5862 23.4594 61.7923 23.6107 61.9934C23.8529 61.9484 24.1022 61.9238 24.3573 61.9238C26.6018 61.9238 28.4211 63.7432 28.4211 65.9875C28.4211 68.2319 26.6018 70.0513 24.3573 70.0513C22.1131 70.0513 20.2937 68.2319 20.2937 65.9875C20.2937 65.528 20.371 65.0867 20.5117 64.6748C16.8094 59.8805 14.4797 52.9274 14.4797 45.1886C14.4797 30.7248 22.6137 18.9996 32.6476 18.9996ZM48.3066 75.893C53.2899 75.893 57.2675 74.2572 59.4 71.3705C60.6399 72.0258 62.018 72.4244 63.4728 72.6265C60.6481 77.437 54.9339 79.9851 48.3066 79.9851C44.2084 79.9851 39.7435 79.0357 35.3547 77.0999C37.0625 76.1568 38.5756 75.2455 39.6963 74.398C42.5971 75.3759 45.5321 75.893 48.3066 75.893ZM55.03 52.9386C52.9768 50.786 50.5547 48.8973 47.8308 47.3246C43.1526 44.6236 37.9851 43.1361 33.2804 43.1361H33.2798C32.2516 43.1363 31.2662 43.206 30.331 43.3418C30.3072 43.3452 30.2842 43.3497 30.2606 43.3533C29.8358 45.1435 28.2277 46.4758 26.3075 46.4758C24.0631 46.4758 22.2438 44.6563 22.2438 42.4121C22.2438 40.1677 24.0631 38.3483 26.3075 38.3483C27.3613 38.3483 28.3213 38.7494 29.0434 39.4074C29.0489 39.4063 29.0543 39.4051 29.0599 39.404C30.4062 39.1648 31.8194 39.0442 33.279 39.0441C38.5205 39.0438 44.3622 40.5969 49.8767 43.7808C58.9493 49.0189 64.6442 57.2341 65.1883 64.6677C63.5405 64.4823 62.1463 63.9355 60.8644 63.2285C60.6067 61.9873 60.1691 60.7017 59.5524 59.3938C58.4913 57.1439 56.9698 54.9721 55.03 52.9386Z" fill="#999999"/>
<path id="Vector_2" d="M96.4879 46.766C98.2882 49.477 94.6225 51.5976 92.9808 48.8717C91.98 47.1635 90.445 45.5658 88.4328 44.1699C86.389 42.752 83.9852 41.6319 81.2887 40.8407C78.4343 40.0031 75.3923 39.5784 72.247 39.5784C69.1016 39.5784 66.0595 40.0031 63.2052 40.8407C62.714 40.9848 62.2337 41.1411 61.7624 41.307C61.704 43.5003 59.9089 45.2608 57.7014 45.2608C55.4571 45.2608 53.6375 43.4415 53.6375 41.1971C53.6375 38.9527 55.4571 37.1333 57.7014 37.1333C58.4482 37.1333 59.1473 37.3357 59.7485 37.6871C63.4634 36.2848 67.7203 35.4864 72.247 35.4864C83.1962 35.4864 92.576 40.1479 96.4879 46.766ZM99.9045 56.5885C99.9045 58.6262 98.4047 60.3132 96.449 60.6068C92.5144 67.1908 83.1607 71.8222 72.247 71.8222C63.7243 71.8222 56.1526 68.9981 51.3703 64.6253C49.057 62.2999 51.8415 59.5979 53.999 61.4855C54.6171 62.0619 55.3053 62.6146 56.061 63.1387C58.1049 64.5566 60.5085 65.6767 63.2052 66.468C66.0595 67.3055 69.1016 67.7302 72.247 67.7302C75.3923 67.7302 78.4345 67.3055 81.2887 66.468C83.9853 65.6767 86.3891 64.5566 88.4328 63.1387C90.2061 61.9086 91.6073 60.5215 92.6004 59.0404C92.0839 58.3588 91.7769 57.5097 91.7769 56.5885C91.7769 54.3441 93.5963 52.5248 95.8408 52.5248C98.0851 52.5248 99.9045 54.3441 99.9045 56.5885Z" fill="#89D96D"/>
</g>
</g>
</g>
</svg>
