<svg width="100" height="100" viewBox="0 0 100 100" fill="none" xmlns="http://www.w3.org/2000/svg">
<g id="resend">
<g id="resend_2">
<path id="Vector" d="M0.000244141 60.6207H4.41902V53.698H8.13082L11.6069 60.6207H16.497L12.4318 52.6669C14.5822 51.6359 15.9667 49.5149 15.9667 46.8636C15.9667 42.6805 12.9325 39.9997 8.39592 39.9997H0.000244141V60.6207ZM8.04241 43.682C10.134 43.682 11.4596 44.9193 11.4596 46.8636C11.4596 48.7784 10.134 50.0156 8.04241 50.0156H4.41902V43.682H8.04241ZM25.2825 60.7974C29.3184 60.7974 31.9402 58.4408 32.4115 55.495H28.3167C27.9633 56.9089 26.7849 57.6454 25.1058 57.6454C23.0143 57.6454 21.6297 56.3492 21.5413 54.1987V53.9926H32.5293C32.6177 53.5212 32.6472 53.0204 32.6472 52.5785C32.5883 48.1303 29.5246 45.3023 24.9879 45.3023C20.3041 45.3023 17.2109 48.366 17.2109 53.0793C17.2109 57.7632 20.2451 60.7974 25.2825 60.7974ZM21.6297 51.2824C21.8654 49.4854 23.2204 48.3954 25.0174 48.3954C26.9028 48.3954 28.1695 49.4265 28.4641 51.2824H21.6297ZM34.095 55.5833C34.2718 58.8238 37.1293 60.7974 41.3418 60.7974C45.4071 60.7974 48.2351 58.8827 48.2351 55.8779C48.2351 52.4607 45.3482 51.6653 41.8721 51.3118C39.6921 51.0467 38.396 50.9288 38.396 49.78C38.396 48.8078 39.4564 48.2186 41.0767 48.2186C42.7558 48.2186 43.9047 48.9551 44.0226 50.1629H47.9994C47.7932 47.0698 44.9947 45.2728 40.9294 45.2728C37.0408 45.2434 34.4191 47.2171 34.4191 50.2218C34.4191 53.3444 37.1587 54.1398 40.6937 54.5522C43.1388 54.8763 44.1698 54.9647 44.1698 56.2019C44.1698 57.2624 43.1093 57.8221 41.3713 57.8221C39.3386 57.8221 38.1897 56.9089 38.0425 55.5833H34.095ZM57.9056 60.7974C61.9414 60.7974 64.5632 58.4408 65.0345 55.495H60.9398C60.5863 56.9089 59.408 57.6454 57.7288 57.6454C55.6372 57.6454 54.2527 56.3492 54.1643 54.1987V53.9926H65.1524C65.2407 53.5212 65.2702 53.0204 65.2702 52.5785C65.2113 48.1303 62.1476 45.3023 57.611 45.3023C52.9271 45.3023 49.8339 48.366 49.8339 53.0793C49.8339 57.7632 52.8682 60.7974 57.9056 60.7974ZM54.2527 51.2824C54.4883 49.4854 55.8435 48.3954 57.6404 48.3954C59.5258 48.3954 60.7925 49.4265 61.087 51.2824H54.2527ZM76.2303 45.3023C73.9035 45.3023 72.5185 46.1861 71.5467 47.3644L71.1634 45.479H67.5401V60.6207H71.6935V52.8731C71.6935 50.2513 72.931 48.7195 75.0811 48.7195C77.1729 48.7195 78.1453 50.0746 78.1453 52.6374V60.6207H82.2989V52.2251C82.2989 47.0403 79.5004 45.3023 76.2303 45.3023ZM95.8467 47.3644C94.8742 46.1271 93.3717 45.3023 91.2807 45.3023C87.2447 45.3023 84.2695 48.3365 84.2695 53.0204C84.2695 57.8221 87.2447 60.7974 91.3099 60.7974C93.49 60.7974 94.9626 59.8253 95.9643 58.5292L96.3768 60.6207H100V39.9997H95.8467V47.3644ZM92.2232 57.4097C89.9548 57.4097 88.5114 55.6422 88.5114 53.0499C88.5114 50.4575 89.9548 48.69 92.2232 48.69C94.4917 48.69 95.9051 50.487 95.9051 53.0793C95.9051 55.6422 94.4917 57.4097 92.2232 57.4097Z" fill="black"/>
</g>
</g>
</svg>
