<svg width="100" height="100" viewBox="0 0 100 100" fill="none" xmlns="http://www.w3.org/2000/svg">
<g id="safari">
<g id="safari_2" clip-path="url(#clip0_790_3359)">
<g id="Vector" opacity="0.53" filter="url(#filter0_f_790_3359)">
<path d="M95.6094 51.3072C95.6094 57.0745 94.4297 62.7853 92.1378 68.1135C89.8458 73.4418 86.4864 78.2831 82.2514 82.3612C78.0164 86.4393 72.9887 89.6742 67.4554 91.8812C61.9221 94.0883 55.9915 95.2242 50.0023 95.2242C44.0131 95.2242 38.0825 94.0883 32.5492 91.8812C27.0159 89.6742 21.9882 86.4393 17.7532 82.3612C13.5181 78.2831 10.1588 73.4418 7.86678 68.1135C5.57481 62.7853 4.39514 57.0745 4.39514 51.3072C4.39514 39.6597 9.20017 28.4892 17.7532 20.2532C26.3062 12.0172 37.9065 7.39022 50.0023 7.39022C55.9915 7.39022 61.9221 8.52617 67.4554 10.7332C72.9887 12.9402 78.0164 16.1751 82.2514 20.2532C86.4864 24.3313 89.8458 29.1726 92.1378 34.5009C94.4297 39.8292 95.6094 45.5399 95.6094 51.3072Z" fill="black"/>
</g>
<path id="Vector_2" d="M97.3435 47.4294C97.3435 53.6466 96.1189 59.8029 93.7397 65.5469C91.3605 71.2909 87.8732 76.51 83.4769 80.9062C79.0807 85.3025 73.8616 88.7898 68.1176 91.169C62.3736 93.5482 56.2173 94.7728 50 94.7728C37.4438 94.7728 25.4018 89.7849 16.5232 80.9062C7.64456 72.0276 2.65662 59.9856 2.65662 47.4294C2.65662 34.8731 7.64456 22.8311 16.5232 13.9525C25.4018 5.07386 37.4438 0.0858949 50 0.0858917C56.2173 0.0858913 62.3736 1.31047 68.1176 3.6897C73.8616 6.06893 79.0807 9.55623 83.4769 13.9525C87.8732 18.3487 91.3605 23.5678 93.7397 29.3118C96.1189 35.0558 97.3435 41.2121 97.3435 47.4294Z" fill="url(#paint0_linear_790_3359)" stroke="#CDCDCD" stroke-width="0.140575" stroke-linecap="round" stroke-linejoin="round"/>
<path id="Vector_3" d="M93.6337 47.4294C93.6337 59.0017 89.0365 70.1001 80.8537 78.283C72.6708 86.4659 61.5724 91.063 50 91.063C38.4276 91.063 27.3292 86.4659 19.1463 78.283C10.9634 70.1001 6.36633 59.0017 6.36633 47.4294C6.36633 35.857 10.9634 24.7586 19.1463 16.5757C27.3292 8.3928 38.4276 3.79569 50 3.79569C61.5724 3.79569 72.6708 8.3928 80.8537 16.5757C89.0365 24.7586 93.6337 35.857 93.6337 47.4294Z" fill="url(#paint1_radial_790_3359)"/>
<path id="Vector_4" d="M50 6.07116C49.6475 6.07116 49.3638 6.35487 49.3638 6.70732V14.0452C49.3638 14.3976 49.6475 14.6814 50 14.6814C50.3524 14.6814 50.6361 14.3976 50.6361 14.0452V6.70732C50.6361 6.35487 50.3524 6.07116 50 6.07116ZM45.8382 6.3342C45.796 6.32966 45.7527 6.32966 45.7088 6.33472C45.3583 6.3713 45.1055 6.68294 45.1422 7.03348L45.4628 10.1033C45.4994 10.4539 45.8111 10.7066 46.1616 10.67C46.5121 10.6335 46.7649 10.3218 46.7283 9.97127L46.4079 6.90144C46.3758 6.59471 46.1332 6.36284 45.8382 6.3342ZM54.1909 6.33722C53.8959 6.36563 53.6531 6.59749 53.6209 6.90417L53.298 9.97376C53.2611 10.3243 53.5139 10.6362 53.8644 10.6731C54.2149 10.7099 54.5266 10.4574 54.5634 10.1069L54.8863 7.03707C54.9232 6.68655 54.6704 6.37488 54.3199 6.33803C54.2761 6.3335 54.233 6.33347 54.1909 6.33722ZM41.563 6.95415C41.5207 6.95449 41.4776 6.95869 41.4346 6.96776C41.0898 7.04075 40.8709 7.37717 40.9439 7.72197L42.4636 14.9006C42.5366 15.2454 42.873 15.4642 43.2178 15.3913C43.5626 15.3183 43.7815 14.9821 43.7085 14.6373L42.1888 7.4584C42.1249 7.15669 41.8594 6.95184 41.563 6.95415ZM58.4657 6.9602C58.1694 6.95718 57.9038 7.16263 57.8398 7.46428L56.3149 14.6421C56.2416 14.9868 56.4602 15.3233 56.8049 15.3966C57.1497 15.4699 57.4862 15.2512 57.5594 14.9065L59.0843 7.72866C59.1576 7.38392 58.9389 7.0474 58.5942 6.97418C58.5512 6.96511 58.5081 6.9602 58.4657 6.9602ZM37.4831 8.10455C37.4007 8.09699 37.3157 8.10606 37.2318 8.13387C36.8967 8.24284 36.7144 8.60012 36.8233 8.93531L37.7771 11.8709C37.8861 12.2061 38.2437 12.3884 38.5788 12.2795C38.914 12.1705 39.096 11.8129 38.9871 11.4777L38.0333 8.54215C37.9517 8.29075 37.7301 8.12556 37.4831 8.10455ZM62.5226 8.10606C62.2756 8.12707 62.0541 8.29232 61.9724 8.5437L61.018 11.479C60.9091 11.8142 61.0912 12.1718 61.4263 12.2807C61.7615 12.3897 62.1191 12.2076 62.2281 11.8725L63.1824 8.93688C63.2914 8.6017 63.1093 8.24412 62.7741 8.13517C62.6904 8.10797 62.605 8.09911 62.5226 8.10606ZM33.4484 9.58099C33.3657 9.5825 33.2821 9.60064 33.2016 9.63646C32.8797 9.77958 32.7355 10.154 32.8787 10.4761L35.8591 17.1814C36.0022 17.5034 36.3766 17.6474 36.6987 17.5042C37.0205 17.3611 37.165 16.9867 37.0218 16.6646L34.0412 9.95934C33.9339 9.71779 33.6963 9.57619 33.4484 9.58099ZM66.6029 9.60351C66.355 9.59898 66.1173 9.73968 66.0096 9.98103L63.0201 16.6822C62.8766 17.0041 63.0201 17.3788 63.3419 17.5224C63.6638 17.6659 64.0385 17.5224 64.1821 17.2006L67.1715 10.4994C67.3151 10.1775 67.1716 9.80284 66.8497 9.65925C66.7693 9.62343 66.6855 9.60532 66.6029 9.60351ZM29.7034 11.5625C29.5813 11.5534 29.4555 11.5806 29.341 11.6468C29.0358 11.8231 28.932 12.2106 29.1082 12.5158L30.6515 15.1889C30.8277 15.4942 31.2152 15.598 31.5205 15.4218C31.8257 15.2455 31.9295 14.858 31.7533 14.5528L30.21 11.8797C30.0998 11.6889 29.907 11.5767 29.7034 11.5625ZM70.2965 11.5625C70.093 11.5761 69.9004 11.6888 69.7902 11.8796L68.2467 14.5527C68.0704 14.858 68.1746 15.2455 68.4798 15.4217C68.785 15.5979 69.1725 15.4941 69.3488 15.1889L70.8921 12.5158C71.0683 12.2106 70.9645 11.823 70.6592 11.6468C70.5448 11.5807 70.4187 11.554 70.2965 11.5625ZM26.0669 13.8306C25.9445 13.8352 25.8219 13.8745 25.7149 13.952C25.4296 14.1589 25.3666 14.5552 25.5736 14.8405L29.8822 20.78C30.0892 21.0653 30.4857 21.1284 30.771 20.9215C31.0563 20.7145 31.1193 20.3183 30.9123 20.033L26.6034 14.0935C26.474 13.9151 26.2708 13.8237 26.0669 13.8306ZM73.9786 13.863C73.7747 13.8554 73.5715 13.9469 73.4419 14.1249L69.125 20.0587C68.9176 20.3437 68.9802 20.7401 69.2652 20.9474C69.5503 21.1548 69.9467 21.0924 70.154 20.8075L74.4706 14.8737C74.678 14.5887 74.6153 14.1923 74.3304 13.985C74.2235 13.9073 74.101 13.8674 73.9786 13.863ZM22.8164 16.5567C22.654 16.5476 22.4883 16.6019 22.3573 16.7198C22.0953 16.9556 22.0743 17.3562 22.3101 17.6181L24.3754 19.9124C24.6112 20.1743 25.0118 20.1954 25.2737 19.9595C25.5357 19.7237 25.5568 19.3228 25.3209 19.0609L23.2559 16.7669C23.138 16.6359 22.9788 16.5652 22.8164 16.5567ZM77.1883 16.5612C77.0259 16.5703 76.8666 16.6406 76.7487 16.7715L74.6835 19.0652C74.4476 19.3271 74.4685 19.728 74.7305 19.9638C74.9924 20.1997 75.393 20.1785 75.6288 19.9167L77.6943 17.623C77.9302 17.3611 77.909 16.9602 77.6472 16.7244C77.5161 16.6065 77.3507 16.5527 77.1883 16.5612ZM19.7009 19.5492C19.5385 19.5583 19.3795 19.6286 19.2616 19.7596C19.0258 20.0215 19.0469 20.4221 19.3088 20.6579L24.7624 25.5673C25.0243 25.8031 25.4249 25.782 25.6607 25.5202C25.8965 25.2582 25.8757 24.8576 25.6137 24.6218L20.1599 19.7124C20.0288 19.5945 19.8633 19.5407 19.7009 19.5492ZM80.3188 19.5707C80.1564 19.5616 79.9905 19.6157 79.8595 19.7335L74.4026 24.6391C74.1405 24.8747 74.1189 25.2753 74.3545 25.5374C74.5901 25.7995 74.991 25.8208 75.2531 25.5852L80.7103 20.6796C80.9724 20.444 80.9937 20.0434 80.7581 19.7813C80.6402 19.6502 80.4812 19.5793 80.3188 19.5707ZM17.1102 22.8805C16.9062 22.873 16.7029 22.9649 16.5734 23.143C16.3663 23.4281 16.4291 23.8243 16.7143 24.0315L19.2114 25.8458C19.4965 26.053 19.8927 25.9904 20.0999 25.7052C20.3071 25.4201 20.2444 25.0236 19.9593 24.8165L17.4622 23.0022C17.3553 22.9245 17.2326 22.8849 17.1102 22.8805ZM82.9071 22.9037C82.7846 22.9082 82.6621 22.9473 82.5551 23.025L80.0569 24.8377C79.7716 25.0446 79.7085 25.4411 79.9154 25.7264C80.1224 26.0117 80.5186 26.0745 80.8039 25.8676L83.3024 24.0549C83.5877 23.848 83.6505 23.4517 83.4436 23.1665C83.3142 22.9882 83.111 22.8967 82.9071 22.9037ZM14.6891 26.4339C14.4856 26.4475 14.293 26.5603 14.1828 26.7511C14.0066 27.0563 14.1104 27.4438 14.4157 27.62L20.7703 31.289C21.0756 31.4652 21.4631 31.3614 21.6393 31.0562C21.8155 30.7509 21.7117 30.3634 21.4065 30.1872L15.0518 26.5182C14.9374 26.4522 14.8113 26.4255 14.6891 26.4339ZM85.3108 26.4339C85.1887 26.4249 85.0626 26.4521 84.9481 26.5183L78.5935 30.1872C78.2882 30.3635 78.1844 30.751 78.3606 31.0562C78.5368 31.3614 78.9244 31.4653 79.2296 31.289L85.5846 27.6201C85.8898 27.4439 85.9936 27.0563 85.8174 26.7511C85.7072 26.5604 85.5144 26.4482 85.3108 26.4339ZM12.8586 30.2215C12.6107 30.2154 12.373 30.3574 12.2653 30.5987C12.1217 30.9206 12.2652 31.2953 12.5871 31.4389L15.4063 32.6964C15.7281 32.8399 16.1029 32.6965 16.2464 32.3746C16.39 32.0527 16.2462 31.678 15.9244 31.5344L13.1055 30.277C13.0251 30.241 12.9413 30.2232 12.8586 30.2215ZM87.1537 30.2476C87.071 30.2492 86.9871 30.2673 86.9066 30.3031L84.0868 31.5584C83.7649 31.7018 83.6209 32.0763 83.7642 32.3983C83.9077 32.7202 84.2824 32.8642 84.6044 32.7209L87.4241 31.4653C87.7461 31.322 87.8898 30.9474 87.7465 30.6254C87.639 30.3839 87.4016 30.2427 87.1537 30.2476ZM11.2272 34.1802C10.9801 34.2009 10.7586 34.3659 10.6767 34.6173C10.5676 34.9524 10.7492 35.3101 11.0844 35.4192L18.0613 37.6926C18.3964 37.8017 18.7541 37.6199 18.8633 37.2849C18.9724 36.9498 18.7907 36.5921 18.4555 36.4829L11.4787 34.2095C11.395 34.1822 11.3096 34.1732 11.2272 34.1802ZM88.7821 34.2074C88.6997 34.1998 88.6147 34.2089 88.5309 34.2367L81.5524 36.5051C81.2172 36.6141 81.0352 36.9717 81.1441 37.3068C81.2531 37.642 81.6106 37.8241 81.9458 37.7151L88.924 35.4467C89.2592 35.3377 89.4415 34.9801 89.3326 34.645C89.2508 34.3936 89.0292 34.2283 88.7821 34.2074ZM10.2108 38.3357C9.91441 38.3326 9.64862 38.5384 9.58451 38.84C9.51121 39.1848 9.7299 39.5212 10.0746 39.5945L13.0939 40.2362C13.4387 40.3095 13.7751 40.0908 13.8484 39.7461C13.9217 39.4013 13.703 39.0648 13.3583 38.9916L10.3393 38.3499C10.2962 38.3409 10.2531 38.3357 10.2108 38.3357ZM89.7906 38.3417C89.7482 38.3421 89.7055 38.3478 89.6624 38.3553L86.643 38.9967C86.2983 39.07 86.0797 39.4062 86.153 39.7509C86.2263 40.0957 86.5627 40.3145 86.9075 40.2413L89.9265 39.5999C90.2713 39.5266 90.4901 39.1902 90.4169 38.8454C90.3528 38.5437 90.0869 38.3392 89.7906 38.3417ZM9.44146 42.5156C9.14644 42.5438 8.90361 42.7753 8.87121 43.082C8.83418 43.4325 9.08631 43.7445 9.43679 43.7816L16.734 44.5531C17.0845 44.5901 17.3966 44.3377 17.4336 43.9872C17.4706 43.6367 17.2183 43.3247 16.8678 43.2876L9.57051 42.5161C9.52669 42.5116 9.48363 42.5116 9.44146 42.5156ZM90.5654 42.5704C90.5232 42.5659 90.4798 42.5659 90.436 42.571L83.1379 43.3326C82.7874 43.3692 82.5347 43.6808 82.5712 44.0313C82.6078 44.3819 82.9194 44.6346 83.27 44.598L90.568 43.8364C90.9186 43.7998 91.1713 43.4882 91.1347 43.1376C91.1027 42.8309 90.8603 42.5991 90.5654 42.5704ZM9.31791 46.7943C8.96546 46.7943 8.68176 47.078 8.68176 47.4304C8.68176 47.7829 8.96546 48.0666 9.31791 48.0666H12.4045C12.7569 48.0666 13.0409 47.7829 13.0409 47.4304C13.0409 47.078 12.7569 46.7943 12.4045 46.7943H9.31791ZM87.5954 46.7943C87.243 46.7943 86.9593 47.078 86.9593 47.4304C86.9593 47.7829 87.243 48.0666 87.5954 48.0666H90.682C91.0345 48.0666 91.3182 47.7829 91.3182 47.4304C91.3182 47.078 91.0345 46.7943 90.682 46.7943H87.5954ZM16.8592 50.2622C16.8171 50.2577 16.774 50.2577 16.7302 50.2628L9.43182 51.0244C9.08127 51.061 8.82859 51.3726 8.86513 51.7231C8.90171 52.0737 9.21335 52.3264 9.56388 52.2898L16.8622 51.5282C17.2128 51.4916 17.4655 51.18 17.4289 50.8294C17.3969 50.5227 17.1542 50.2909 16.8592 50.2622ZM83.1369 50.3073C82.8418 50.3355 82.599 50.567 82.5666 50.8737C82.5296 51.2242 82.7817 51.5362 83.1322 51.5733L90.4295 52.3448C90.78 52.3818 91.092 52.1294 91.129 51.7789C91.1661 51.4284 90.9136 51.1164 90.5632 51.0793L83.2662 50.3078C83.2224 50.3033 83.179 50.3033 83.1369 50.3073ZM13.2213 54.605C13.179 54.6053 13.1359 54.6095 13.0929 54.6186L10.0735 55.2599C9.72877 55.3332 9.51023 55.6697 9.58344 56.0144C9.65674 56.3592 9.99318 56.5777 10.3379 56.5045L13.3573 55.8634C13.702 55.7901 13.9206 55.4537 13.8473 55.1089C13.7833 54.8073 13.5177 54.6025 13.2213 54.605ZM86.7778 54.611C86.4814 54.608 86.2159 54.8134 86.1518 55.1151C86.0785 55.4598 86.2969 55.7963 86.6416 55.8696L89.661 56.5112C90.0057 56.5845 90.3422 56.3661 90.4154 56.0214C90.4887 55.6767 90.2701 55.3399 89.9254 55.2666L86.9063 54.625C86.8632 54.6159 86.8201 54.611 86.7778 54.611ZM18.3056 57.1166C18.2232 57.1091 18.1382 57.1181 18.0544 57.1459L11.0759 59.4144C10.7407 59.5233 10.5587 59.8809 10.6677 60.2161C10.7766 60.5513 11.1342 60.7333 11.4694 60.6243L18.4476 58.3559C18.7828 58.247 18.9651 57.8894 18.8561 57.5542C18.7744 57.3028 18.5527 57.1376 18.3056 57.1166ZM81.6875 57.1391C81.4404 57.1599 81.2189 57.3249 81.137 57.5762C81.0279 57.9114 81.2095 58.2691 81.5447 58.3782L88.5215 60.6516C88.8566 60.7607 89.2143 60.5789 89.3235 60.2439C89.4328 59.9088 89.251 59.5511 88.9158 59.4419L81.939 57.1685C81.8552 57.1412 81.7698 57.1322 81.6875 57.1391ZM15.6427 62.0851C15.56 62.0866 15.4763 62.1044 15.3958 62.1402L12.5758 63.3958C12.2539 63.5391 12.1102 63.9137 12.2535 64.2357C12.3969 64.5576 12.7714 64.7013 13.0934 64.558L15.9134 63.3027C16.2354 63.1594 16.3791 62.7848 16.2357 62.4628C16.1283 62.2213 15.8906 62.0801 15.6427 62.0851ZM84.3471 62.1092C84.0992 62.1032 83.8615 62.2451 83.7538 62.4865C83.6102 62.8084 83.7537 63.1831 84.0756 63.3266L86.8945 64.5841C87.2164 64.7277 87.5911 64.5842 87.7346 64.2623C87.8782 63.9405 87.7347 63.5658 87.4129 63.4222L84.594 62.1647C84.5136 62.1287 84.4298 62.1109 84.3471 62.1092ZM21.133 63.4878C21.0109 63.4787 20.8848 63.506 20.7703 63.5722L14.4157 67.2411C14.1104 67.4173 14.0066 67.8048 14.1828 68.1101C14.3591 68.4153 14.7466 68.5191 15.0518 68.3429L21.4065 64.6742C21.7117 64.498 21.8155 64.1102 21.6393 63.805C21.5291 63.6142 21.3366 63.502 21.133 63.4878ZM78.8672 63.4878C78.6636 63.5014 78.4708 63.6142 78.3606 63.8049C78.1844 64.1101 78.2882 64.498 78.5935 64.6742L84.9481 68.3428C85.2534 68.5191 85.6412 68.4152 85.8174 68.11C85.9936 67.8048 85.8898 67.4173 85.5846 67.241L79.2296 63.5721C79.1152 63.5061 78.9893 63.4794 78.8672 63.4878ZM19.548 68.8719C19.4256 68.8765 19.303 68.9159 19.196 68.9936L16.6978 70.8062C16.4125 71.0132 16.3494 71.4094 16.5563 71.6947C16.7633 71.98 17.1596 72.0431 17.4448 71.836L19.9433 70.0234C20.2286 69.8164 20.2917 69.4202 20.0848 69.1349C19.9554 68.9566 19.7519 68.8649 19.548 68.8719ZM80.4368 68.8934C80.2329 68.8858 80.0296 68.9777 79.9001 69.1559C79.6929 69.441 79.7558 69.8375 80.041 70.0446L82.5381 71.8589C82.8232 72.0661 83.2194 72.0032 83.4266 71.718C83.6337 71.4329 83.571 71.0367 83.286 70.8296L80.7889 69.0153C80.682 68.9376 80.5592 68.8978 80.4368 68.8934ZM25.2061 69.113C25.0438 69.104 24.8781 69.1581 24.7471 69.2758L19.2899 74.1814C19.0278 74.417 19.0065 74.8176 19.2422 75.0798C19.4778 75.3419 19.8784 75.3631 20.1405 75.1275L25.5977 70.222C25.8598 69.9864 25.8811 69.5857 25.6454 69.3236C25.5277 69.1926 25.3685 69.1217 25.2061 69.113ZM74.7787 69.1306C74.6163 69.1396 74.4571 69.2099 74.3392 69.3409C74.1033 69.6028 74.1244 70.0034 74.3863 70.2392L79.8399 75.1486C80.1018 75.3845 80.5027 75.3634 80.7385 75.1015C80.9743 74.8395 80.9532 74.4389 80.6914 74.2031L75.2375 69.2937C75.1065 69.1758 74.9411 69.122 74.7787 69.1306ZM30.3832 73.7909C30.1793 73.7834 29.9758 73.8747 29.8462 74.0529L25.5296 79.9866C25.3222 80.2717 25.3846 80.6681 25.6695 80.8754C25.9545 81.0827 26.3509 81.0203 26.5583 80.7353L30.8749 74.8015C31.0822 74.5165 31.0198 74.1201 30.7349 73.9128C30.6281 73.8351 30.5056 73.7952 30.3832 73.7909ZM69.5813 73.8175C69.4589 73.8221 69.3363 73.8612 69.2293 73.9389C68.944 74.1459 68.881 74.5421 69.0878 74.8274L73.3965 80.7669C73.6035 81.0522 73.9997 81.1153 74.285 80.9084C74.5703 80.7014 74.6333 80.3052 74.4265 80.0199L70.1178 74.0804C69.9884 73.9021 69.7852 73.8106 69.5813 73.8175ZM24.8108 74.734C24.6484 74.7431 24.4891 74.8134 24.3712 74.9443L22.306 77.238C22.0701 77.4999 22.091 77.9008 22.353 78.1366C22.6149 78.3725 23.0155 78.3513 23.2513 78.0893L25.3168 75.7957C25.5527 75.5338 25.5315 75.1329 25.2697 74.897C25.1386 74.7792 24.9732 74.7255 24.8108 74.734ZM75.1853 74.7371C75.0229 74.728 74.8575 74.7822 74.7266 74.9001C74.4646 75.1359 74.4435 75.5365 74.6793 75.7985L76.7442 78.0927C76.98 78.3547 77.3806 78.3757 77.6426 78.1399C77.9045 77.9041 77.9256 77.5032 77.6898 77.2412L75.6248 74.9473C75.5069 74.8163 75.3477 74.7456 75.1853 74.7371ZM36.4112 77.2817C36.1633 77.2756 35.9258 77.4175 35.8182 77.6589L32.8285 84.3601C32.6849 84.682 32.8284 85.0567 33.1503 85.2002C33.4721 85.3438 33.8468 85.2003 33.9904 84.8785L36.9801 78.1773C37.1237 77.8554 36.9802 77.4807 36.6583 77.3371C36.5779 77.3012 36.4938 77.2833 36.4112 77.2817ZM63.5484 77.3001C63.4657 77.3016 63.3818 77.3194 63.3013 77.3553C62.9794 77.4984 62.8353 77.8728 62.9784 78.1949L65.9588 84.9002C66.1019 85.222 66.4766 85.3662 66.7986 85.2231C67.1205 85.0799 67.2647 84.7055 67.1215 84.3835L64.1412 77.6781C64.0339 77.4367 63.7963 77.2953 63.5484 77.3001ZM31.1578 79.3535C30.9542 79.3671 30.7616 79.4799 30.6515 79.6706L29.1082 82.3438C28.932 82.649 29.0358 83.0365 29.341 83.2127C29.6462 83.389 30.0338 83.2851 30.21 82.9799L31.7533 80.3068C31.9295 80.0016 31.8257 79.614 31.5205 79.4378C31.406 79.3718 31.2799 79.3451 31.1578 79.3535ZM68.8422 79.3535C68.7201 79.3445 68.5942 79.3718 68.4798 79.4379C68.1746 79.6141 68.0707 80.0016 68.2469 80.3068L69.7902 82.98C69.9665 83.2852 70.354 83.389 70.6592 83.2128C70.9645 83.0366 71.0683 82.649 70.8921 82.3438L69.3488 79.6707C69.2386 79.4799 69.0457 79.3678 68.8422 79.3535ZM43.0668 79.4493C42.7704 79.4463 42.5049 79.6518 42.4408 79.9534L40.9159 87.1313C40.8426 87.476 41.0613 87.8125 41.406 87.8857C41.7507 87.959 42.0872 87.7403 42.1605 87.3957L43.6854 80.2178C43.7587 79.8731 43.54 79.5366 43.1953 79.4634C43.1522 79.4543 43.1091 79.4493 43.0668 79.4493ZM56.9106 79.4539C56.8683 79.4542 56.8256 79.4584 56.7825 79.4675C56.4377 79.5405 56.2188 79.8766 56.2918 80.2214L57.8115 87.4003C57.8845 87.7451 58.2209 87.964 58.5657 87.891C58.9105 87.818 59.1294 87.4816 59.0564 87.1368L57.5364 79.9584C57.4725 79.6567 57.207 79.4516 56.9106 79.4539ZM50 80.1779C49.6475 80.1779 49.3638 80.4616 49.3638 80.8141V88.1519C49.3638 88.5044 49.6475 88.7881 50 88.7881C50.3524 88.7881 50.6361 88.5044 50.6361 88.1519V80.8141C50.6361 80.4616 50.3524 80.1779 50 80.1779ZM38.3224 82.549C38.0753 82.57 37.8536 82.7353 37.7719 82.9866L36.8178 85.9222C36.7088 86.2574 36.891 86.615 37.2261 86.724C37.5613 86.8329 37.9188 86.6505 38.0278 86.3154L38.9819 83.3801C39.0909 83.0449 38.9087 82.6873 38.5736 82.5784C38.4899 82.5512 38.4048 82.542 38.3224 82.549ZM61.6726 82.5505C61.5902 82.543 61.5052 82.552 61.4214 82.5797C61.0862 82.6886 60.9039 83.0462 61.0128 83.3814L61.9667 86.317C62.0756 86.6522 62.4332 86.8342 62.7684 86.7253C63.1036 86.6163 63.2858 86.259 63.1769 85.9238L62.2228 82.9882C62.1411 82.7368 61.9197 82.5715 61.6726 82.5505ZM46.0068 84.1855C45.7118 84.2139 45.4687 84.4455 45.4365 84.7522L45.1139 87.8221C45.077 88.1726 45.3295 88.4842 45.6801 88.5211C46.0306 88.558 46.3425 88.3054 46.3794 87.9549L46.702 84.8854C46.7388 84.5348 46.4863 84.2229 46.1358 84.1861C46.092 84.1815 46.049 84.1815 46.0068 84.1855ZM53.9676 84.1885C53.9255 84.184 53.8821 84.184 53.8383 84.1891C53.4877 84.2256 53.235 84.5373 53.2716 84.8878L53.5923 87.9579C53.6288 88.3085 53.9405 88.561 54.291 88.5244C54.6415 88.4878 54.8943 88.1761 54.8577 87.8256L54.5373 84.7558C54.5053 84.449 54.2626 84.2172 53.9676 84.1885Z" fill="#F4F2F3"/>
<g id="Vector_5" opacity="0.409" filter="url(#filter1_f_790_3359)">
<path d="M79.8156 21.983L45.0103 42.205L23.0039 76.8493L55.1975 53.0039L79.8156 21.983Z" fill="black"/>
</g>
<path id="Vector_6" d="M54.9882 52.6531L45.0118 42.2056L80.4018 18.3987L54.9882 52.6531Z" fill="#FF5150"/>
<path id="Vector_7" d="M54.9881 52.6531L45.0118 42.2056L19.5981 76.46L54.9881 52.6531Z" fill="#F1F1F1"/>
<path id="Vector_8" opacity="0.243" d="M19.5983 76.46L54.9882 52.6531L80.4019 18.3987L19.5983 76.46Z" fill="black"/>
</g>
</g>
<defs>
<filter id="filter0_f_790_3359" x="0.814814" y="3.80989" width="98.3749" height="94.9946" filterUnits="userSpaceOnUse" color-interpolation-filters="sRGB">
<feFlood flood-opacity="0" result="BackgroundImageFix"/>
<feBlend mode="normal" in="SourceGraphic" in2="BackgroundImageFix" result="shape"/>
<feGaussianBlur stdDeviation="1.79016" result="effect1_foregroundBlur_790_3359"/>
</filter>
<filter id="filter1_f_790_3359" x="21.9863" y="20.9654" width="58.847" height="56.9016" filterUnits="userSpaceOnUse" color-interpolation-filters="sRGB">
<feFlood flood-opacity="0" result="BackgroundImageFix"/>
<feBlend mode="normal" in="SourceGraphic" in2="BackgroundImageFix" result="shape"/>
<feGaussianBlur stdDeviation="0.508813" result="effect1_foregroundBlur_790_3359"/>
</filter>
<linearGradient id="paint0_linear_790_3359" x1="49.9983" y1="94.7718" x2="49.9983" y2="0.0856434" gradientUnits="userSpaceOnUse">
<stop stop-color="#BDBDBD"/>
<stop offset="1" stop-color="white"/>
</linearGradient>
<radialGradient id="paint1_radial_790_3359" cx="0" cy="0" r="1" gradientUnits="userSpaceOnUse" gradientTransform="translate(50.1967 41.067) scale(47.3433 47.3433)">
<stop stop-color="#06C2E7"/>
<stop offset="0.25" stop-color="#0DB8EC"/>
<stop offset="0.5" stop-color="#12AEF1"/>
<stop offset="0.75" stop-color="#1F86F9"/>
<stop offset="1" stop-color="#107DDD"/>
</radialGradient>
<clipPath id="clip0_790_3359">
<rect width="100" height="99.4528" fill="white" transform="translate(0 0.000488281)"/>
</clipPath>
</defs>
</svg>
