<svg width="100" height="100" viewBox="0 0 100 100" fill="none" xmlns="http://www.w3.org/2000/svg">
<g id="strada">
<g id="strada_2">
<path id="Vector" d="M2.94118 -0.000854492C1.31681 -0.000854492 0 1.31596 0 2.94033V26.9271C0 28.3908 0 29.1225 0.288421 29.5123C0.54605 29.8605 0.914989 30.0665 1.34658 30.103C1.82977 30.144 2.47005 29.749 3.7506 28.9593C17.1987 20.6661 33.0406 15.8815 50 15.8815C66.9593 15.8815 82.8013 20.6661 96.2492 28.9593C97.5299 29.749 98.1701 30.144 98.6534 30.103C99.0849 30.0665 99.4539 29.8605 99.7116 29.5123C99.9999 29.1225 99.9999 28.3908 99.9999 26.9271V2.94033C99.9999 1.31595 98.6831 -0.000854492 97.0587 -0.000854492H2.94118Z" fill="#E76057"/>
<path id="Vector_2" d="M10.5882 99.9991C11.4118 99.9991 11.8236 99.9991 12.1382 99.8387C12.4149 99.6977 12.6399 99.4729 12.7809 99.1961C12.9411 98.8816 12.9411 98.4697 12.9411 97.6461V43.9941C12.9411 42.6708 12.9411 42.0091 12.6456 41.6163C12.3949 41.2831 11.983 41.0605 11.567 41.0331C11.0765 41.001 10.5404 41.3518 9.46799 42.0535C6.40355 44.059 3.49668 46.2851 0.769979 48.7096C0.492331 48.9565 0.353507 49.08 0.249244 49.2355C0.15837 49.3708 0.0877256 49.5283 0.0468586 49.6861C-3.05176e-05 49.8673 -3.05176e-05 50.0585 -3.05176e-05 50.4408V97.0579C-3.05176e-05 98.6822 1.31678 99.9991 2.94115 99.9991H10.5882Z" fill="#E76057"/>
<path id="Vector_3" d="M32.3526 99.9994C33.1761 99.9994 33.5879 99.9994 33.9026 99.839C34.1793 99.698 34.4043 99.4732 34.5453 99.1964C34.7054 98.8819 34.7054 98.47 34.7054 97.6464V34.4769C34.7054 33.4891 34.7054 32.9951 34.4924 32.6436C34.3098 32.3424 34.0046 32.1044 33.6679 32.0008C33.2753 31.8798 32.8108 31.9964 31.8818 32.2298C28.9221 32.9734 26.0329 33.8949 23.2266 34.9826C22.7114 35.1823 22.4538 35.2821 22.2541 35.4606C22.0809 35.6156 21.9406 35.8204 21.8588 36.0379C21.7643 36.2886 21.7643 36.5731 21.7643 37.1421V97.6464C21.7643 98.47 21.7643 98.8819 21.9246 99.1964C22.0656 99.4732 22.2906 99.698 22.5673 99.839C22.8818 99.9994 23.2936 99.9994 24.1173 99.9994H32.3526Z" fill="#E76057"/>
<path id="Vector_4" d="M54.1177 99.9991C54.9414 99.9991 55.353 99.9991 55.6677 99.8388C55.9444 99.6978 56.1694 99.473 56.3104 99.1961C56.4707 98.8816 56.4707 98.4698 56.4707 97.6461V32.436C56.4707 31.6755 56.4707 31.2954 56.3217 30.99C56.193 30.7265 55.9755 30.4962 55.7197 30.3527C55.4235 30.1864 55.055 30.1652 54.318 30.1229C52.8892 30.0409 51.4495 29.9992 50.0001 29.9992C48.5506 29.9992 47.1109 30.0409 45.6821 30.1229C44.9451 30.1652 44.5766 30.1864 44.2804 30.3527C44.0246 30.4962 43.8071 30.7265 43.6784 30.99C43.5294 31.2954 43.5294 31.6755 43.5294 32.436V97.6461C43.5294 98.4698 43.5294 98.8816 43.6897 99.1961C43.8307 99.473 44.0557 99.6978 44.3324 99.8388C44.6471 99.9991 45.0587 99.9991 45.8824 99.9991H54.1177Z" fill="#E76057"/>
<path id="Vector_5" d="M75.8819 99.9994C76.7055 99.9994 77.1174 99.9994 77.4319 99.839C77.7085 99.698 77.9335 99.4732 78.0745 99.1964C78.2349 98.8819 78.2349 98.47 78.2349 97.6464V37.1421C78.2349 36.5731 78.2349 36.2886 78.1404 36.0379C78.0584 35.8204 77.9182 35.6156 77.745 35.4606C77.5454 35.2821 77.2877 35.1823 76.7725 34.9826C73.9662 33.8949 71.077 32.9734 68.1174 32.2298C67.1884 31.9964 66.7239 31.8798 66.3312 32.0008C65.9945 32.1044 65.6894 32.3424 65.5067 32.6436C65.2937 32.9951 65.2937 33.4891 65.2937 34.4769V97.6464C65.2937 98.47 65.2937 98.8819 65.4539 99.1964C65.5949 99.4732 65.8199 99.698 66.0965 99.839C66.4112 99.9994 66.823 99.9994 67.6465 99.9994H75.8819Z" fill="#E76057"/>
<path id="Vector_6" d="M100 50.4408C100 50.0585 100 49.8673 99.9531 49.6861C99.9121 49.5283 99.8416 49.3708 99.7506 49.2355C99.6465 49.08 99.5076 48.9565 99.23 48.7096C96.5033 46.2851 93.5963 44.059 90.532 42.0535C89.4596 41.3518 88.9235 41.001 88.433 41.0331C88.017 41.0605 87.605 41.2831 87.3543 41.6163C87.0588 42.0091 87.0588 42.6708 87.0588 43.9941V97.6461C87.0588 98.4697 87.0588 98.8816 87.2191 99.1961C87.3601 99.4729 87.585 99.6977 87.8618 99.8387C88.1763 99.9991 88.5881 99.9991 89.4118 99.9991H97.0588C98.6831 99.9991 100 98.6822 100 97.0579V50.4408Z" fill="#E76057"/>
</g>
</g>
</svg>
