<svg width="100" height="100" viewBox="0 0 100 100" fill="none" xmlns="http://www.w3.org/2000/svg">
<g id="streamlit">
<path id="Vector" d="M50.0768 56.4529L32.6043 47.217L2.27477 31.1871C2.24686 31.1595 2.19171 31.1595 2.16381 31.1595C1.0565 30.6333 -0.0787181 31.7409 0.336564 32.8483L15.7907 72.2642L15.7934 72.2725C15.81 72.3114 15.8239 72.3499 15.8406 72.3888C16.4748 73.8589 17.8588 74.7669 19.3651 75.124C19.4924 75.1519 19.5834 75.1768 19.7362 75.2074C19.8887 75.2413 20.1017 75.2875 20.2844 75.3014C20.3143 75.3041 20.3422 75.3041 20.3728 75.3067H20.395C20.417 75.3097 20.4392 75.3097 20.4615 75.3124H20.4917C20.5113 75.315 20.5332 75.315 20.5528 75.315H20.5887C20.611 75.318 20.6329 75.318 20.6552 75.318C40.2272 77.4519 59.9732 77.4519 79.5452 75.318C79.7804 75.318 80.0103 75.3067 80.2316 75.2848L80.4422 75.2599C80.4505 75.2569 80.4615 75.2569 80.4698 75.2542C80.517 75.2486 80.5638 75.2403 80.611 75.232C80.6801 75.2237 80.7495 75.21 80.8186 75.1961C80.9572 75.1655 81.02 75.1436 81.208 75.0788C81.3957 75.0144 81.7077 74.9014 81.9027 74.8074C82.098 74.7134 82.2332 74.623 82.3967 74.5207C82.5985 74.394 82.7951 74.2593 82.9861 74.1167C83.0701 74.0522 83.1276 74.011 83.1884 73.9529L83.1552 73.9336L50.0768 56.4529Z" fill="#FF4B4B"/>
<path id="Vector_2" d="M97.9289 31.1875H97.9014L67.5605 47.2174L84.4266 72.3366L99.8419 32.8486V32.7931C100.23 31.6303 99.0392 30.5785 97.9289 31.1875Z" fill="#7D353B"/>
<path id="Vector_3" d="M51.6937 23.5655C50.9183 22.433 49.2296 22.433 48.482 23.5655L32.6043 47.2174L50.0767 56.4532L83.1887 73.9529C83.3967 73.7492 83.5634 73.5509 83.7395 73.3413C83.9973 73.0269 84.2271 72.6907 84.4262 72.3363L67.5601 47.2174L51.6937 23.5655Z" fill="#BD4043"/>
</g>
</svg>
