<svg width="100" height="100" viewBox="0 0 100 100" fill="none" xmlns="http://www.w3.org/2000/svg">
<g id="xd">
<g id="xd_2">
<path id="Vector" d="M17.7083 1.00049H82.2917C92.0833 1.00049 100 8.91715 100 18.7088V80.7922C100 90.5838 92.0833 98.5005 82.2917 98.5005H17.7083C7.91667 98.5005 0 90.5838 0 80.7922V18.7088C0 8.91715 7.91667 1.00049 17.7083 1.00049Z" fill="#470137"/>
<path id="Vector_2" d="M52.5832 26.6255L40.0832 47.2505L53.4166 69.1255C53.4999 69.2922 53.5416 69.4588 53.4999 69.6255C53.4582 69.7922 53.2916 69.6672 53.0416 69.7088H43.4999C42.8332 69.7088 42.3749 69.6672 42.0832 69.2505C41.2082 67.5005 40.2916 65.7922 39.4166 64.0422C38.5416 62.3338 37.5832 60.5838 36.5832 58.7922C35.5832 57.0005 34.5832 55.2088 33.5832 53.3755H33.4999C32.6249 55.1672 31.6666 56.9588 30.7082 58.7505C29.7499 60.5422 28.7916 62.3338 27.8749 64.0838C26.9166 65.8338 25.9582 67.6255 24.9999 69.3338C24.8332 69.7505 24.4999 69.7922 24.0416 69.7922H14.8749C14.7082 69.7922 14.5832 69.8755 14.5832 69.6672C14.5416 69.5005 14.5832 69.3338 14.6666 69.2088L27.6249 47.9588L14.9999 26.5838C14.8749 26.4172 14.8332 26.2505 14.9166 26.1672C14.9999 26.0422 15.1666 26.0005 15.3332 26.0005H24.7916C24.9999 26.0005 25.2082 26.0422 25.3749 26.0838C25.5416 26.1672 25.6666 26.2922 25.7916 26.4588C26.5832 28.2505 27.4999 30.0422 28.4582 31.8338C29.4582 33.6255 30.4166 35.3755 31.4582 37.1255C32.4582 38.8755 33.3749 40.6255 34.2499 42.4172H34.3332C35.2082 40.5838 36.1249 38.7922 37.0416 37.0422C37.9582 35.2922 38.9166 33.5422 39.8749 31.7922C40.8332 30.0422 41.7499 28.2505 42.6666 26.5422C42.7082 26.3755 42.7916 26.2088 42.9166 26.1255C43.0832 26.0422 43.2499 26.0005 43.4582 26.0422H52.2499C52.4582 26.0005 52.6666 26.1255 52.7082 26.3338C52.7499 26.3755 52.6666 26.5422 52.5832 26.6255Z" fill="#FF61F6"/>
<path id="Vector_3" d="M71.8333 70.5838C68.7499 70.6255 65.6666 70.0005 62.8749 68.7088C60.2499 67.5005 58.0833 65.5005 56.5833 63.0421C55.0416 60.5005 54.2916 57.3338 54.2916 53.5421C54.2499 50.4588 55.0416 47.4171 56.5833 44.7505C58.1666 42.0421 60.4583 39.7921 63.2083 38.2921C66.1249 36.6671 69.6249 35.8755 73.7499 35.8755C73.9583 35.8755 74.2499 35.8755 74.6249 35.9171C74.9999 35.9588 75.4166 35.9588 75.9166 36.0005V22.8338C75.9166 22.5421 76.0416 22.3755 76.3333 22.3755H84.7916C84.9999 22.3338 85.1666 22.5005 85.2083 22.6671C85.2083 22.7088 85.2083 22.7505 85.2083 22.7505V62.4171C85.2083 63.1671 85.2499 64.0005 85.2916 64.9171C85.3749 65.7921 85.4166 66.6255 85.4583 67.3338C85.4583 67.6255 85.3333 67.8755 85.0416 68.0005C82.8749 68.9171 80.5833 69.5838 78.2499 70.0005C76.1249 70.3755 73.9999 70.5838 71.8333 70.5838ZM75.9166 62.2505V43.9171C75.5416 43.8338 75.1666 43.7505 74.7916 43.7088C74.3333 43.6671 73.8749 43.6255 73.4166 43.6255C71.7916 43.6255 70.1666 43.9588 68.7083 44.7088C67.2916 45.4171 66.0833 46.4588 65.1666 47.7921C64.2499 49.1255 63.7916 50.9171 63.7916 53.0838C63.7499 54.5421 63.9999 56.0005 64.4999 57.3755C64.9166 58.5005 65.5416 59.5005 66.3749 60.3338C67.1666 61.0838 68.1249 61.6671 69.2083 62.0005C70.3333 62.3755 71.4999 62.5421 72.6666 62.5421C73.2916 62.5421 73.8749 62.5005 74.4166 62.4588C74.9583 62.5005 75.4166 62.4171 75.9166 62.2505Z" fill="#FF61F6"/>
</g>
</g>
</svg>
