<svg width="100" height="100" viewBox="0 0 100 100" fill="none" xmlns="http://www.w3.org/2000/svg">
<g id="yoga">
<g id="yoga_2">
<path id="Vector" d="M50 99.9991C77.6142 99.9991 100 77.6134 100 49.9991C100 22.3849 77.6142 -0.000854492 50 -0.000854492C22.3858 -0.000854492 0 22.3849 0 49.9991C0 77.6134 22.3858 99.9991 50 99.9991Z" fill="#303846"/>
<path id="Vector_2" d="M50.4053 70.675C54.3918 63.7155 54.6621 54.9317 50.4053 47.4993C46.1486 40.0668 38.3107 35.9452 30.3378 35.9452C26.3513 42.9047 26.081 51.6885 30.3378 59.1209C34.5945 66.4858 42.3648 70.675 50.4053 70.675Z" stroke="#97DCCF" stroke-width="3.37838" stroke-miterlimit="10"/>
<path id="Vector_3" d="M49.5949 70.675C57.5678 70.675 65.3381 66.5533 69.6624 59.1209C73.9192 51.6885 73.6489 42.9047 69.6624 35.9452C61.6895 35.9452 53.9192 40.0668 49.5949 47.4993C45.3381 54.9317 45.6084 63.7155 49.5949 70.675Z" stroke="#97DCCF" stroke-width="3.37838" stroke-miterlimit="10"/>
<path id="Vector_4" d="M50 69.864C56.8919 65.8775 61.554 58.3775 61.554 49.7964C61.554 41.2154 56.8919 33.7154 50 29.7289C43.1081 33.7154 38.4459 41.2154 38.4459 49.7964C38.4459 58.3775 43.1081 65.8775 50 69.864Z" stroke="#97DCCF" stroke-width="3.37838" stroke-miterlimit="10"/>
</g>
</g>
</svg>
