<?xml version="1.0" encoding="UTF-8"?>
<svg xmlns="http://www.w3.org/2000/svg" width="241" height="37" viewBox="0 0 241 37" fill="none">
  <path d="M71.5222 10.7467H66.4935C66.2868 10.7467 66.0802 10.8833 66.0113 11.0882L61.6026 26.8681L56.9183 11.0882C56.8494 10.8833 56.6428 10.7467 56.4361 10.7467H51.4074C51.063 10.7467 50.8563 11.0882 50.9252 11.3615L58.3649 32.4696C58.4338 32.6746 58.6405 32.8112 58.8471 32.8112H64.2203C64.4269 32.8112 64.6336 32.6746 64.7025 32.4696L72.0044 11.3615C72.0733 11.0199 71.8666 10.7467 71.5222 10.7467Z" fill="#fff"></path>
  <path d="M88.1926 15.0503V11.2249C88.1926 10.9516 87.986 10.7467 87.7104 10.7467H82.8884C82.6129 10.7467 82.4062 10.9516 82.4062 11.2249V32.333C82.4062 32.6063 82.6129 32.8112 82.8884 32.8112H87.7104C87.986 32.8112 88.1926 32.6063 88.1926 32.333V21.6082C88.1926 18.2609 91.1548 15.6651 94.4613 16.075H94.5302C94.8057 16.1433 95.0813 15.87 95.0813 15.5968V10.3368C94.7368 10.2685 94.5991 10.2685 94.3924 10.2685C91.7747 10.3368 89.5015 12.0446 88.1926 15.0503Z" fill="#fff"></path>
  <path d="M122.567 4.1888L117.745 5.28178C117.538 5.35009 117.4 5.55503 117.4 5.75996V32.2647C117.4 32.538 117.607 32.7429 117.883 32.7429H122.705C122.98 32.7429 123.187 32.538 123.187 32.2647V4.66698C123.187 4.32543 122.98 4.12049 122.567 4.1888Z" fill="#fff"></path>
  <path d="M145.024 10.3368C141.993 10.3368 139.995 11.4298 138.342 13.889V11.1565C138.342 10.8833 138.135 10.6784 137.86 10.6784H133.038C132.762 10.6784 132.555 10.8833 132.555 11.1565V32.2647C132.555 32.538 132.762 32.7429 133.038 32.7429H137.86C138.135 32.7429 138.342 32.538 138.342 32.2647V19.5588C138.342 16.963 140.133 15.2552 143.026 15.2552C145.506 15.2552 146.746 16.6214 146.746 19.2173V32.333C146.746 32.6063 146.953 32.8112 147.228 32.8112H152.05C152.326 32.8112 152.532 32.6063 152.532 32.333V17.9877C152.532 13.0693 149.846 10.3368 145.024 10.3368Z" fill="#fff"></path>
  <path d="M173.68 17.0996C173.68 12.5911 170.581 10.3368 164.587 10.3368C158.801 10.3368 155.632 12.6594 155.081 17.4412C155.081 17.7144 155.288 17.9877 155.563 17.9877H160.179C160.454 17.9877 160.592 17.7827 160.661 17.5778C161.005 15.5968 162.039 14.982 164.656 14.982C166.861 14.982 167.963 15.7334 167.963 17.1679C167.963 17.9194 167.618 18.5342 166.998 18.8757C166.241 19.2856 166.241 19.2856 163.347 19.7638L161.005 20.1736C156.597 20.925 154.461 23.1793 154.461 27.1414C154.461 31.1034 157.148 33.7676 161.212 33.7676C163.416 33.7676 165.414 32.9478 167.205 31.3083C167.481 31.0351 167.963 31.24 168.032 31.5816C168.101 31.9915 168.238 32.2647 168.514 32.6063C168.583 32.7429 168.721 32.8112 168.927 32.8112H174.92V32.1281C173.956 31.1717 173.612 30.5569 173.612 29.4639V17.0996H173.68ZM168.032 23.9307C168.032 27.2097 166.378 29.1224 163.485 29.1224C161.556 29.1224 160.385 28.0977 160.385 26.4583C160.385 24.7505 161.281 23.9307 163.692 23.4526L165.69 23.111C166.654 22.9061 167.067 22.8378 167.481 22.7011C167.825 22.5645 168.17 22.8378 168.17 23.1793V23.9307H168.032Z" fill="#fff"></path>
  <path d="M193.175 10.7467H188.353C188.078 10.7467 187.871 10.9516 187.871 11.2249V32.333C187.871 32.6063 188.078 32.8112 188.353 32.8112H193.175C193.451 32.8112 193.657 32.6063 193.657 32.333V11.2249C193.726 10.9516 193.451 10.7467 193.175 10.7467Z" fill="#fff"></path>
  <path d="M207.09 10.3368C200.27 10.3368 196.137 14.777 196.137 22.018C196.137 29.3273 200.27 33.6992 207.159 33.6992C213.979 33.6992 218.181 29.259 218.181 22.1546C218.112 14.7087 214.048 10.3368 207.09 10.3368ZM207.159 29.1224C204.059 29.1224 201.924 26.3216 201.924 22.018C201.924 17.7827 204.059 14.9137 207.159 14.9137C210.328 14.9137 212.394 17.7144 212.394 22.0863C212.394 26.2533 210.259 29.1224 207.159 29.1224Z" fill="#fff"></path>
  <path d="M232.991 10.3368C229.96 10.3368 227.963 11.4298 226.309 13.889V11.1565C226.309 10.8833 226.103 10.6784 225.827 10.6784H221.005C220.73 10.6784 220.523 10.8833 220.523 11.1565V32.2647C220.523 32.538 220.73 32.7429 221.005 32.7429H225.827C226.103 32.7429 226.309 32.538 226.309 32.2647V19.5588C226.309 16.963 228.101 15.2552 230.994 15.2552C233.474 15.2552 234.714 16.6214 234.714 19.2173V32.333C234.714 32.6063 234.92 32.8112 235.196 32.8112H240.018C240.293 32.8112 240.5 32.6063 240.5 32.333V17.9877C240.5 13.0693 237.813 10.3368 232.991 10.3368Z" fill="#fff"></path>
  <path d="M105.69 10.3368C99.9033 10.3368 96.7345 12.6594 96.1835 17.4412C96.1835 17.7144 96.3901 17.9877 96.6657 17.9877H101.281C101.557 17.9877 101.694 17.7827 101.763 17.5778C102.108 15.5968 103.141 14.982 105.759 14.982C107.963 14.982 109.065 15.7334 109.065 17.1679C109.065 17.9194 108.721 18.5342 108.101 18.8757C107.343 19.2856 107.343 19.2856 104.45 19.7638L102.108 20.1736C97.699 20.925 95.5635 23.1793 95.5635 27.1414C95.5635 31.1034 98.25 33.7676 102.314 33.7676C104.519 33.7676 106.516 32.9478 108.307 31.3083C108.583 31.0351 109.065 31.24 109.134 31.5816C109.203 31.9915 109.341 32.2647 109.616 32.6063C109.685 32.7429 109.823 32.8112 110.03 32.8112H114.232C114.507 32.8112 114.714 32.6063 114.714 32.333V17.1679C114.852 12.6594 111.752 10.3368 105.69 10.3368ZM109.203 23.9307C109.203 27.2097 107.55 29.1224 104.656 29.1224C102.728 29.1224 101.557 28.0977 101.557 26.4583C101.557 24.7505 102.452 23.9307 104.863 23.4526L106.861 23.111C107.825 22.9061 108.239 22.8378 108.652 22.7011C108.996 22.5645 109.341 22.8378 109.341 23.1793V23.9307H109.203Z" fill="#fff"></path>
  <path d="M184.496 14.5721C184.771 14.5721 184.84 14.3672 184.978 14.0939L186.149 11.2932C186.218 10.9516 186.08 10.815 185.667 10.815H182.36V4.66698C182.36 4.32543 182.085 4.12049 181.671 4.1888L176.849 5.28178C176.643 5.35009 176.574 5.55503 176.574 5.75996V14.0939C176.574 14.3672 176.78 14.5721 177.056 14.5721H180.982L176.849 17.0313C176.643 17.1679 176.505 17.3729 176.505 17.6461V27.8928C176.505 31.3767 178.365 33.0844 182.153 33.0844C183.324 33.0844 184.22 33.0161 185.116 32.7429C185.322 32.6746 185.46 32.4696 185.46 32.2647V29.1907C185.46 28.9175 185.184 28.6442 184.909 28.7125C184.633 28.7125 184.427 28.7808 184.151 28.7808C182.636 28.7808 182.222 28.3027 182.222 26.3899V14.5721H184.496Z" fill="#fff"></path>
  <path d="M79.0997 10.7467H74.2776C74.0021 10.7467 73.7954 10.9516 73.7954 11.2249V32.333C73.7954 32.6063 74.0021 32.8112 74.2776 32.8112H79.0997C79.3752 32.8112 79.5819 32.6063 79.5819 32.333V11.2249C79.6508 10.9516 79.3752 10.7467 79.0997 10.7467Z" fill="#fff"></path>
  <path d="M79.2374 3.23245H74.4154C74.1399 3.23245 73.9332 3.43738 73.9332 3.71063V7.87761C73.9332 8.15085 74.1399 8.35579 74.4154 8.35579H79.2374C79.513 8.35579 79.7197 8.15085 79.7197 7.87761V3.71063C79.7197 3.43738 79.513 3.23245 79.2374 3.23245Z" fill="#fff"></path>
  <path d="M193.313 3.23245H188.491C188.215 3.23245 188.009 3.43738 188.009 3.71063V7.87761C188.009 8.15085 188.215 8.35579 188.491 8.35579H193.313C193.589 8.35579 193.795 8.15085 193.795 7.87761V3.71063C193.795 3.43738 193.589 3.23245 193.313 3.23245Z" fill="#fff"></path>
  <path d="M46.7232 0.5H40.9367L23.853 29.6689L15.8622 15.87L12.4867 21.7448L20.8908 36.2268C21.0286 36.4317 21.1664 36.5 21.3731 36.5H26.4706C26.6773 36.5 26.8839 36.3634 26.9528 36.2268L47.2054 1.38805C47.412 0.978179 47.1365 0.5 46.7232 0.5Z" fill="#fff"></path>
  <path d="M23.853 24.2723L37.768 0.5H31.2927C31.086 0.5 30.8793 0.636622 30.8105 0.841556L23.853 12.5228L17.0332 0.841556C16.9643 0.636622 16.7577 0.5 16.551 0.5H1.12051C0.638308 0.5 0.362763 0.978179 0.569422 1.38805L10.7646 18.944L15.7244 10.4051L23.853 24.2723Z" fill="#fff"></path>
</svg>
