<?xml version="1.0" encoding="UTF-8"?>
<svg width="800px" height="800px" viewBox="0 0 64 64" version="1.1" xmlns="http://www.w3.org/2000/svg" xmlns:xlink="http://www.w3.org/1999/xlink">
    <g id="web-developer" stroke="none" stroke-width="1" fill="none" fill-rule="evenodd">
        <path d="M32,64 C49.673112,64 64,49.673112 64,32 C64,14.326888 49.673112,0 32,0 C14.326888,0 0,14.326888 0,32 C0,49.673112 14.326888,64 32,64 Z" id="background" fill="#E3F2FD"></path>
        <g id="desk" transform="translate(8.000000, 36.000000)">
            <rect id="table" fill="#795548" x="0" y="0" width="48" height="4" rx="1"></rect>
            <rect id="leg-left" fill="#5D4037" x="4" y="4" width="4" height="16"></rect>
            <rect id="leg-right" fill="#5D4037" x="40" y="4" width="4" height="16"></rect>
        </g>
        <g id="computer" transform="translate(16.000000, 16.000000)">
            <rect id="monitor" fill="#455A64" x="0" y="0" width="24" height="16" rx="2"></rect>
            <rect id="screen" fill="#BBDEFB" x="2" y="2" width="20" height="12" rx="1"></rect>
            <path d="M10,16 L14,16 L14,20 L10,20 L10,16 Z" id="stand" fill="#78909C"></path>
            <path d="M8,20 L16,20 L16,21 C16,21.5522847 15.5522847,22 15,22 L9,22 C8.44771525,22 8,21.5522847 8,21 L8,20 Z" id="base" fill="#546E7A"></path>
            <path d="M6,6 L8,6 L8,7 L6,7 L6,6 Z M10,6 L14,6 L14,7 L10,7 L10,6 Z M6,9 L12,9 L12,10 L6,10 L6,9 Z M14,9 L18,9 L18,10 L14,10 L14,9 Z" id="code" fill="#2196F3"></path>
        </g>
        <g id="coffee" transform="translate(44.000000, 24.000000)">
            <path d="M0,2 C0,0.8954305 0.8954305,0 2,0 L6,0 C7.1045695,0 8,0.8954305 8,2 L8,8 L0,8 L0,2 Z" id="cup" fill="#795548"></path>
            <path d="M1,2 L7,2 L7,7 L1,7 L1,2 Z" id="coffee" fill="#5D4037"></path>
            <path d="M8,3 L10,3 C10.5522847,3 11,3.44771525 11,4 L11,5 C11,5.55228475 10.5522847,6 10,6 L8,6 L8,3 Z" id="handle" fill="#795548"></path>
        </g>
        <g id="person" transform="translate(28.000000, 8.000000)">
            <circle id="head" fill="#FFD54F" cx="4" cy="4" r="4"></circle>
            <path d="M4,8 C1.790861,8 0,9.790861 0,12 L0,20 L8,20 L8,12 C8,9.790861 6.209139,8 4,8 Z" id="body" fill="#2196F3"></path>
            <path d="M2,4 C2.55228475,4 3,3.55228475 3,3 C3,2.44771525 2.55228475,2 2,2 C1.44771525,2 1,2.44771525 1,3 C1,3.55228475 1.44771525,4 2,4 Z" id="eye-left" fill="#212121"></path>
            <path d="M6,4 C6.55228475,4 7,3.55228475 7,3 C7,2.44771525 6.55228475,2 6,2 C5.44771525,2 5,2.44771525 5,3 C5,3.55228475 5.44771525,4 6,4 Z" id="eye-right" fill="#212121"></path>
            <path d="M4,6 C5.1045695,6 6,5.1045695 6,4 L2,4 C2,5.1045695 2.8954305,6 4,6 Z" id="mouth" fill="#212121"></path>
        </g>
    </g>
</svg>
